<mxfile host="app.diagrams.net" agent="Mozilla/5.0 (Windows NT 10.0; Win64; x64) AppleWebKit/537.36 (KHTML, like Gecko) Chrome/134.0.0.0 Safari/537.36" version="26.1.1">
  <diagram name="Página-1" id="zdUMHYHoKt-4t0mzd_RH">
    <mxGraphModel grid="1" page="1" gridSize="10" guides="1" tooltips="1" connect="1" arrows="1" fold="1" pageScale="1" pageWidth="1169" pageHeight="827" math="0" shadow="0">
      <root>
        <mxCell id="0" />
        <mxCell id="1" parent="0" />
        <mxCell id="2MOlIIQ-UUBEkm-nTI54-15" value="&lt;h1 style=&quot;margin-top: 0px;&quot;&gt;DB Relacional&lt;/h1&gt;&lt;p&gt;Bases Relacionais dos Sistemas de Segurança Publica&lt;/p&gt;" style="text;html=1;whiteSpace=wrap;overflow=hidden;rounded=0;" vertex="1" parent="1">
          <mxGeometry x="16" y="40" width="180" height="120" as="geometry" />
        </mxCell>
        <mxCell id="2MOlIIQ-UUBEkm-nTI54-16" value="Base Relacional (Trasnacional)" style="swimlane;whiteSpace=wrap;html=1;" vertex="1" parent="1">
          <mxGeometry x="215" y="10" width="358" height="150" as="geometry" />
        </mxCell>
        <mxCell id="2MOlIIQ-UUBEkm-nTI54-7" value="" style="outlineConnect=0;dashed=0;verticalLabelPosition=bottom;verticalAlign=top;align=center;html=1;shape=mxgraph.aws3.postgre_sql_instance;fillColor=#2E73B8;gradientColor=none;" vertex="1" parent="2MOlIIQ-UUBEkm-nTI54-16">
          <mxGeometry x="100" y="40.5" width="60" height="63" as="geometry" />
        </mxCell>
        <mxCell id="2MOlIIQ-UUBEkm-nTI54-5" value="" style="outlineConnect=0;dashed=0;verticalLabelPosition=bottom;verticalAlign=top;align=center;html=1;shape=mxgraph.aws3.oracle_db_instance;fillColor=#2E73B8;gradientColor=none;" vertex="1" parent="2MOlIIQ-UUBEkm-nTI54-16">
          <mxGeometry x="10" y="39" width="60" height="64.5" as="geometry" />
        </mxCell>
        <mxCell id="2MOlIIQ-UUBEkm-nTI54-6" value="" style="image;aspect=fixed;html=1;points=[];align=center;fontSize=12;image=img/lib/azure2/databases/Azure_Database_PostgreSQL_Server.svg;" vertex="1" parent="2MOlIIQ-UUBEkm-nTI54-16">
          <mxGeometry x="140" y="70" width="33" height="44" as="geometry" />
        </mxCell>
        <mxCell id="2MOlIIQ-UUBEkm-nTI54-55" value="" style="shape=image;verticalLabelPosition=bottom;labelBackgroundColor=default;verticalAlign=top;aspect=fixed;imageAspect=0;image=data:image/png,iVBORw0KGgoAAAANSUhEUgAAAMYAAACgCAYAAABXNhMaAAAAAXNSR0IArs4c6QAAAARnQU1BAACxjwv8YQUAAAAJcEhZcwAADsMAAA7DAcdvqGQAAFa2SURBVHhe7V0HdBRV20YBNTTpAqFopIsU+elNQVR6kSooRap0BGlKRHrvVSChQ+gQCAnpvSek92TTN9mWvtly3/88s5mwOyQQEJQP9jlnTrJzZyazk/vM299bqdJbAiKqoslKiyWiysIxI4x4q6HNyjzICnLnC/cbYcRbDSJ6R6uQuDHGmgnHjDDirQbLyanHlMoVwv1GGPHWgylzhhltDSOMEACGOFOrvxLuN8III4wwwggjjDDCCCOMMMIII4wwwggjjDDCCCOMMMIII4wwwggjjDDCCCOMMMIII95QENF7OTk59dLS0pqnpqZ2Tk9P74qfKSkpPVJTU3ulpqZ2SU9Pby8SiT4ViURNZDLZh0RUVXgdI4z4nwERvSsWixuJxeJO6enpA9LS0lanpKS4pqSkpKakpChFIpFWJBKx5ORkMtxEJBKJKDExkRISEik+Pp5iY+MoOjqGoqKiKTw8goWHR2jDw8OVYWHh6WFh4c4REVGbYmJiBkRFRdX39/c3EseI1wOoxEtNTa2Xnp6+NTU1VZWSksJNckxwbPoTH2Nlb7rxpKQkjhTx8QkUFxdHsbGxFBMTy5EiIiISxKCwsHAKDQ2lR49CKCgomAIDg8jPz598ff3I29uX23x8uE0bEBD8MDw8vFV2dnZN4X0bYcRLR0xMzPsZGRnjRSKRSPjWf3LSP33DOYmJOkIkJMSXEkInJaIoMjKSIiJ0hAgJCaWQkBB69OgRBQeDFIHk7x+gRwwf8vLyJg8PT3Jz8yBXVzdycnIhBwdHcnFxJS8vX/vQ0Mjewu9jhBEvDFTZpaSk/CUSiQpflASPt8cSgleZ4uLiOekQExNDkZEgRFSphAgJCeNIERz8iJMSAQGBFBAQQL6++pLChzw8vPRI4U7Ozq4cMRwdncje3pFsbR+SjY0tPXhgR87OLkHh4eFDhN/zVcIvIqJx0KOwowmJIgljzEQ4bsT/ENLS0uqLRKJg3iZ4cpI/32aoMukkBAjBS4ioKEOVCRJCnxD+/oGchPDx4SWEjhDu7iCEe5mEsLd3IDs7e44QIMa9ezZ09+49unnzDt29e1/j6emzT/i9XxacnJyq+AeGmGdkZinVanVWYWFhv7DwCLFGo/lBeKwR/yNITk4OeDlkeEwIXkLoDGudhNCpTFGcyhQezhNCKCF0hICE8PHRqUyenk9KCGdnEMKZHBxACp4QDzlS3L//gKytQYr7HDFu375LN27cIiur63Tt2k3m5eV9RfgMXhROTk6NQkLD0xQ5OVrGWCgR1ebHHj169LlCkRNkeIYRrz3gNn0ZhMCmIwQ8TUklRrWOENHRsRQZCaP6MSGgMj16BEIEl9gQQQJCPKkyQUrAfhAS4uFDBwNC6Ehxj+7c0RHi5k1st+n69Vt09eoNunLlGp0/f4lu3LjNMjIyqgufSUVgZWVV+Z6N/bzomHhtYWGhijF2XngMEBUV1TYhMUkj3G/EawyRSATX6hMT/Hk2QwmRIFCZovW8TJAOYRQaCoM6lIKCICF0ZMAGG0KnMvlyKpOnpye5u0M6eJCLCySECzk7gwzOZG/vRA8f2pOd3cNSW+LePZAB0gGbNd26dZdu3QIZbkNC0LVr1+nq1et0+fI1unTJii5evEJnzpznCBIVFTdQ+GzKw/Hjx6vet7X3j4mNZxqNppCItgmP0QecFyHhEcVqtXqkcMyI1xAikWijcJI/zwYywEVraFQ/tiF06lLZblehUf3YhoCXSWdDQF2Cp4m3IXTSwZGTDoY2xIMSO+I+3bmjIwTsCahN16/f5CQE1KfLl6+WEOIyXbjweAM5Ll26Qunp6UOFz0gfcFUfOmax5f4De41EIs1ljLUUHlMe/IOCnWUKxU3hfiNeM6CNzYurTzovEx+c049D6LtdHxMCXiYQQt+oLsvtqm9UPyYEb1QLCQF1iTesQQidysQTQqcygRBXrvCEuGJACP3N0vIc/gYrr+fVgcMnj5y/dJ3dtn5AXt5+7IG983O1AIqNjW0Zn5ioFu434jVDUlJS9pMT/ukb77YVieBlgsqksyH0vUy8ymToZXosIYReJk9PncqksyFgP7hxNkR5hHjwgFeZHksIQ0LoJIROZdIR4sKF8gnBb+fOXSQrq2uUk5MTpv+ctu7a3/XA0VPaiMhoysnNy3no7NwlMjr2T7FYXCM1Nf2XiKgYlW9AkNrFzUvq5OJ+ytXTr09YWFgN/WvwgHeqML/wsHC/Ea8JoBIkJSUx4cR/2vaYEDoJgdSN2NiYUhvCUELoCAEJERj4WELo4hA6+0EoIUAIfQmBIJ2dnY4QtraPJYSOELyEuEO3bt3hpMPzSgjhBmKASIqcHOKfk/muA6MPHD1N0bEJxBjbwO+/bW17Wd9gx/PUaDQT8/LyToqzJL6ilJTU2Ph4SURUdFZUVIwoOjr+6+DgjOphERHeGRmZKfx5RrxmwD8VEz01NfUJAjxJBt7LpItUx8ZCQvD5TI9VpvBwGNWPCQEJAelgqDKBFDpCeHjAw6Rzuzo5gRDOpV4mEAIGtU5C2JVKCHiYeC8TT4hr13SEeF4JIdxADBjohSo1wzM6OG7cmG0HjjKviJhixlg9/ecXFxfX8OYdG2VsbOKX+vuFQOIkY6xVQUGBKRIlo6JjEuPi44tVKlU34bFGvAZITEz8GDZBRkbGE2QwJIShl0lnQ0BC6FyuOulgGJiDhPD3DyohBFyuOkJ4eupSN7DBfoCEgHQAISAdoDLppAMIYSvwMukkhM6o1rlcMYmtrCAhrukZ1c9PCGw4D8SAyqZUq7LxjBwn/5B7qmMnCj5xokyDOSI+fri1rYM6USRaJxwrC9nZ2U3y8vIGxcXFeWVnZ1sLx414DZCYmNgOkzYtLY0jBy85DL1MvA3xmBC6OIQul0lnUOu8TDwh9FWmxzaEjhC8l+kxIR57mXSE0DeqbfQkxJOEeOxlsnohQsA9iw3nIZ6Ba4B8/v7+VFhQkI5npEhW1HUYOpJdMqlJ977o6e36/cRVIWvWzQ2zsnqPf45hYWHvOfj4x6fm5BhIFH1ERET0FIuzwrVaLXddpNInJiXlKJXKEcJjjfiPkZCQ0Mbd3Z1704MUPDlAisfSQd/L9DgOYeh2fdLLxAfl+OQ+XRyC9zIZEkLoZeLdro8JcafUqNYR4rrA7fr8hIBkwO+4Dm+oIxYSEODPESM/P780EAfPnfPocex6nY/Idfho8hg5huxaf0a2TT/RePYfeCto2rTaTvNmX3bauPGM4RPWQSSVflag0bgyxnrre7sSk5JcsrKzoKK9UGDRiFeE+Pj45vAEIYYQFhbGSQhejcLv8DTpJASkw5NGNbJd+cCczssEKeFXalTrUjd0UWqh2xVqk44QusAc1Cad21UXmAMpdIS4Xep2vXZNF6l+EULwZMCGc3G927d1UghSAuRFwBHPAlK0oKCg1Pjm4TF6XLFznwGUZe/AZAGBcUlHj+cE/TiDuTT7lNwatyC3eo3J9SNT8vu8S7LfwIHdvceNax/6+++dyNz8XeG1eKTmKE4wxuoK9xvxHwI2BoiBNG5MdKhGkBIgBQxtbFCl4IYFMaAy8bUQj9M2hIE5H3J39y5N/9apTK56aRswqnUqk05deqwyIUqtm6yPCaGzIeBhekwI4aQva+OJcPbsBe4nSAQy4O/w3i2QEfcJssNeAtFBivKIAfiOn6x2bP0Zkzg4j+X3hU6e6pfw12YSX72hTVj9uzJs5PcU3KUnBTT+mPyq1yW/uo1ZQBMzaUiHLvuih42ZFL9gQWvDqxrxWiE2NrYZTwxIARADEgJk0AXtdJFseKJ49yzUKeQ2QVLw0oF3t0It46UDn8dkqDIhdcMw21XfhoC6JIxDCCPV+lKCtxF4AiByje3sWR0RQCpIH3i3cB+QWCAo7guEhoqIlwASGiExEWd5FjHgYQr+cSZzNv2YSe49GMzvj567gDHGZnHHaDTjlYnJZ/N9/LIkly6ztD83UdKs+RQ7bDSFNGxGwTXrU1Ddxiyoep2CwFq1U4NafBoV2W/g7rhJUwdm/PqrUa36r5GcnGwqJAYmCYgBdQoeKT5NXLeBIDppAsLA/kAyIOwMTDSoTrAjMPmQ0GdoSOs8S4beJZ4IMKifJAImPz/pLS3Pk4XFObKwOMv9xGc+vwnH89IABMQ9QHrx0kyXb+XNERnfE98vPT2d+46QkJAWQmLk5+dz7tqyADsh8uc5GZ5mbVhBQEBX7Avu1E2W5xewQ3isPiSLzGslfDtcnTp/MSUMHUWZm7aRaNosiv3qWwpv05Ee1WtCAe/VIv+aDci/UQuN/6ftooL6fHU1esasMf7HjxvLd/8tJCUlNa4oMfhSU2z4HfYHSILEwZQUeLNSud+xD2PIjwJhYIxjYkJlwVtbl/2qi0nwKeD6hjWvOmEDUUAYqFU4FgTDxId6hmtCnYP0wt/SRd119wjVCJMcqp7umBDuGMRfEJyENNR9P9HTiKESPi8hIsZNpuDufTkCxUyZUivVfGO5ZAKSx048WpyYxIoTRTtEQ0YeUGdlJ3ExDomkaWFYuDbPyYWkJy0obfXvFDd6PIV90ZMCmpqRV51G5F67Abk1as68OnxR4D9k5MXIlSuNZbuvComJiY2ehxhQs3S2hs5Fq9vCOKMc4zgP5MjIyKTs7GySSmWkUCiQXkE5ObncT4WC3xQklyu4n/xn/NQ/jj8vNzePcnMf75fJZJSVlU3p6Rnc5NZJrkguU5e3fzDJ9dVD3B+Owz3yToanEaOgoCBX+LzKQnj/QYWieYsCEPWO7fe1WlNYaJBKAsSbftIxc8ESrSYnB+oWl3Do37Vr1dxLl+XCY3mwHFZPLc4+lefrl5p92UoePWO2xqt+E3Kv14Sca39ED9+vSQ/rNiIHs7bkPvi7M1Hm5vVxD8LrGPECQHuaFyEGgnm6giJMpACDWAXe5HDVYj9iGphwmHiQIiJRCjeZMallMjnl5eVRYWEhFRcXk1qtJo1Gw/1UKos5HR9kyc6WcOckJoq4SDtIGBysU934gCFUOHjBdH/XnyMGpBViLJAekBZwNz8PMfLz8wuEz6s8RH/Rk1Lm/KKN7z1AW+DixgUGecQ3bO6sOHEKqSQauH35/TTe/L3sxcux///0jy8PkV99OzLmp58pavpsCv5mGCVs2kIBQ0eR86ft6EGdj+j2e9Xpdr3GZN/7y3S/BUueGok34hn458R4VFpQhEkJIxwqE4xcGNwwtuGKfdK+0NkYj9M6dOoUfuIzPFN82geOwzk4F8Y6vFi4JmwYRMtRnwHDH8SEDQHV7SURQyl8XuVB9rdlx5hP2rD45i1Jtu9gKaFEzVoGF1jbYPLnGJ5RqRIdP141o//XxDQaX+GYPqhSpXciu/ayyTr2N46NE23YdCL+11WQPCEsN7dBblDQRdGxExQ0fRbZd+5GN2rUIasPatHVRk3pfq9+dn7m5k9NoTeiDLxsYuDtzUe2dR6gx80IeHJg0vPGNh9thgGt8yZd4AxuGNMI4sHugIEOYoAUsE3g1QLpdKRw44gIQr4CYhQLn9fTkD556om4mvUorf9gSuvV79u0Tt3vKj29QYoLwmN5ZLTpyDQp6QHC/QBVGl85tvHHQZlr1zNVcgquI8P+sKFDG2UcPgZiHDI4nqhtXmTUXdHZC+Tz00yybtOBLtWqR5ZVTOjSxy3JYer0XfrHG/EUPI9X6p8SQ78ZAZ/awRvaIAIIwadm6IxuHSlAJBAKxPqXifFM41sIUYs2LLluE0qp25hy1qynYlHGZ8Jj9JHZqoNW/Sg8XLg/qXrd5IwJU1iRlw+vglXjx0I+bdsrz90D+ycbnvUYSHZUhIYFRuzaSw+/G0YXGprS3+/XIIsmLdi9kd97Co83QoCy4hhGYpQS47mLiSSTflqWVqcRZTT6mDKbtaLs7v2/ks2ZgxajZRrFWa0+y1WHhpVKjIzq1RtmtO3M8k9akFaphFT4wvCMSpWi/69XsSojs8wYS1lgjDXO9vZz8Vi4VHamcXM6XqMenWrYlB6M/8GXnJxKbR4j9JCQkNDCSIxyifFCTQsyGjSj7PadKbtdRxLXqEPiajUou+FHJGnbluTDhh3K3Wzenj9W2q6dZf7vv0fi9/QatX+RTZ/N1JHRkAZPeLaA5J49TVJmziGtWv3c0gy40raD9tyn7eh4rQZ0pGp1smzRkjxWrflVeNxbDz5XykiMMomhFT6vikD8Sbuc3IVLSRUUzIrOXyjOW7qY5AP6kLRVC5I0rkuSj+qQ7PPWmbKeX0yRtjULlzRtRNKuXzDlzVsghCf6/wqvySO6dsOriguXcdwg4ZgQMNrte/ZbeqdVu233+/SXBm7YpE24ebvgeq9+5LpkOdnPmE0najekw++a0PUvv5YlOjl9ILzGWwuRSGRmJMbLJYbiu+HdcqZMJSKyxGciaqTNyrRR3r/L8s3XUs7ooSAGyTq0JFmnNiRt+zEpvvmKlNesTgivpQ8kIiZ2+IKpUtNQj14ueZxbtPzB/tM2SR7fDKWIjVso29ObNIWFINNFtPm52rVHUpFEwphaPTTC4tzpy1260+Eq1cmieUv26NChUcLrvZVITU1t4+XlZSSGHjFQcosM24KCgqdGscuD/NdfP1EM7E/aoqJLwjEAblppl3ZZsv/7jGRd25O0vRlJ27QgyaemSvlXffaTuXmZb+6kanUvycw3YYLfFo75NjGb4V6vkcT/y8EsYdtOUvj4wUYBOf2JqD5/nHmlSu+G7DkA26XURayIjW3pOPsXOl6jLh2rVpu81q5/ac3n/mcRFhbWHJMAKRN8du3bTgy8IEAOqVT6QsRgO3dWl/fuyrRSaZnVeTR+fGX5131S5P26Uc7sH6lgywaSD+pN0tbNSfpJY5K2aEzSXt1Z3tatBkG6NLN2VOjoXGr3xJuZffioev2csM+7UuKylSR3dCJ1fj4s9r365/GAanWnRx9WJJGUabiH/X3S9axZWzpStQa5LlyaKBx/q3D58uUvtm7dyk0KTH7UXfDZtW8TMfC9QQ58z4cPH9Iff/zBJRkKn1dFQFZWlWU9OjFNasoTBrSsw6cLcxfMZUU3rjFZv26awtMnIAGGs5iYpvlb/sqT9+9GUrMmJG3+EWU3bkTyb4cq0ubMqZbe6ONpmZ91pbSe/a0TP/ywdmzDpuGiUeNIYnGWipNEuEYyasqFf08fF01qWSRdu4ZjFwvHeGR5+Ha52rs/O1TpPXJb9OvbSw5/f/+2Q4cOpaVLl3Kd/fi2OCADeka9DcTA90PVIiTlmTNnaOTIkfT7779z6SnC51VRyPp112qSRQYTS96l3daCjetJm5+vJQuLDyQ9uyxTebgb/A1NRNjq/C0bmOLrviRrY0YS06aU1dCUxKYtKb3xJ5TRpSdJlqygQjd3qEpqIvqzvP5X+rCqWmuK18zZpFEqn+mCFoeF1bg38vuCI1Wqk8+fG8XC8bcCMOIOHjzIvv76axozZgzt3r2b06+RACiRSLiMWUykN4kY+C4gRmZmJtQl7kVw79497uUwcOBAmjFjBldXolKpEoTPq6KQD+6n0kokpXq8vFvHi4WnjsPgDeH3KSaNKWYyaZnkY/v3vy9p+3GypJUZSVqYUZapGWU0bEF5O/fijb9RePzTcKNJk3o2Hbuy3Ni4Mv9WebD7aWbm0Q9qUaTF2YfCsTceWKIrICCAHT58mEaPHk2DBw+myZMn0759+zjPjFicxZEEb1dMqv91YqDQCioSsnMhLaytrWnlypU0YsQI+uabb2jBggXk4ODA2RkKheKFy01zJwzP1YgSr+J3ef9uq5R3b2JCl76tFYN7f1O4dwf2lWsPyD5vlSttbUbZH39MWR81I8RHMtp0JJBGePzTcLdBE03a7bv4W8/d4M1p1jytZVMzEvv42gnH3mgkJSUNRGt96NhWVlb0yy+/cKoEJsn333/PqRQ3b97kmh9A3cCGyYXiJBCDb4DwuhED9wTSghQgBAqr0AkFkgJeuOPHj9PcuXMJaiS2H374gbZs2cItMwB7C8Z3fn5+qvB5VRTyoYOyc2ZOyZJ/O2CWytUJkzLKYPzrvsWq4EB4hwwWkZF1/ey45It2DMa4rGNrkrUzo4KjRyhv4xaNuOmnlF6jPiU3aEbSPzd5659XHu6ZfBgRu/cA/n6hcKyicJwxL/rOtyNImZPz9pTjikSivmhWAG8MVAxMiEOHDtH8+fM5YgwdOoSGDPmOfvzxR9q4cSNduWLFpXfrDFV0IYzl3sp4Q2NS/rfE8OVIAUJAQiDNHRsIjExckGHp0mU0ZsxY+u6772jUqFE0bdo0Wr9+Pd2+fZuzMeCVwzOAtCyvtLUikHRsJcv5aSKVTP4nVm8qWL8ak7W0FiP7695NZJ3aFuXOnEpFt66xvAWzZNIWDSlv0TwcxxE039q6UXbvLym5Wl1KrNeEpBs2chHz8vDg/Rq3I1atIa1Gk/O0uEdFYNmildp95WrET96OFJKUlJRW+gE+eGigNuHNefr0aVqzZg3NmjWLxo8fT0OGDKFvv/2W+33x4sWcPQKiYPKjNgKqC+okAgJAEn+OJPxaeJjMz0sMjAmJoUs3d+RIh3Y8IAP+Ntr38MsJgLg2Ng+4+zc3N6eZM2dyqhLunScD7Ildu3ZxtgUIge8MqYk69n+SRAhADZJ2bqst3L8bcYSPheOK4YO9ip3sS13B0l6fH8mZMo6UVy6SNj9Pw2xtq1P79u/Jv/1KqxWhwI8+5I9VJST3l/z4MyV+2JDi6nxEkr0HAksvrIeHVWtOC53zCwJ7zxWk9Fy2zOT+sLFD7w4ZsebWN0PNb341eNODCZP3uyxZzsKOnSB1UdFF4TlvJLCWtj4xoDJBCqC/FGwLfIYeDhsEk2zJkiXcxIKhDhUEZBk7dixHHpAIk+3UKQu6evUaN5lRj4H6b13LHF2XEH5hFxAFjQow8VGLASLopMRdrg4Dpa+QELa2DlxnEZzv6Pi4uQI6faBn7cWLl+jIkWO0adMm7v6mTJnCEQFSAT9hM0FFXLduHe3Zs4cuXrzItfQBGfAdYWuAFMLId0FBQbnVdU9D/vihjWTdOpL8qz6U9+tigzwkmjOnas6kMSxv0Zxo+YBOtXPGDU8psvibNOJMSJZf+OOkXdvKVS6cCva3/vkA3tryTduS4xo2peiGTSnn6k0D/d+9YZNekfMWklalgteqdDUnIczNzd890+qzdqcaNDt/pkWrJKvufcl6+BhyXbycwo79TWkubpSblERKhYJptVo7xthKIjITXueNxNOSCHUN2DI57w1cmvBW2drachPr6NGjtH37dm6yLVq0iH766SeOIMOGDePUL0zI778fy03SWbNm0+LFS+i331bRH3+s5ybwtm3baefOXbR79z7au3cf7dmzj/sdP/fs2V/yeS/t2LGTtm7dRhs2/EVr166j5ct/5dS8adOm08SJEzkJAILi744aNZIjwbx582j16tWE+AwIfe7cObpz5y4nYfD98L3EYjFnhJcV4NMjhkT4vCoCRf8eg+WD+pK8VxeS9epCih/Glkoe+cDeXykG96OcEd8QjG9NEtckOlA/+1b62Sc3Cy24+EZE6UXLQI7l+a0xpp9QdNuOpE5O/o7fH/PLYm1hUtITkuJW85btL9aqG32+Vt2C8y1astuDviW3ZSso4rQlZXh4UX5qGmm1WjVjzBa1HW91E7iK1mPAaMWGziAwZqEy4Tx4cNAg7caNG3Tp0iVOfTl8+BBHGgTJfv1VN5GnT5/OGbjjxo3jpA0m9PDhw7kNk1pHKJ0hrNt0+0Cw0aNHcaSbNGkSTZv2E82dO4eWLVvGOQa2bcPkP0SWlpZkZXWFWzUJahRsCrTxgc2BUlhd/ELX4QTfRxenKTvyrUeMJ6ruKoLcGVNIHehPeX+uU8m/7k/ygb1I8f2IIkgS+XdfFhWsW0kqf19MfIkwHV3a9uPUgs1/Inu2QtKq0MGhRVT7Tixhwg8FTgMGVPFp8snx8HGTyKdnv8NOH7aofa9a7Z9u16zHbDt0IdexEyh4/QYS3bxF8qhopi4qkjHGdv1T++ONxPN2CYG7FoZteLiuM6GuG8cjbgLqar51zZrxE7q+tze/+ZT+jjHdcboOhfgJTxHGeMOX/4nrol0m7g/6PyYuNvyOfRjDsbrr67xS8EjB4AYhcI/Y0DmkvABfecTIz88vEj6vZ0EysG/7oiP7MenN8bnw+MFJ8kF9mHxQH1KMGEzKG1eRQ+Valooj7dS6T+5vS5k2L++5UlHiegyYFFyzAfnVqEde9ZqQx0fNyaPN5xQwehzFbNpKmTYPKC8ujjQqVSpj7DJj7CPhNYwQIDU1td7zEkMYx4BHinfZYnLCQ8R7pZycdLYBPEiwDbAfXiQY5jhe1zABEx65WrqYA37is275AF3rHd01HzeB5q+Jv8Ffj2+EgHspL47xnMR4rtJWQNqj4y1NarJBdFk+oIeHvH8PUnw7gFQebmWqR6izyJ07g5gkG8Z2Z+G4ECk9+naMa2K2PrJWg79Dan+kDWvbiaKGjKTE39ZSltV1KoiNY5qionDG2CIiKjMp0YinIDExsfY/JUbF4hi6FVR1HimdoY22/RcvPq73Pn36DNdMDXXf589f5mrBUfcNgxwNEnSeKV0jhLLdtc8O8D0nMSrcDIFH/iZzGNGl+r60W8cA+eABlLd8Ecm/7Em5yxci5dVAfYIXK+fHCQXazHRImnLXy8hu07tm8vsf3kt8rxZLaNiMEjt3p9QZs0ly4iQV+AeQSibHarF/McbennjDq8K/R4yKxzFAmBeLY/y3xJD37X1H5evD5RaReaV3FXOmMVmPTlSwextpFYpMxbKF3eVf9yN1XAzX1ICHYuqEIq04E5LiCY9Pdtu2XbNq1slMr/Q+y2jUnMSDh5NsnTnl37YmdVoabBENY2yAkGxG/EOIRKI6rxsxXjzA99KJUWFVCqnkiqk/MsX3ozS5k75/UGx9ixTjhlPesl9Im5dX6pWSfdlDrbR7UGpD5C6Zf0+TlspUIlFffp+kUyvT7LrVC7I/qk+SVm1JOnoMSXdupjwPV9LIZCCCdUUSB434B3gZNsYbTIwKB/gyP/jwgKTd51Swcwep4+NyFT+M0+T88D1ps8RQj0pVm5wfx29Rnj0N6fBOxtTB1YvOWVL+76u4HKbsTxt3zW5cRyvr3plyZs2gwhMnSB0WTqqiIlkuYwew0IzBHzXi1QFryBmJUS4xKtQMIblWrbqSPgNJ5epO2uzszdinGDVMrM3OAil66x8r27bqQ8Xob7XyL3t4ynp9USz77FOSNK+nkXX/XJs3byYpz1uSOjKCmJahl+cmxthzJQwa8ZKQnp7ewFja+iQx4AauSGkrVar0rnTKjCKtTK6hsDBu6TH58FHntZmczVCqHvFIHtfTRGLWRC0za0yyzq1JMX0iySyPUl5EKGlVxQrG2Njy1KScHHmEWq02dhX8NwDjGxFtLJhiLG3VrfnBLx4jl8ufiB4LkTlpqhQMQNUePssm/mSnLSpCsp2BIZ3WtWu17HrVE6RtPma5o4dR3v6dJPVxo6LiQipmbHtF1CS5XJJVXFw8Q7jfiFeAa9eutUXtBXKF+OzSt5UY+O74nqhkRNoK0tSFz0sfokHfOWpkcq3ignUdzuW6zhyRZAP1S9ygQSNx9ZpaaadOlLdkERXbPiBtTg5TM3Ywpgw1KTc3Fx3Ly8xglctlD5VK5RjhfiNeATw8PLogERAJgLA1+MmCycMvZfwmE0OX5qJ7CYAgqElB2sqqVau4ruvC58Ujrs9XYwu9fEiyadsfHClOWhYpA4MLyNycm9Splap/nVGzIZN9N4IKjxwndWQU7I10xtiP+tcR5iOpVKreuTk5jxQKxRohQeRyaURxcfFB/X1GvCIgT2bXrl0MJZ3IRUJyIGwNlLVmZWWVLATzZhIDSYQobcVPe3t77uWAAi3kdEFqqFSqMm2MqF4D2mZu3UGpM+ZQfMduO7LM/5KJFy5Vx9RtWSupksmCtE9aUdrPM0h+5w5p8wsQ8Dtb1uKTePaFhYV3hPuBoqKi+Xl5eRG5ubl9+H1ymeRYsVLpYHikEa8EcBv6+fkx1FYgoQ+lrUgrP3HiBKdzSyRSjiBojABi6FSO/0Vi6PKlUFyVlqYjBFLrHR0duXR6JDWi7h3p8zY2Ntx3z8vLsxU+LyC0e191xP/1obBmLSmu1wCKbtGaYmrVp4T/+z+WtOF3ygkJpKx8Rba4qOhb4bn6yMjIqK5UKlcL9/NgjNVSKpVD5XJ57WSWbCKVSm8WFRXdFB5nxCtAYmJiZxQlQb9GhwxMDBAERT1I4UbqNlLNYXfo1qxL5d66YWER/zPEgLRISEjiCIH7h4F94cIFWr58eWndBoqvQBBXV1euBgXGd0FBgcECMIBXQ1OZX/OWFPBRMwpuYEqhTT6hpFHjSX7uAqXERFFyjqIITZSF55WFrKysYSqVqtxWNvqQySTTpFKJsrCw8L5wzIhXgKSkpD7IboUnBuoSumNAeoAgSPUGQUAUfN65cyfdvXuXIwKkB96+UK340lYQAxMUE/XfJAb+FsgIYoCgICu/9Bm/FiBqMc6fP09r167lVEa+iGnq1KmcPXHlypXS3lJ8Zq8wjuHcoKnWs8nH5Fm3Efl93JripkynnPu2UJfUeWW05E9LS6uflpbmgzX2hGOARCJx0Wg0Pwn3CwGpnpeXN0kqkcgLCwufKFwy4hUgKSmpvX6Aj9e/XVxc6MiRI7RixYrSij0Y6aiVQPER9HHYI3fu3OEmHZYU00kQXWkrSILJimWDMYlfpLS1LGKAYKgA1GXqupVk6T4ubYWUADmgIl26dJkrdFq4cCFHcp4MsCGwD80Prl+/zkkIOBpAitLSVn9/UjLGtbpBnYNt7YZ5jnUakYdZW4r6eS7J7exRIYf0jN/4ZxkdHd29oKDAQP1KSk4yl0gkZao/UqlUzBjrJ9zPA8Z3YWFhPzRwzs/P/0IiyXYrLCw8IjzOiFeA5OTklsLIN7wz0L9R5YaAFybP3r17ae3aNVyJKF86yksTvIGx/88/N9DBg4fowoVLXMWcnd1DbgLjre7srEsZ50tbbWx0q7aihBUkwQpLIMPVq1ihVUcGlL2CTCiDffjQsWR9blfuethwLYzfuHGTTp+24CoCUSWIvlAgMogAMkNNmjNnDv3222+0bds2OnPGkjOu4VTgS1sNAnwBARQYEUEpjs6heEZ33q+psv3IlHwnTSKZqxu8S2iDWVqGCiQmJn6Qkpqq0mq1T0zcpCSRl0KhWKC/Ly0trVpubq6cMfap/n4eOTk5bYrVxUcYYwP5fZKsrJ1FRUWXDY804pWgLGLAnoBaxZeAgiQgCwqJoEqhWm7//v1c1xBIlNmzZ3PkQGnpkCGoAx/KteBB6SkaEeDtjAlrbr6BtmzZRrt27aF9+w7QwYOH6fDho3T48DHu56FDR+jQIXzmtyN04MAhrtQVb/6NGzdxVXuwDdD6BmoQX04LAuAnSIBqQTQ72LBhA9cf69SpUxy5URsCqQbpgHJdfC9hgC84NJQjheuRY3SnVTu6Wbshsx8+jFxPHKXUzAyE8sYLnyEQHhlpLZcrIEHqCccyM6W9kpKSsvLz80vVprS0tG+KiopkwlqJnJyceoWFhSsYY3OF7tpssfhuYZHRxvhXkJSU9ElZxBAG+KBeYRKhNBQ6O2wKVN/Z2dlx6hT8/yDMsWPHOBsFkxKNzNDADBMVxEE7Hr6klS9l/e47XXseXk3DT2x422ND/Thf4gopMGHCBK6VD8pbf/11OWcwowHDsWPHudrua9eu0d271tx9ubq6cMY4bCA4DNBbCt+D/z7CAF94dDQ9iowkh42b6UqTFmT/5WBKvXOXHkVEkkdYBDxZvYTPDwgLC2ufkJCo1Wi0GcIxHpmZmdsSk5IKCwsLW+Bzenr6WJVKeZIfz8jIaCjPyTmkVqsvltVZBBBniR8plcpzwv1GvAIIu4SURwxIECwuD2Mbbk+QQ+e21TVdg16vq7Tz5IxvGPEw6nFt2CD4DJvAxQWdPhy5uIGdHdQk2A0wqh+Qjc19evDAhtuPxsqOjg7c8ZjguJbOuNblMfEbJj68aroy2selrbA14KbFPeJen1XaGpOYSOFh4WSzZDld7tCZ7H79jXKzuCRAkb+/fzVXd083qVS6T/j8gOCQUB+ZTP7MnrDZ2dkLRMnJ11JSUnqmpaWezcxMd0pPTx8qlUrPFKuKo4hojvAcfYizxGKlSmk0vv8NCPtKPY0Y5QX4ID38/fnSVt4zxZe2ggi6MlQXF/SCgvcIZah+HKFwHbh+sfF15PyGz/x63jje3d2LW7oYBj3sFfzk3bW60lZkxT5/aWtiSgqF+fiQ9dxf6Pa0GeR+8xYFhIeRUqNxwTPy9/ev7+zmwbKzJU/0svUNDOwWExev1mi1FWphKRKJBotEIrFIJFKKMc9VymDG2Cih2iQEcqkyszLzitXFZZLTiJeM+Pj41v+UGBWJY8DNCo8UjG0Y1zCydaWtV/RKW8+SpeW50iWNUdoKjxXfeA3erMdN1yoexyiXGKmplJaeTiFOjmS9Zg05Hj5MwWGhFKBbH0PMr5Tq7u7T2cnZjVJS0wxWV3VycqriHxCUJ5EiRerZS38hYTNRJFonSk4uSEtLU6Wmp8tzcnJGCo8rCwqFok5WVlaRWq3eKhwz4hUgMTGx3b9BjFcZx3hRYqRnZtIjHx+6ffgQeTs5UmR8PAU/esR8fX1VPj4+LD8/Px/PyNf3UZuH9k4UFR2DBmalxrKnp8+h6Jg40mqZ1OCh6iE4OLh6VFTUrMTk5LiMjMyM+MSk4PSMjAyVSrVeJpONSElJuZyRkYFGZk/Nrs3KymqcnZ2t1Gg0S4RjRrwCxMXFff42EiMtLZX8A4LI6tot8g0MorjERHilVEFBQVq+UCk3N48L8IWFhdWwsXPQ+vj6M6WS2mLfQ3//D30DgjR5eXloUNZA/5miniIsLGxgeGSUv0gkypXJ5LkarfYmMmdjY2O/k8vlXjzBiouLP5PJZBlpaWnxWVlZ5dZaZGZmmkkkEriJxwrHjHgFSEpK+gI6/9tEDOR9+foFkOW5K9zPJF2LTm1oaCjTL1RSKHJKu53bOTrHOzi5IJJ+E5FoFzfPpPDISJaZmcmpQkgI9PYPGh34KMQhMipGnp6eUZSfly/XarXX9dfAi4+PX1NcrEriP/NAn6mcnLzjmZlZ7llZWZOFlXsw2KVSKbqAlCYVGvEKER4ePuptIga+S/CjEDpy4gw9dHSh9PQ09OpNioqKUvMBPpACni7YAfxzCggPb/HAzoE5OrkyF1ePRFd3b/Lw8iFXD+87nj6+N0PCwpVJSclauUJRoFJp7BljPQ2ftE7ypKWnZ/DN2MoCEdUpLCycKs/J2SqTyabJZDKuoXNycvKk3NzcPH2SGfEKERAYYIE35NtADLhlI6Oi6MTp82Rx7jIX6EtJSdkdHR1tFhkZySAxHnFdDgO5fKmIyEiDCr4Hdg4qBzSVdnEjL28/Cg4JI1FyCsnlCq1KpYoloulEVEP/HH2Eh0da5uXl5WPyC8fKAmOsoVQq/Sw+La25SJQcnJeXFy88xoiXDIj+mJiYBo7OznF4Q77ppa0I4MXHxdPNO/dp6+7D5OPrTxnp6R54FrGxsZ/FxMRoIiIiGHKl8D3sHZ3pns1DdsfG7sadew8u2T50iH1g50APHjrSQ0dnSkwSwRO1mTH2OWOspvD5CgFpkZCQlKHVaiu8VDBcuDKZrEVqWtqeJJFIXVhYWLpMmRGvCMnJySYRERGtz5w7F3bi1CkuszQyErGE8DeQGGjqHMORYcfeo2Rx/gqX7sI/i6ioqPoent6Zd+89YLfu2pDVtdt09vwVun7TmlzcPSguPpG8fPzI+r4d2Tu5EQji5uFVIBaLy5UOQgQ+Cl0rlclQtdRMOCZEWFjYe1KpdLlKpbpUXFzcAYmeKamphSqV6u1Ym+K/BJLYQkJC2lqePXdh2vQZbPeePRQdo9PB3zRiIAUd933l2m3avOMA3XtgT6Fh4Vwn8ytXbn/yt+UF1dkLV+nufTuyOHOelq34jbZs3052Dg7c909ITKIbd2zIxz+Q5ApFqoe3n/Od+w+Yq4dHPuILwmcrBFy2EVHRCrVabbDcmBCRkZE1s7Oz5yuVypOMsQl8txA03k7PyCjG+hTCc4x4yYDECAkJMbty48bC1WvXKUaMHElr1q7ljE4k2KERQGoqaqJ1y/3+LxMjMkIXQT94zIK27z1Cx0+fo5OWF8ny/BWysXWgoEehFBkVTRcvXaIff5xKk6dOpX2HDpOjswtnm0CKPHjoRPkFhcW8m9XN3Sfl7n1bcnXzkPAGcnnw9vE/l5WVDbfuE40MkJUbHRc3OVsiCVSpVBGMsfnC9jlRMTE3siUSJCg+U9oY8Q+Bf0hUVNQnd+/d+2nX3n3Bs+f/ohk2fDhNnTqFjh47xmWayuVyrvYbaRP/08SIjCI3dy/atf84bd9zhFOJsFaGTCYrzs7OznJ2dr66fv3vh0eMGFH8/YSJtGrdH2Rx5hx5envT/QcP6er1O1yJL1I3+OcH/d/L1z/hro0tOTi5FsanppbZSNnd3acXAoNarQaxi9L+sqGhoe2iY+OssrIlYrVaHUxEo8vqP4tVdSOjouW5uXkVbhdqxD8A/OQJCektXD08RkOdWrfhr+yfZs7Sjho9loYOGULTfvqJ9u/bx61bAemB9HM0RoBnB8RAq/7/JWLYO7rQjn1HaeuuQ2Rn70yipCQuRrF27VrT0aNHew0ZOpSNmziZflmyjHbt20/WNpASDnTmghXFxnGrHu0XPkO82UNCw72gmtnYOmiCQ8Pn648j+dDDy1sZl5CgCiuxRwIDA1tFx8S6S6UypVqtjmeMddA/R4iYmJimcfEJapVKHSwcM+IVACkISDOIjIz88oGd/boTf590W/PHeun02XM1YydMpGEjRnJp4BPQSua33+js2bNc8h8kBwiiW9I4kpt8cPW+bsSAdwmkQEYw6rx9/QNpz8ETtGPfMdq17wgtXLCwaNiwYeEgxIjRY2jClKn0y5KltG3nLrp6/QbZOzrRqbOXOLtCq9VkCp+fPpKTU48jyfC+7UPm5uGdCuMZ+13cPKe5engxNw8v5uPj5xYTG+ejyMnJ0Wq1HhVVi4JDQyempKRqGWPLhWNGvALAXQvdOCMjo0NwaOgkG1vbbX+ftnDbsGlTxryFiwsnTPlRO/L78TRy9GgaOgxr3A3nmiOsWPErt66dtfU9bhLCsI2MjOY8P5AeIAjIgckKYjg4OHIVey+bGCAbCo9ADF3GLp9ujliMLtUcEg1ZvpcvX6YtW7fS1l0HaNeBE7Rtz2GaNnMWDR0xkkZPmEg//TyLfl29hnbt3UdXr1+H3UAW566QjZ0jFSuVz0wnB/Ci8fULjLCxtWf2js4FTq7uU51dPOS+fkEkSkljBQUFCYyx3ej8ITz3aQh+FHZOKpXBPnl718P7t4F/Zn5+fqPMzMyeoeHhP9o7Om65cPmK0+79BxJXrftdPmv+L8UTpv7IRo0bTyNGj6VhI0cQ7BAUGn0/diz9/PNMbhFILC554cJFbu071FygLkNXJ+HH1Ulg4iJNXJdl+7A0yxaTHpMfJAAZQAr9jFqUu96587jElZcUIIOHx+P6C/wdSAxIJ6zBh4o9dDdZunQJV+WHIqdhw4fRitW/057DJ2n3geP05+YdNGPuPFq4dDn9tXkLHfv7JN2+e5f8AwPp8rVb7OzF65STk4uKva+Fz608WFmFvXfvwcMiOwdneujgTHb2jpyLODMz64UzYkPDoyRKpfKJbiVGvGLAy1JQUNBULBb3iYmL+8Hb2/cv6/s2Ny3Png3ZuXd/+po/1uf9smSpaurMn9nYiZNpxNhxNGzUGBqOSryRI2hoycKSo0ePpsmTJtGsn3/mFo78888/adeu3Vxl3ZkzZ+nixct07doNbrJDWoAUup+6em8QAeQAKUAWpKY/Pu4O9/n6dUiXq3T+/EU6deo0V1++betWWrtmLVcpiKYNKG1FWS3ui7u3kSO57bvho2jqjFm0bfchjhi79h+jrbv20+Hjx8nq+nVycHTmouLObp6qwycsNaJkLFfHFgqflxBYEvjqjbuzb1k/cPb2C1R6ePsyaxs7cnHzpOiYWObl7au0d3CWeXr7bsQKucLznwafgID+8QlJUKO2CMfeGuQk/N6mLK/Eqwb+JuoO8vPzG8vl8i6itLRRYWGRi9y9vPbevXff+uyFCwH7jxxN3rhlq3zlmrWFcxcuVv84cxYb/8MUgiQZDkkyagwNHTGKhgwfzm1Dhw2n4SOG0wioKqNHcSWtqP/+ccoUrsx19uw5NG/efFqwYCEtWbyYW5sbyx3rfi6lJfzvixZzTRbmzZ1Ls2b9zDkEfvhhMjf5x4wZzRGAlwYgwRBsw0fQkBGjaNjoMTR8zPc0ZsIkmvzjNJo5dz4tWvYrbdy6k7MzYIhjO3fJioKCg0mUnMxi4xIzj5066x74KAykcBI+K31cuHCl+81b92xd3L010bHxTJGToy0sLFzu7OY55tZdG21yCkesn/DiycwU3wuLiFJ7eftp3dy9U/38AsfFxMQ80bdWCG8fvzipVKqtaArJG4n4hx8wcdgvpFamhgnHXjVgb8BLhQxPRVER0pt7ikSiUWGRkXN9ff3+srd3PHP95k0XC8szoQcOHRZt2r5Ttm69uXLpipXauQsX0bSfZ9OkH6fRmImTaeS4CTRszFgaOmo0N0GHjBjJbUOHj6RhI0Zwev1QkGe4Ti2D7cIRiVPRRujqwblxbMP0fh+uO7fkGjwBhowYrZNgY7+nUeMm0rjJU2nKtJk0c+48WrBkGa1cvZbM/9pEO/fsVR89fqLo/MVLhX9bnC/esvsQbd9zmHbtP0oPHjoXyWSy/la37v1k89AR+jzWyXuiFb+FxfnOVjfu+Hn7+CtFohSWm5eHoNtpxtgn/PFWVlaNfP2DmFajTdc/F8+4qKhooFQqC0pMTCoICYso8PELigsIClkYEhLyxMR3cnL6IPhRqEr1jKDgG4+cTBtlcX4K02rVWcKxfwv45+INB4JAvZJIJO3T0tL6xsTHj3sUGrrEy8dnx0N7+4s379x1OH/pcuDx0xax+w4ezti2c5fCfMNfhavW/aFauuI3zbxFi7Uz587XTps1h/0wbQabOPVHNm7SFIIqNmr8RBoJm2XsOG4y460+bPTYEslT8pP7jLGx3DiOHTV+Amcoj500mcb/MJUj4tQZP9OMOXNpzi8L2cJly9mvq9do1vzxZ9Ffm7fk7tqzV3L4yLGU02fPRl65di3ono2No4uLyyn/wEDzsLCINTetH6Ru3X2Ibdl1kHbuP8rOXr5249qt+0EFhYV56JyC52FlZVXZ4sK1tresbYP9/IO14iyJRq1WIzt2rvDZ8bh7/6E0Ny9fQ0SNhGP6gFdKpVJdyMnNDcnIzIoTJafdS0hK3h0WEbU8MDCwgYu71/SSfKz1wnON+A9QolpVhgRBchyKa2QyWXOpVNohLS2tX2xCwqjw8MiZ/oGBa9w8PLY/dHQ8fdv6/v0r1657n7lwIeTvU6ejDx09Grd73/6k7bt2p2zcvDVj/V8bpWv+WJ/z29p1ect/W12wdOVvhYuXr1AuXLZc+cviJcW/LFpSPH/R4uJ5ixar5i1apJ63aLH6l8VL1AuWLFUvWrZcveTXFarlv61SrVi9pnjVut+L1/25ofjPTZuLNm/bnr9zz17F3kOHs46e+Dvp1JmzYRcvXfa5cfOWw31b2yuOzs4HPb19zYNCQhZGRcVOEIlE/dLT09sjMS8/P7+Tl2/AzX2H/tZu3L6fNu3YTxbnrdjde3aBNx88aObm4fNrbFxiXm5uLvKb/KAWCZ+VEGcuXIlNSU1DzGO2cKwiiIuLWxkbFy/19g3Idff0odw8XaGUEa8ZIP7huSohSXXkBeXl5X0kl8s/yczM/DwpNbV3QkLCN+FRURODQ0IW+/j5bfbw8jrg5Ox80sbO7vyde/eu3rx159blq9dsLly64njmwgXXU5ZnPP62sPA+dvKk75ETfwccPnY8+PCRoyEHDx8JP3DkSMT+I0eiDx05FnPo2PGYI8eOxx79+2T08VOno05ZWEZYnjkbcvbipaCLVlYB167f9Lx1966DtY3NHTt7xwsubm4HvHx8NvgHBa0MCQ+fFxUbOyEpKWlgWlraF2Kx+FNxfn4juKdLJGIV/gUgEqWOPHP+qnLzjoO0cfs+2rrzoNbVwydBpVKteh4X6dG/zw728w/CG75CTRF44Bm7+/h0DouI3J4tkSTn5eV95eruuT40LAIEMyYNvu4oIQlULZ4oJtmM1VQoFHUlEolpdnZ2m/T09K5paWl9kpKSBsXEx4+IioodHxYZ+UNwSMjMwMDAX3z9/Zd6e/uudPf0XOvm4fGHq7u7ubOr619OLi6bHZ2dtzo4OW1zcHLa7uTkst3JxW27k5vbdjc3j+0eHl5bvLy8Nvj4+P3uFxDwW9CjR8tCwsIWRkREz46Oi5uUmJj4nUgk6ou/n5GR8ZlcLv8YBAaRETeAc6HEhnpX+L0AEMbdwy8GuVSQHhu37WMWF66sEx73NFjb2BepilWqZ3X74GHn7NzKzd3rbGxcQpEiJxd2TSxj7AuM2Tx0HJWVnQ1vVJlpJka85uDfuiVkMUGRDpOwWmhbj456mJyIrkskkqYZGRkfZ2VltUpLS2uLoGJKSkqn1NTUzonYEhO7YEOZLb/p9qV2wTHJyckd0tPT26VmpbbOyMj4BKoQ1Lvs7OwmJareh2L8bcZqggRooox70tvKJIQQWVmyAbb2zrmHjluQ+aZdbPPOA2rL81efGYM4aXkxOCcnF8uLPTUN/c6DB20dXdztHoWGF2VLpCqNRpPIGBsmbITg4ekbrVKpnhptN+J/EHrSBSoLJim3lby1ocpwG8hUQihM5tKtZJ/+cTiPvw6uiWtXaLK/CEBgdy/frL8tLjKkqYMkB46eOnXnzh2unY4+9h+z/Co9A72Z2S79/Qj2WVtb17lx494QFzfvpOiYOHW2RKpWq9U4+O/y1DTERRKSRJAWg4VjRrxhKJEs5W08ifgNn7l4zn8R19FHUVGRWXRMvIf1Awd27NQ52sSpWQeUx06e3QCS7N+//31HFw9RSkq6G3/OfXv79k5unumhYZHqTHGWSqnkVmJ9wBgbYHj1smH70MlHpVIVCvcb8T8EYSeL/wrLli1rmZuba9DC5mUCZM3NzR0Xm5B00dHFQ2N53oq27T7Mtu46pDlw9LR24479oh17jx63tXfySBSlOiiVylVE1Fx4nWcB7uGY2HiVWq0eIhwz4j/Exx9/3MPLy+sj4X4ekyZN+o3vzteqVas9jx49yqmosfmq0KFDhz179+7VKhSK28KxVwWVStVVLM7eHBIalfbQ0VV56eptdursZTp8wpLtOXjcZ/+RU/MvXrza0dra7YnA3dNwz9a2j1qt4eJYIMmxY8c2CY8x4l/G6tWr0b4ebfthRJalwswZNGgQxpzxITU1db5KpfrPsz6vX78O/T4P0mvOnDlVt2zZckHYAA2TTP/zywSeFWOsY25u7vrUjIzrkdGxUi9ff2TmMqsb1szinJX26MkzipNnLl25fPl6pytXrpgIr8EjJDzClzFmit9v3LjR+uLFi9q5c+dqf/75Z5WdnR2+56/Cc4z4F9CoUSMyMzNDQwQL4dhHH32kRroGEVny+4RLaMFwXLt2LTxKtfX3Ayil1fv4zsqVK2uWM2HfOXfuHFysBuTEtaHT6++rV6/elalTpzIHBwdu8ZWWLVtO7d+/P7t8+TJ3j2fOnGm+YMEC7V9//YW19ZDm8dQ2mC8TjLEmWq12t1KlCsrNzRWlZWSmx8YlyB6FRai9fQO0bh4+zNHFgzm6eqodXT09vX0DMouLi0uzaBH9jo6OLr569WrW1atXWXJysjHY918AEw8p2ljjeunSpejRWjqJevbs2RKrEX311VcIOnFt6OvXrz8hNja2NB+oRYsWO1esWKGdNGkSu3//vhaTvl69ejX/7//+z3H8+PFKf39/CY5r2rTpgOXLl6vmzJnD6tatqz537txx/hqdOnVat2LFiuJFixZptVptaXBr5MiRSWvXrtW2bduWTZgwIY3vzlGtWjVFnz59sMKsat++fasbNWpU1L59e6yZwdzd3Q9fuXJl5OrVqxmWTEPthlqtHsdf878EpCwR9cWqTGi+preVLnlc4gLnPjPGhj4rxcSIV4QlS5a0wxJdt27dymnTpo1CIpFwKtOAAQOqbNmyRXv48OGcnj17QpxzfZFatGhxLTMzk2tIZmpq+iWWRGaMPUSvJZVKdQZEq1WrlpeFhQXIJPXy8mrVtGnTBffu3cNxASjp3LJli3mnTp1YTExMl7Zt29bbvBltmpg7Y2wqxvG3p06dmsQYK0Qjgbi4uK7NmzfXXrp0iat/btu2bfClS5dwzla4eEeOHHkRC8kwxrIQ37C0tBx35swZhtWfUlO5Krj/VO0z4n8Qy5cvH44Vi4qKir7t3r37+BMnTnCLv5uamnZC1xD83r179zRMOvxuZmZ2TiKRcC0sv/rqK2SZPlGs//nnn4uSkpJKF5H/7LPP8jUajcGi8vXq1SuIiYnZuH379ppNmjRh8+bNK609aNGixRAsEcYYa8XvGzNmTAcsXYbfW7Zs+f7FixdLrzdkyJDWWJWVMbYIn/HWFYlEPvn5+VhieBZ/nBFGVBjLli3rifoGxti3FhYWH3z99dds+vTpe2fMmJHPGJPhmB49eiCzVI7fzczMzkskEs3KlSubDBgwALaHv/CaHTt2VGCBFP5zu3bt1Eql0qBlfr169U7GxsYW4Xdra2v7bt260YABAwrwuVWrVp0uXrxY2hgNGD58eHOodVqt9kzLli2/OX/+fCkxhg8f3uuPP/7Adziof44RRrwwFi5c+AmaHzDGhuNz69atI/DSdXeHZsPaYF+XLl3gheLqRZo2bXoiMzOTI0zDhg1VTk5O3GTWR7t27SLi4+PT+M+mpqb5x44d487hMWjQoBy5XF7aVRyoV6+e1sXFxXPmzJm9QFD92oj69eu3cnNzAxErQ2KcPXu2lBiDBw/ug0Up1Wr1ntKLGWHEP8GKFSv6YOFIxtgqfh88PNDv+c89evSAnh6I3z/++OPD8fHxCvy+evXq4aampmzgwIFjunbtOvr+/ftdsL9Tp05xiYmJufz5R44c6dC8eXPWv3//Ee3bt3+vW7duOwICAhjaUGK8b9++Azp37jxg4sSJ2qKiIu7v9O7dO7NDhw4JsFlgh2zYsAH3wDUoaNy4cTV9iXHo0KHPatSowcaNG5eDvln8fiOMeGGgfxGarOk3FUtKSoJNYYPf8YYODAyEWsUZ397e3r8VFBRwbS4BZ2dn8cmTJ+nmzZuUn5/PJcD5+vraKZVKe/4YICgoaNfp06e1Fy5cQL+q0kKcoKAg05MnT7IbN25QXl4epAS3QAvcvFevXtXg2ljghjGGe+Baz6BNjVgsNrBt7ty5k4iVW/OMtQxGvC5AFJwxNgkeIuGYECXJgAaJgCVuzDKX8uVLb4X7ywLWkCCip7bNNMIII4ww4mXhww8/rP3uu+/+jmXi8BLG9u6775KJiYniq6++moAO3sJznoY6dep8+M4779xFeXulSpXgqdK+8847rFatWspBgwZ9CRtCeM7T0KBBg0ZjxoxpLIy+vwy0aNHig8qVK+9EWhT/3d955x2qVq2atk+fPg88PT2fKRGNeMPw4YcfIvGtdEKUt92+fdsgHvEU7IYmJDy/rK1bt26X0MRYeAEh3n333dU4/osvviClUlma8v0SgIRIRPOfuDf97fLlywYrLRnx5gOZtdwkRmoF4gUwes+dO8f27t3L9Xj67LPPuMlx69atZxEDxjMMYKpatSoNHDiQEHw7fvw4XbhwgR04cICtWLGCevXqZTDp6tSpozl79mxD4cX0YWJigubJ3LlKpfKScPwFAZcw90Jo1aoV1zTuxIkThDjKvn37aNGiRdS5c2fuHoWxFSPefHD/+ClTpnAdzhljM/XTyuGZysjI+HLHjh1ad3f3p00ORJm5ayGXydbWloqLi1HT3FvfMIdBrVAoul+7ds2+Q4cOpeSAy9Xa2rqH4SUfw8TEBOtM8MS4LBx/QUAKEFzWWAOcMbZWf01v3LdEIhm8d+/eIkdHx6d9dyPeMBzCxOjUqRNlZ2fDXfrUOgutVgsdvCzAG8RJnUmTJuFaCMY9s2gHqwn17du31J759NNPWVlZuoCJiQkWgeeIUVxcfF04/gLgiNy6dWusIgUX8lMLsBhjsL2MeEvATciVK1fibQmSvCi46yBNJC8Pq+8+n9vUzMwsj7/G0qVL8fsTqFat2gE9YtwSjr8AEI3n2oeiDFU4aMTbDW4yluQaoWjpRYD1q2EncGtmMMa4jn7Pg+PHj9eHBwjXady4MdbjeKI4p1q1anv1iAFP1z8F9/fmzp2Le+4kHDTiLQXSu/nJMWTIkBea0CXgVKj58+fjGi88Ydu0aXOfv5/Dhw8/YeSbmJig5POlE6Nv377ILi5PRXwutGrVyvS9995Db6rd77zzzqmGDRse/vLLL9dfuHCh3HLXAQMGfNC1a9cNEydO3FJQUNCE329mZjaoZs2aBxo0aBB57dq16djXtWvXvjj29OnTUCsrhG7dujXq0qXLqvXr16OZXJnqopmZ2YdVqlRZUalSpe3vvvvutSZNmpwcOnToamHhmD569+5d84svvvhj+vTpG/TreFq0aPFDrVq19jZq1Cjx4cOHU7Dv559/Hr948WI6f/58qMFFXlfwb+n333+frKysrgnHKwDEE6hKlSrk4uICFarcB/ksLFu2DAY6dz8//fTTExLMxMTkLz1i3NMfexG8++67iK1wcZqTJ09GC8efE/Buifj7F254zitXrjwtPAmoVavWRBwDz59IJIos2Y31OUrPR/3Jzp07EUNC0ib179+fNBrNPMGlygP34jp37hye6Qj9AcSt0DlIeL/89t5779GWLVt26J/D47333huNY+BoSUhI4G0+zg7ktzNnzuBnpVWrVtlh7ZIrV65gncfXvxvKN998s53/EvXr12cWFhbPWzGGHCpq164dDO4KrUL0DHCu3u7du1NOTo6BzVOtWrXfMFZCDEiXf4Thw4f/wn/32rVr09GjR/sIj3kOcN6tb775hnP33r17l3PvogiscuXKpRNl9+7dV4UnNmnSZALGYJ+tW7duLd5XqFH5+eefCa5tkODy5cucBG3QoAGWKaAPP/yQfH19n/lyQDUljodzJTc3VxiHAdE40mDJBktLS+6+QaAJEyaU3jNeHOfOnTsjOBfX5oiB7OwFCxYcrlSpUi+USEM1xXIO/fr1ozt37nDE2LRpk9WmTZvgsqeCggJu32uPFi1aGATipk2b9jxtKhNxDhaQUalUXKLhP0HlypU5ojVt2pQyMjJK68wBExOTBRh7WcQA2rRpY/DdJ06ceEx4zDMACckgMTdv3gw3slJYMXjy5MkNJiYm3PU/+ugjuIU/0R9v2rTpd/wYjoNqFx4ejrc7V0IMNUWhUHCq4+TJk+vz97px48aKTDAsJ0Cofxc0qIZKRR988AG3hJxGoynNhuaxa9euvTyp27Rpg/+HwffiiYH7hmRBb4D4eKy7qSsYy8vLW56bm8v9n3x8fHYiGTQnJwfjpQVorzXCwsJqdOnSBUVDpROkWbNmqs2bN5fbUkcPSEGn2bNn48FPFQ4+L6BT43p169bFOuMGrXFMTEzwwHli2OqPvSicnJyq9O3b1yDij7e1ubk5l+VbAaATIRcEZYxx9e1lYfr06che5q6/fft2gwxgU1PTYfwYGlNgIVDGWHf9YwTgyAwVpqCg4Ik1xPWAdBtOGoaHhwttNtwrtwIWY6y0dkaI4cOH/8Dfm4WFhYFGwBMDG4KjWVlZcPc/0bWRB+JZzwoHvHZAxuvs2bMLEa3WnyTdu3cPsLKyelpeEjepSibGSOHg86J27dpY5otTFSIiIgwWTzExMVmKsRJiPFd38acB/6xFixYVV69e3eC7d+rUyf8Z3x0AkbjJ/KxuJJUrV07G8ZCuarV6IL+/adOmk/m/+fvvv+M5QmUsF23atOFiT7ALvby8eJukLPTFcVjVSl8ifPDBB4gvcVkOcrlcSBgDlNiMnHo7b948A7tPnxgHDx7EGAj+ZuLu3btnoevqT5AaNWpATYAeXBa4hzZnzpwnDLsXQa1atThiNGzYkJKTk2P0x0xMTDZirIQYXL3IywImgIODw67vvvvO4LtDRVizZk15gT1INM6OYIw9s0la/fr1++P4rl27wh7bwO83NTX9EfvxUnJ1dcVb96nFVsuWLUMPKu7+Vq9eLbQb9BEO+8DKygqk1X9TI88M9gzuG56op6Jq1ap4CdHgwYMhofBy4lC/fn1O0tWqVYsiIyPf/DoYpEFs3bpVhcmpP0lWrFgRLjwWrV4xhrcSOnoIB58XVapU4WIiLVu2JLFYbK0/JgjwGYy9LGAC7d+/P83U1NTgu8+fP7+spb/QD4pzFKxcuZIrA34aatSowb3BoXaIRKIQfj9PDMRv4uLiKrRSa7Vq1bgXEvK4CgsL+wnHS8B5uhQKhdALFI8xtEVatWrVMwOxVatWnYHju3TpAglT6hCpV6/el9iPtB65XF6h+34j4O/vP75Hjx4Gxun58+eFrjtucqCZgUKhKHcprucAmr5x/7SCgoJT+gPVqlXjVIgSYtzQH3vZCAsL6zto0CDO08RvBw8eFHqBDMYrusGxkJiYmM9fxNTUFLYZN4nT0tKSDP9E2ejfv38vnAN1ytbWNk44/s4775zDeIkNYdCRvaJZz8INLyupVFr6gqhTp05v7IezID8//z9bKu8/ARIIu3btyhnY2PB21Bf1VapUQQkrahYoKCjIQPV5QTzC9bBMMRaO1x+oVq3aEYy9xFypZ2LQoEEo1+W+OzwzWLdDb5gjBmwMqEdwiT5r+/zzz7lloNPS0kpVD54YePuLxWJ4+SoKboIjI1g4gNoXqMAhISEGY/pB3WbNmj3XfY8dO9ZA+tStWxdLFnBOgPz8fLH+33lrULVqVe6fAPedl5cXRDGHzp07D+UfNFyChmc9N2DocdeCL124IEu1atXgSv1XiQHUrFmTIwCCdLa2tqX17rx9hbR6qVTqIBaL/xSLxZfEYvHJrKysw1lZWeeysrIss7KyDorF4k1ZWVnmmZmZ5hKJ5IRGo/mZvwhvfHfs2JEyMzMT9K7/VNSvX/88zoOkyc7ORvCTQ0nQjotNqNXqUskEjB8/HoFI7hkjrV4mk/0tFot/E4vF+8RiMX7fLxaLj5fc92mxWLxbLBZvyMjI2COVSr2ICAY3h/r166OzDE+Mt3PBm88//3wO/0Bv377N9YPSA7f/008/xT/2nyx8grQJro9uenr6EyQzMTFB5PhfUaX00aNHD7Tn576jftueSpUqwX3Juar/iRvS1NSUu/7zEmPatGkISHL3ZW1trS+t/4LRfenSJUjdstJ8uJfchg0bnnjGz4P69etzL8W3WmL06NEDzQq4B2pjY1PaTA2oU6cOHgr3D5ozZw7XWucFwV1//fr1+Ic6CgerVauGGgy+HsNFOP6qMGDAgNKgGlIasLQZ9r/zzjtcCgjcnhKJpFQCPC+aNWv2jR4xnkeVgguYu6+5c+fqE1aLe5LJZAa9vPQAm4SzDQoLCyu0sE1Z4L1SJcR4u2wMHjVr1kS0ktWsWRO5LgZR0vXr13NeC37btGnTTf3xCgJGPZdakp6ebtBsjUe1atVwXY4YarX6ZdgzFQKaveHvwp2KRnS8dGjbtm1p0uOhQ4dAkheCqanpVy9KjPbt24/HubBPXF1d+WUQeFdsmS7tJk2aIMWeS/W4evXqEy+gikKgSr1ZxPjuu+/yymnLLwSn3yMLV6lUPuEF+fbbb7mEPH6bPXs21x29guCuDX+4jY3NE0Y3DxMTE6RFcDk4jLEncneeFwMGDJD5+PhUJNX+D56QeXl5Qtcn930Rqb9//z7e/M+EsH1Qs2bNOCP2RYhhbm6OSDMX95k4cWIA3N0wukNDQ8tVk+bMmcOdgw0GOPp0CY8RoqymFfXq1UNA980kBr5Y9erVVSNGjOgoHNADF3GG5wnlnUTUVXgA3qL9+vUzSCtp0qSJcs6cOXArlonKlSvjjYOeuFzawuXLlzHhHYTH8ahWrRqKk7jcnBkzZpzl92PhmBKjksvsnTZt2gfTp0//fNOmTT89LUUB1/rggw/YkCFDnrbIPfdWRC4Umsoxxgwmf+/evblgGTaU5i5evLib/rgAzTt37qzUarUGrUnRNR7nvwgxgKpVq0bj7Y//D65TkrdWbnoK0KZNG84+wobWqKtWreK6SJaDQYMHD+a62uvvfOOJobdBT015//33EdHFOhV4EJxHBm/Ektb+ZQW6OIAcc+bM0WASCa9buXLl8KpVq97BYkiVKlVy5T062JA9inUsGGPYXy6qVKnCSQy97aldTaBnFxUVPU2tM7jHSpUqSd9//30cD7UO98pVFeINXJLy4Ce8QFpaWrXu3bsbxAWqVq0qMjU1PdSiRYteDRo0gPGLLF4fjKGzPGPMoN9vw4YNB2Gsbdu2UCOfmxiDBg3ikhD5DRmsjDGoZ+XCxcWlcatWrQzu+4MPPghq2rTpTDMzs4Ylnq3ZiJ5jrKSYy0Ba1qxZkyMGYlh5eXlvFjGwaAwisfoPSH9DNBZuPzRU5rM9n4V79+45weeNQJbwevwGEQ61DN1ICgsLcW1MjqeicePGjpAsqBR81gZbCCngRUVF5Wb8Ynk1xCbwthXeH7YGDRoQOsE/fPgQ9/fEcgc8oIosWrSINW/e/Ilr8Buiw0ghL2m4wPXs5dG6desJIB9UtYyMDANpUlHgO+MaiDNlZ2eXe6/6QPIoynohgYX3iw2GPWwXrD2CJSH0F7gBWrRoMRp/8+uvv4bEePMi34mJiX/b2trmHjhwAHlByL9BBiihF2xJX1vpi7gjIyMjXW/cuFG4Z88e7pr6/4DJkydXmGg8/P39j/v5+an9/PyK/f39c/z8/OT+/v5SPz+/bPzE6k38715eXgWRkZFaIkIvqjIBAz85OfmMvb29AqsvIR6xatUqQkENXJ1BQUFQH5An3V54blmIioq6dPHiRQ3qDlBDjwl16NAhjljp6enoGJ9YViFXSEhIWy8vL2V4eDjWA/cVjlcEfn5+Lp6ensXx8fEqxthzpcsEBwfft7S01MB9i/vGT9SUODs7I2MW1yvTAxgYGDjY09NTGxERwbRarYGa9cYBfWKRJYn1MoRviH8Ka2trs5o1a3IqFFIZ1q9fD4/KawN0Nyxp9dOdMdZUOP48QIcUxlgXLDopNLZfZyCoSkRmFelDbMRLBJoe8L53RJI3btz4p/AYI4x4K/HXX3+d1Ndld+7c+WaLYSOMqChmz57NZX9iQ83DoUOH0H7TCCOM+OabbwL0JceOHTsMaryNMOKthZWVlezKlSsMDZ/t7OzgqfonSYhGGPFmoix3phFGGGGEEUYYYYQRRhhhhBFGGGGEEUYYYYQRRhjxn+D/AcTW9h4pMDIHAAAAAElFTkSuQmCC;" vertex="1" parent="2MOlIIQ-UUBEkm-nTI54-16">
          <mxGeometry x="180" y="23" width="121.28" height="98" as="geometry" />
        </mxCell>
        <mxCell id="2MOlIIQ-UUBEkm-nTI54-17" value="Base Não Relacional ( NoSQL )" style="swimlane;whiteSpace=wrap;html=1;" vertex="1" parent="1">
          <mxGeometry x="586" y="10" width="258" height="150" as="geometry" />
        </mxCell>
        <mxCell id="2MOlIIQ-UUBEkm-nTI54-12" value="" style="dashed=0;outlineConnect=0;html=1;align=center;labelPosition=center;verticalLabelPosition=bottom;verticalAlign=top;shape=mxgraph.weblogos.google_drive" vertex="1" parent="2MOlIIQ-UUBEkm-nTI54-17">
          <mxGeometry x="150" y="42" width="80" height="72.5" as="geometry" />
        </mxCell>
        <mxCell id="2MOlIIQ-UUBEkm-nTI54-14" value="" style="shape=image;html=1;verticalAlign=top;verticalLabelPosition=bottom;labelBackgroundColor=#ffffff;imageAspect=0;aspect=fixed;image=https://cdn3.iconfinder.com/data/icons/document-icons-2/30/647702-excel-128.png" vertex="1" parent="2MOlIIQ-UUBEkm-nTI54-17">
          <mxGeometry x="200" y="90" width="38" height="38" as="geometry" />
        </mxCell>
        <mxCell id="2MOlIIQ-UUBEkm-nTI54-56" value="" style="shape=image;verticalLabelPosition=bottom;labelBackgroundColor=default;verticalAlign=top;aspect=fixed;imageAspect=0;image=data:image/png,iVBORw0KGgoAAAANSUhEUgAAAU0AAAEgCAYAAAAwmiFAAAAAAXNSR0IArs4c6QAAAARnQU1BAACxjwv8YQUAAAAJcEhZcwAADsMAAA7DAcdvqGQAAKhESURBVHhe7L0FfFznmfb9vd+7+777LXR3y9tut9t2GzJzbIcZHKNkyxjHDjvMYItpRGaLmRnMHDOzzIyyLKbhOf/vdz9nxpLHTpq0aZu453KujIZHo/Nc535u/H/+HwMGDBgwYMCAAQMGDBgwYMCAAQMGDBgwYMCAAQMGDBgwYMCAAQMGDBgwYMCAAQMGDBgwYMCAAQMGDBgwYMCAAQMGDBgwYMCAAQMGDBgwYMCAAQMGDBgwYMCAAQMGDBgwYMCAAQMGDBgwYMCAAQMGDBgwYMCAAQMGDBgwYMCAAQMGDBgwYMCAAQMGDBgwYOCvDOB/ufn/QtH/3s3uvz+hnfi/Z8+u/4ejdZv/5dKlHT86d23Xf5xs2PmrM417fn22ad9/n2/e9btLdQfuPFe/955L1/bfcanh0K8utRz5UU3N/n86y9l/kOcDf+/m33Xh/5b38v4MBgwYMPBXg4hSU9O+fztbt+mhI+fXhBy9uDrv0Jll5buOFZdsOphTsnpHUuWy7fHLl26du754g/+20k3+e3PXfFKdvvTdY2lL3zmTWvXGxaTKGbWJ5a82JJa82BJfMr09vmS6OaFkmjWxdJo1uWy6NbX8JWtaxSvWjMrXrZmVb1nyV3zQUbr285biNbPqF2+Orlm6ZfalZdvmnt94KPXM9mM5J6vPrzh24uLWI8cubN13vnb3mrr247MbrKeevnbtyH/A+r/z/h0MGDBg4M+CmpqV/3T04uKH9p7Kn7V6V3xa+frIlUVrZp3IWPJ226LCl5xzs6do8/OmMDt7LFHpzxGZ/DQhiU8QnPA4gYkP4588hIDkwTpThhCQNpTA1KEEpA4mMPVeAlMGEZg84DqDUvoRktyP0JT+hCQPIDhxIMFJgwlOGkJI0lBCk+8nLPkBQlMfJDTlIcLSHsWU+RSzc3yZnzeVBbnTSC2dQd7Sj7TytQHOyvVRHWt3xV/eeTxv99GaxRXnm76Yf7HlyJRG85Vfi2Xq/fsaMGDAwNdGEUX/e8/x/LvX7FrgU7o28oOcZZ+VJ5e/Xj8nZ4oWmepLaNIoghKGEZD4MAGJQwhMHOrmYAKT+hOU0pOQlF6EpfUmLK0PIWl9CErrS3B6f0LcDM4cQFB6fwLS++Gf0ZegzL4EZfQlOKMvIRm9dab2JFSxF6EpfQhO7Udwmv780IwBhGQMIDRTLgcSmNqfwBQR3EEEKXEdSnDSfQQl3kdQwoOEJD5NeMpwojJGM69gPKmLXyV3hb9W/kWcec3e5KO7zxYXHKlZGnq+YderV9tOP9ZgvvQr4B+8vxsDBgwY+H92X676x9U7F/22cG3IIykVM7Ln5vmZozJGasGJTxC46FEC4h8mOPFhghLuJ0DEMWkwQSlDCEofTGiGcBDB6QMIEnFM70FQxj0EZ9xDaEZ3QjN6EJrRk5C0XoSm9yE0vS+hSvQGEpQ+gICM/vhn9CMoU2dwRj9ClHD2VWLbyb6EpMpt/QhJF7EcSLAwa5C6DMoYQFBGf4LS+xGUplM9PrU/oWmDCM0Ygn/SIGYm9Mc/aSABSUMJSHqQwKRHCU5+gujc4cwrGUv6srco32DSVu9NtOw+U1F9tmnbvFrLkSeaaPo3w0dqwMDfMNavD/i7wlWfPhhf8vwX0ZmjWkOSH3MGJz2oBSYOwj+hDwEJfQlO7k9I6kBCUgcQnNKX0LS+hGX0IzSzj2JwVj+CskTo+hKY0ZvAjJ4EZohodicovTvB6d0ISe9+nSKeYRk9Cc/sTWhWb4IyehGQ3hN/eV5mLwIzexOcoVMszeC0XkpsQ9J1hmboDMnUGZzdm6Cs3gTLa2X2IUg9v5diiDxWnpPem9CM3vrnTe9FUFpPgtJ7EZgm7E1gWh8CUvrgn9SbmYk9CUgaREjyw4QmP0Fk6kiSK17RyjeGONfuSW3ef3550pXWvT/x/i4NGDBwG2J9ddE/F6wIn5ha/m5pXO6EQyHJT5kDEx/QglMGK0ssJL03QWkidN0JzuhGUFo3gtN7EpzWQ6cSvR6EimB5RE221SKY6X0ISO+rGJgq7ENAsghvTwLie6pL/8ReBCT1ITCpL4FymdwP/6R+zEoR9icgdSABqYMIStEZnHIvQUn3EpQ4iKDEgfgn9CMgoQ/+iX0JSO5PYOoAAlMHEpjmZrpYrgPV9j1YrMy0fso1oJiuf14RTxFUZQ0r9nazz3XrVqxhZdmmDiBATiDx9xKY8BDBCU8xr2ACKZWvmss3BG7fXJ0YUn1hxf9IJoD3d23AgIHvKdbuTe2Vt+yTgNmZU7aFJ/vYgxOeIUi2pGI9ZvYlJKs//mm98U/tTnCWWHvdCcrqRnDmPQSm3U1gWncC08Vy60NwRn+CU8Vf2Z+gZBG1wQQlDSIwcaC+XU8cSlDS/WobH5b0OBHJTxOXNZI5OaOZk+3D/LzxzM+bQGLJC6Qtfo30JTPIXvE2OaveJ2f1++St+ZC81R+Rv+pjClZ9TP7KT8hb8TF5yz8mZ8kHpFbMILXqNRJKX2R+4VQWFE1lbt4k5uRNJi7Hj/CUkcpnGZ7yFKFJDxOc8AAhCUMJThhMcMIggpMHESKCnCy/g1jNAwhNH0RI2iCC1UljIKEZ/QkVKzijp7JoTblDCMscTJD83qn9CUgawMxFAwhIGEpU5rNafPEL9vL1Ifs3H86KOX7li2fq60/8wPtvYMCAge841hxM/ln+ig/Hzcn2OxqW/IRr1sIhzFok1tpQgpOHEJwqFlkPAjLuJiDrHvyzejArsw/+mQMJyLyXkOwBBGX2YGbyPXye0INZif3xTxjMrEUP47/gUYIWPoEp5TniMn2ITfchofB5cpa+QcX6T1i2OZCVW6PYsDuJvccLOHpxCccvL+fEldWcr9/IxcYtXG7eQU3rHmra9tFoPUyL/TjN9hO02k/Rajut2GI9RVPHCerbT1DXdpza1iPUtB5Qz6lp3c2Vll1cbtnB8SvrOHJxFdXnlrGrupgt+7LZsHshK7aGUbLqUzLK3yCx4EUW5EwhNmMsppThBMc/SuDC+wlOuE9RIvEhKfcSItH6tN6EpPcgJKM7IZk9CM3qRViWbO37ugNYAwkS61ZZw2IJDyUo8WFCk55mQd4LWtkXQU1bDhUGnbq29/dQ/X+8/zYGDBj4jmD9+vV/t2R91M8XFbyWF5n2nDMgfhAzF8r2WCLQevBFRbBTehOc2pOgjG4EZN5FUHY3ArN6E5A5gID0IfinDmVW8r3MlO1w4hDCUh8nNnM4c7Mnklj0LvnLg1i5bR5bD6ax63A2py6tpq5lt2KL5QA25wkcros4nHVoNANtihrtuGhFu/5zh5vt128DM9ABWgeaS9iOyyWPsaBhwYVZPUceqz9HXlue13qdTlctdudZbM6jtNsO0dC2h6uNWzh7dR0HTlaw7UAWK7bOoWjlTFJKXiMu3Y/IpOFEJj1FZOrjBCy8l1mLehKUIj7YnrpfNKs3YVmyfZctfk+CxV/rpvhbg1P6EZp6LxHpDxKS9CDhSWNIKPpIW7M7de/RK+vGSCK+sYU3YOA7gmUn5v7fzKVvhcRljD0TmTbMHpL8KMEpAwlN76l8j2GKstXsQUhaT8JU5LovQakiAP2YldibzxMH4J8kFtdjmDKGMzfXj6ylb1G1JYhNhxZx+EIRF+q/oLa1mgbLKdqdF7BTg0a9W+hsbrETEbMCGrhAc2g4HM5Ouhw4NAd2zYbNacXusuFw2nA6bbhcNjSXA01+dlivU3Pot7s0u3q8VZ6ryXN1OhwWHE6Leg00B5rLjOYSAW2C66LdjIsmHDThpB6LdpFGyxGute/mdO1a9p8uYdOBZKo2hZOx+B0WFI0lJvcxQlPvI1BySpPuxT9pgEqXEgENFfdF1p0EZd5BiMoQ6Kn8oBIgCxNrNGUowYmPYUobxcKiaa6S9f6NG6tTt52q3TC1RbskAmpE4A0Y+Etj7Z6UX6eXfzTHlP7M1YD4AVpA4kBC0gYTln4vYZm9Ccu+k7CsuwnL7EFYpr6gJfUmOHkg/osGELhoCKaMp4hKG0F88TQKV33M2p2zOXimkHPXVtNqPYCT0zi4gEsJZKPb2rPjwIpDs+DELXaaiKYdNDu4nOBU+qXosms4HUIXTs2pi6ZLF0Cn5nm+PFceLHSiOUU8PdSvu1wOnCKc6v3t6nWcIqZuak4XmsOJ5hDhFKG16AKqWXCp95HnO3HK87DgoBUHzThpxUULDq7R4jjJNfMBTtctY+epBFbuDid/zUfEl7xMZJovIclPEZj8ICFpQwjN7K8HllQKVT8VoQ9J6+HOEpDgmQS7BuG/cCghSY8zJ89Py1r6oXPD/uRLZ69trWiwnH3NYmn6jZR+ev9tDRgw8C1i+Y4F3RKLZmRHpo5yiC8tKKkfwam99HxEWbwikMoP110Xz/QBhKQMJjDxPgIWPYgpYxjxxVMoWvMJa/fO5dD5Mi43b6bdfhiHdh64CjS4rbQWNFcbOC1K3FwuuxIuh9OKU27TrEqc0MTaNOuXQpcZnEKxFs06nR24NJ1OVztOV5v6Wbbh6vGaFVw2UVn9UixHhwMcLhAxFOHUrErwhC4RQ5e8vwikDc1pB6E8R/2sv4Z+ny6qoudK00U4leibcbpcig7N7nYDyHa/DhfnMXOCessBztVtofrcCtbtTSez6jPm5U4nMnU4wYmPEpT0ECHJ9xOSKgEl3R8arKLyvVTeanCKVC/dT2jKI8rvGZkymoyqd9iwP8Fxqnb98VZ7/adms1mS6I3tuwED3yZW7s/6p+SyGf5B8cO0gIRHCUq5n6DUwQSlSTJ3HwJTe+CffAeBqf9DcNrdBCX3Zlb8APwXPIQpxYekkjcpXxfFruPFnKv/ghZHNTbO4uIyGtf07azWjKa1gNYOSgxFxESEXOCSLbeuOvo22o4mAiePUZaiXHpRCZoI25ez8/Eilrq1qV5bsdPSVHTJe7qF0C2UN7Orleptsbrc7Pz8+nUNl/q9nDhdVpxK3Ntw0ub2oZrVz1ZqaTSf4ELdLnYerqB8zVySS98hMnk0oYmPE5RwLwGJPVVFVHDqUILTJOg2WI/Qyw4g/T5C0h4gKOkRTGkjSK96g+1HMp215j1725znxzbT/O/G1t2AgW8BmVVvD/Zf+FhtQMIDWmDKUELSBxOQKkLZiyAJ6qT1ICi1B6GSS5najcCEAUQkPc28nEkUrJjFvtMVXGs7RBuXsFHvZh12ZVE1oNGkgjQuZ6va0iJiJtaae7uM60bR7LqF7nrbrXizeN1I78d/nef8uelSlM/h1Lf+srVXW/o2ta3X6MBOMy22i5xt2M7O44WUrgliUcHzRKY+TVDCQwTEP0BgspzY7lWVSSphP0sS8qUMVKqR7iUgYYgq78xf8552tGaxtdV2YU2rufV+ow7egIE/Eiu2Jv9wdtb0rOD4pzv8E+7XxKoMzxlAeE4/VW0TlC4J6PcQkNwN//g++M8fzNzcMRSu+oSthzK50LCZFscpbFxTvjsrzZi1JkWbqxm71oLD1YxLa8WlteNytrkDKWIFuv2TX0KPwHjf7k1vQfKm9+O/znP+olQ+V6tyBzgwY6cNm9aKVWvBSqP75HOVdtspztVtYNP+VLKWvEd4yrP4xz9EQNJ9BKodgQinXhggAupJqg9M7sXnCwYyP+9FVm/N0C7Xnzpr0dpmSMlm12PBsEANGPgK7N6d+PcpZW9OC1k4/GzAgke10NRHCE0fTFB6T4KypESxN+HZg5iV1JvPF/UlKPFB4oufZ+mWKA5dqKLOXI1Zu6qsR7GO7ForNlc7NqdFRa1tDit2uxW7U3x6FpwuuRS/o4cSRNG3wPrW+y/LG7bg3wHq/lyb8qmqIJiyOnURdWjy/Up0vllZ7GbXFS63bGfX2SzKNgcxt3AqgQnPMHPR/QSkuOvpJWgk2Q2qLv8egqWEc+FDhMX7UbAskiMX1nU0OU4ubNWu3FNL7T9f0C78fzWa9k+apknfUEM8DRjoCrEu52Q+nxy48EFXcIIEEO4jNO1elVitWyf9CUwayMyFkqz+KCmVb7J+Xwona9bR4TyvIsES5dbQAxsO2Uq62rG7LNidLuxOsKtoNnpE2+HE6XDgdNpxOSTdR9jpG7zBCryFwP056C1af1V6tuvuKL1E7a9TCagZB+3KaleWO22YuUYb52h2nuDwlZVUbp3H/MJXCYh/iM8W9CMgqf+NEXdpRJI8mBCpYIp/gsTiN9hyKMd5te3Avmb7xZeb2mt7Nzc3/66tre1nl+EfDeE0YMCNlVuifxqV4rs/LOVhwjOk/llSWPRyPlWRkjaYWfFDCVj4GHNznmfdvoVcbNqLReUftmGRRSvpNTgUHUhajxWHy4zDJfmMThxOEUp3CpDDiesmikh0BlY8wRnFWwjcn4M3Cddfk3IyEbp0SvZAJ/XvV0XhVSTerE5ONq1dbePNrkaV1mThGucbd7F69wLV5zNw4aMEJQ4hRMo4Veem/oSmDiI0ZTDBiUPwn/8IszMns2rXXO1q+87mDse1jMaOxuEtLS13NDerYJHh8zRgoHzD578KTXr0QmjKg1pEVl+CM/+bkMzfEZp5l+oKFJzSn1kLHmR2zkSWb4vmTO1arIhl2YFNyaMNu/ykdaFYm7KtdKcI6ZSfPezchnfyOyZa3yFe36Z/BUVIJW9VHi9ZAZIjqk4GWLFyiTN161m+PYr5+X74xw8mJKk/YaqL1EDCUgYTJilKifcTtOgBVbO/ZlesVt9+qK3FXpfU1H6tb1NT07/JNt37+DFg4G8K5esD/m3WvEf2zYofSJgkTquOPHeqnD9pKiGNfYMSHiVz6QccPF+KTTuBRg0OrmIVf6WSS10ovRfxH6K3MBj8cnp/d1/Gm58jyfgdWDVJ7bqKRavmwIUcspe/QVjSIwQlDCY0dTBhqQMIS+1DWMoAQqRxsuTVJvmwdOMcrcFaXdfmvPReR0fdLwCjpt3A3y4qNpv+JXTRsA2fz5dE6H6qZ2Vwivi6+hCUPJigRY+xsHAaGw8m02Q5hpUanDSqlBdJf7GpiK5NlSbeSjS9F77BPy+9v3OPaEoivlVt21twUYuNM1xt28L6vXOJTvPBf8H9hCQPJDS1O2GqY/1AQhMfIGD+Y0QkjmLD/oXUtu0+12g7PVGCQ97HkQEDfzMITxidELBoMGEZ0kFHggK9CE2TrkJibTxB1pIPOXJpGW2u8zh1ecSq/GmSiK2XFirfWpeyREM0/3r0/s47RVNKSJ3YVO28ZDWIH7qRVudpDpypJKnkNdXKLjxdTpp3quqi4OShhCQ+TEjSA0SlPcfG/SlavfXQuRb71Xu9jyMDBv4mEJvu91TAwqFOiY7r/Ru7Kf+l9KgMThhGyRfBXGzZTKvrjIrQ2lwaNpe7QEcC2i49+VpflDcvYIN/fXYVTZenZNNlx+Y0Y5XAkToNNnH22hdkLplBUPxgQlN6qsbJoWlDCU19QPX/DIgfSHzRi+w5Vao12c4vMMouDfzNIanyxXsDkn5vD03rrbqmB8nQsOTuhKZ2IzTxGao2pHK145hKnLZwBQv1KjKrGlVIhFk6+uC4HnQw+D2gOyPB5ZTuTpLRYMfuALvsGqjjQvNaspa9SUjSw4SmimDeR2j6ENVdSY6PoIQHKF0XQm3H0b31Wr3R7NjA3xais56oDEj5NUGp3QlJvVcFgEKUhTmIxVsiuGaR9mtSedKAWavDojVil5po1XqtM+n8poVp8DtPsT6lxl38nCqNSfmlpbT1AucbN5K7/AOC4h/Gf5EMgpOG0P0ISO3FZwv7EZc5mZ1HKq0dWv0o72PKgIHbFkll790RkjLUFZR6JyEyZiJpAGEpDxE471Fyl71NbcdOrLRg1ppVuZ7N2Yzd1aoisFKVYojm95vXXSmaGU0FhhpxaA3YtAZVWXShaSNJJS/xSdxQ/JPuZWZyTwKl5DLlXj6f+ygZFbOoaT92XNMu/H/ex5YBA7clIlKG7whIlE44PQhJ6UFk+hAC5j1EXMpUTtWsxqZSiTqwujqwO9txOKWVWofejk3qwr+rieAGvyGlckuapTTqDVNUfbv0Jq3lwOk8YtLHEiDjODIHqDlNIelDmLngPmLTn2ffyZVas6P5Se9jy4CB2w75Kz7/VcCi+9olWV16YIbKKAopoVv0LJv2ZqoO41atDasmlSWehPROGqJ5O1GaJEv7OektanZXHEmJZh1m7RBLN4cTmPCImg3vn9ZdddkXP2dIwjBWbE2mwXx1vvfxZcDAbYf44hfGB8b3dYWlSSXIIMLTBqrhXglFr3Ct9QCIreFSiUXYpeGuNNSQZr5qkUkFj1D6UBqieXvQ8zftTBNziCuGWqrPLyY6w4dZCf3wT+mhRiKHpQ8kJPEBMivf51LjwR1GSaWB2x6zc0Z/GpbaT4tIH0BE6hCCEwcQkvAQizeGY3ddUtszGQchjSBUl3KxNiVg4O6Sbojm7UuPr1N2E1Kz3mA5SFrF63y2oD/+ydIZSRp99CUkaQjzc5/ndO2mFk3TDL+mgdsboUnP5JqydAszIm0I/gv7qgTmnUdTVImdzN7RRVMi5WZ9rIObhmj+rVCagDRj5yyLtwaq8cv6+GDpjCStAO/FlOTL4QvrnNL5yPsYM2DgtkLggkd2haX2JSJdF82gRf2JSHyUvSfTVT259LKUNm2dM3S6iqUhmrcdVaPjzr+jmmskjVS0JjTOsXJXOJ/HD1Sd+mWYW1imnugelejL4bOrtVZr613ex5gBA7cVYrNGHA1P60NEej8i0u8lJGkAgQvuZ9P+hbi4oiewG6L5t8OvFM3zLN4axGdSUpszkOCsAYTKuIykIczJnMiJSxu0NltbT+9jzICB2wrzciccCIiXKZG9VKlcUFIfAhcOpWjlZ5hd59RYXD2C2m6I5m1Pd7PnrqKpTpoSUW+gw3GE7FVv81F8L8IKBxGYJYnufQlPvZ+F+S9w4do2l9WwNA3c7kgqfW395/P7EJzWTQ1BC07pRVjSUOZkTORC41Y1y8fm7MApPk2VzO7tzzRE87bhTfOIJJ2sA6cmCe/1VF+qJDJrBJ+m9CIgtw/+Wf0IyujPrEX3klH+Bs3mI86Ojo5feh9jBgzcVij/IihfuhoFp/VSye2R2X0JT7uXwAWPs3zrXKxcwOZqNETzb4G3Ek2XzF1vw+I6S8WWcD6ThsR5g/g0oxsBIprp9/LJnPtZsjGKVssps9EmzsBtj+1HMuaZ0p4mNG0goWn99EbD6X2ZtXAo0Wl+nGtYCdTp0XNDNG9vKqF04bTLdSd2WxsOezPQyLHLy4nL9+OzlAEE5g7CP6cvwXl9mJV0LxHJY9l3opLG1rNXjYbEBm57nGlcG5ux9EVmLuxHmIx2Tb2HkPRuBCcPwn/hIxSt+5hGsyS5229MN3LKaF2hBaT+/JaiKZZKV95ioRr8jlAG2YlP06Xmq4toyu1oHVxtqKZoZRCByQ8yK6MP/pkDCcjqT1D2PcyMH0L+iiCuNh6irv7CKUM0Ddz2uNC0LXPj4bnMnH8fgTJcK70nIen36MO1ZPJk4iOs3bUAm1NGI7TrJXbODlwOGa0rgSEzaB7h7Jrwfit6L1SD3wmqFnGyJZdBdi4lmE6H1J430mo+w+rNiYTGDyck/V6Cs3sSkNmfWWn9+DzlHgITH2fr4Tzq285y7sLJi4ZoGrjtsfvY2r1XzDtIW/wmMxfep8/CTu9NaEofQlP6EZ4ykNCFT7J620LMzhMqIGB3teF0ymhdqy6e10XRY3162NXKNITzO8kb/JguXE7pwC9+zHqabXtYtT2KqNTnCEsdQnh2H4KzuhOU2YeA9HvxT7qfrBVv02Dfw4HjX3Dg8M6OlpaWH3kfYwYM3FYoWZna1uI6zYGLxYSlP8OnC/sRknYvYZKzmdKfgISehCc/QGTyCFbujKPBfFBF1PX8TRtONZfc2bmtu4FymyeocIsFa/Cvy+vpRfqJzal1qLEXLq5xzbybig1BhCc9S0jyA0RkDFLd/EMyeqngj3/yw8Tk+nHoci4tjt0sXpPMgSNbHVar9Q7vY8yAgdsGJ04s+7+Lcme6TtZspoPDLNkVTlDSE3w6fzAhKferuebBqX0JzxxMUPIDhCQOo2hdKCfrNmOjHlRwyILL6dDHkN+KTs0toIZwfmco23FPTqbqVNWCy9WAk6u0cYyj9UsoXD+TwIQnCZA5QRkPECKNOTL6qMuA5AcJTxvLyt3zaGMHe0/lkF40iyNnthgpRwZubxw8mPvvszNe1yo3z+GqZTcNzkOUbQ7j03mPEpzyKCEZ96k8vKCMAQSly9b9YfyTn2Fh1Qy2n8qj3SHb9Wt6Hp/MBnJ6RFIsTA9lYXoCREYw6DtB5cN07wZcEthrwOE8T4ezmi2nEphXOYWA1McJSr+fkMwhBGcOJjhzoOqjGZx6HxGpI6jcNJsG6zGu2TZTuPpTUore5dDpNY46re5fvI8zAwZuG+w4Uvaj2KwXmFswnb3ny7HSyFXLPoo3BDAz4Un8U4YSmDmQwIyBBKYNxT/9PoKzHmRm6mBCM5+kYn0wJy8vx8Y5kKa10gVJNfaQgJFQGnzoTT6MCPpfht7TP2894M6K5pRqHwcg2/JLnD6/mqp1EURkD+OTpIEEZNxLYNYggiRKnjWQoKxBBKQOJGDh/SzZFMy19n1qbPPWE1nMzh3P/NwXOXR2lcPocmTgtsbmoxX/EpP5ohaTPZmMlR9xov4LLNRxsWMfuWs+ZebCB/BPHIJ/aj8CM7oTkNGDoKxeBGb2YFZSL4IXPcyCnMms2zOfq607cHIFjXpc1KlxsHr3b72ZrUw+FBp+zm+f1wVS01v2Xae6XaaDCuVnsSqlh4Cee+mihqb2A+w8mEZ68WsEzX+EzxN6E5DeS80BCswYQKCIZ+ZgPk8ezMyFD1K+7nOaLVvRuMKp+v2kL/+EyKyRzCt4kQMX1rs0Tfsn7+PMgIHbBkUU/e+Y7JddsQXPE5HpS94XAVy07Kedy1yz7qZiaxAzFzzMzMR+BKTdQ2B6NyWeQcL0nki3d/9FgwhLfJLspW+z43gaV9t2YuECTupxqqBCu6pdd8qIX7V97+Lr7FLjbPCPZ1erUp87r3dc1+fQ69NClYgi5bBNWJ1XaGw/xO7DGeRUvk108nMELhxMQHwvAtPuJjD9LgLTexKU1p+gtCEEJItfcxgr94TRbN0EnKC2bS+F6xYSlTOZiJyRzC99lQMXN2iNNP6r93FmwMBtBVPOS/bYoolEFY4mtngCS/bOod5xVC2uK9ZdLN8XQVTuMGYlyOIZRFCq+Df7ECQzYtKEfQhJlqmVQwlJeJS0ig/YUp3PpeZdmDmLk1rVwFa6vttkVKzD1Smghmh+K+wUTWmsIp327dhc0mnfjIM2nGpYWhN2rnGlaT/bDpSStzgAU/IwQhMfUk2EQ9KkP2YPgtLuJCSrG8EZfQlMGcKsRQ8yv2AKW44l0KZtw8khGqxbqdo6j9i8NzDljiM8dyTzSmco0Wyi6d+8jzEDBm4rROW82BFT5Ets+XBiSp9jTulUVuzLoN52CTMNNHKA3ZfSSah4iYCEx/FPvJ/A1EFKOGWRBad3J0QJaB+CkvsRsPARwpPHkFH1LpsPJnCipopG214cqqFxIzZHK1aHHYdKU/pui6a0RVOt0W5x33eNugvEgROxMqXLfgt2amnnNC3OQ5y6torVu+JJr/yIqOTJBMU/Q3DqEELTBxGWMVD1xgzJ6M2s5DsJSu/NZwsGErTwKbIWf0j1+SrsnETjJHXWLSzbGUds4UuYiiYRXeJLRMEY5pXN4ODl9YZoGrj9EZkzvS26ZBSxFU8QW/kksUXjic5+m8otedRYzmOmhlaOcrS2gpINs4jOGsksafCRMoCQtL7ubVxPQtJ6EprWS9WvByUPICB+MGGJjzA/dwxVm/05eK6YBut+7FxRC1pma2ua+OF0eovAt8IbEre/OXHo9L79W6P35/0a9Aj5dXru02RqpB0k+EYdFs5wpX0Tu05nUL55FnMK/Phs4UPMin9QlUMGpQ0lOHOQHhXPupeQzMGK/kn9+Xz+vZhSfFm8cTa1ak5Uk0pHqm3exbLtc4krfJGo4omYykYRVT6CyCIRzdc5eHmtsT03cPsjPO+F9qiS0cRUPEt02TCii8Zhyp1GVOYrLN6+iEvtO2jjJA6u0OY8yo5jeaSWvEvA3GHMXHA/YekPEpE1hGDxcWbcTUjG3YRmdCc4tSeBicI+yu8ZnT6MvFVvs37vXI5drKSuYw92pOpOghLSq1MqiOxoEmlX5ZjuOmiHhuaQShW9WuU6lWUl9GxNPde7UPJHvyY9QuYRSiWWHna53/t5fxK9/JHewZzr2QbqvV3ofg276nGJlK+6OtCcLer7E9q1Guo79nDwQhGrd0eTtfw1IjKe4ZMFg/h0YR/8U/oRKK6VzB6E5PQgLL8fAel9CEgdQEDqEPwT7yMk/lkyKt5h34lCzM4zSjDNXOJU0xZKN8cRV/gyMaXPE1nqR1S5D1EVIzAV+7Cg9E0OXv7CEE0Dtz8i8qdYTCVjiS4fQ3TpWKKLJyjhjCv0YU7BBMo2BnCqfj0tjgtqAUle5pXGg6zZmcX8vNcJXvgcIUmPEpp5n3vL3lOvHEnvRXBaT4JSexCc0pvAxH4EJgwmNOER5maNImvJa6zdE8vxS5Vca9uLVbuifJ8OGtTcbU2EQFmgIpKa8oHeQBWNF/H0RIflZ2967vvDvKVoeluGSuj+VH7Z5/OcCLqKpsfC9FTu6Ino0KCi3xq1mB0nuda6hwMnKli+eTZZS94gJms4wYkPEJSo+6EDpWZcLMqMfgRn9iQ46y5Csu8iNLs3oRn3MmvREEKSnmRR4TQ27E3lctNWbJwGrmHXzlNdu4KsbUGEl0zFVDKZqIqJOssmEVUxRhfNsrc4dHmTZrSGM3DbIyz/eVtkyVhiyn2ILvMlpnQcMSU+xJWMIbZgNNFZ48laNovNhwu4Zt2Pi8sqVUV8ZWcbNrNyZzzz8l4jOGE0wUnPEpz0EKGpQwlJvZfA1AEEpvYlKLUfwSkDVeekoESJ0g4hOOlBQpOfIDpzDOlL3mHljtlsO5LNyauraXYcwM4Z9T4ajW5LSragEgXWfXc3C5BHRLvyFtbnl1AXJTs4OqkngXfepzoB/cl0omkuRf0zywnBfVJQn1msTbG2LWhY1XZbcmA1JZRXcXKWZusezl1byY7DaSzdFEFm1VvEpvsStOAxZi24j88XDsI/fiBByfcSLHOf0ocSlDGEoIzBqumGDEULTJUSWZk++hQLC15i1fYFnKndgFPmQlGrvv8m+262VqexqPwtQgomYSqfgqliApGVY4ms9COy3COao1lQ+haHL26RlCMjT9PA7Y3Qgin2yBJfYit8iSr1UeIZUzqC2NLhxBaPIip/LFE5k5hX9Br560M4XrcKK6dVWpGFy7RxjmNXN1G1OZF5eR8QkuhHYMLTBCQ8QmDyAwSlDiYwZaBikFymDiRYSvIyB6lF7J88hFlJ9xEkFUjpTxNX4Ef2qndYvsvE5uokDl+qoK5jHw5qlF9NZy0urV51FXdJYxDlz7Nhd7bikC2r21Jzusw4XR3qsmtbu1vR01AE583s2qnJ+3nfhPrn0sXQ4TRjs7epE4HuixSBFMosnjpFG1dpsZ7mWvsuTtUtZtfJVFbsCiW16mVis0cTlvwkAfEPEJQ0RJ2UglL7qpNUYPoAgtIGqTLYkLQhBKbeR2DqgwSnP0JA4kPMXPQA/oueYFHRqyzfOZezDRswa+exqu+2kXbOU12zgpJNYcwufJ6wbAn2jCeqbLzakpsqRxBZ4UNk+UQiRTRLRrNIieZWF/AP3seYAQO3DYD/FZb/vMMjmtFlY4ipGEV0+TCiy8XHOZyYYh+ii3yJKvAhIsePhKoP2Hm+gmv2I7RwkQ6uqMXWol3gdN0ulu5IYEHRG4QkjyQg6RH8kwcTkHIvgUKxbtJ74p9xN/4Z3fDPHEBQ9hACs4YQkDkI/8xBfJTQh48X9lXBitDkJ5mXP57MJe+yfOtstlWnceJKJZcaV1Lfth2z/bzKB5WtqmfLqlulFlWNJKKquWcbyXWpVupKT+WSPMZDulK6/bjk+V14vdqpHedNlNfUqd1ACc4IZXREu5q35FDBsFp1EhCBVJFux1lq23ZwvmENRy8vYdP+DMrWRpNa+QZzCkcRlPoQn8X34+NF3fk0vpf6bkMyhhKSNUDfdmd3IzDzbgIzuxGUIVvvgUo0A5LvZ1bSg8xKeJTg5GEkV73Oyj3zOXltI63aKTSkd3AtZi5yvmU/G4+Xkrh4FqFZzxNdMpnYsomYSsZhKvXBVDaSyMrniKwcQ0TFjaJ5xBBNA7c7JLk9PO95p6nYlxglmj7EVIwhumI4UeXDMJU9h6nEB1PJGEylIzCV+BKWO57ZJa9Rtm02e84s5mrHAdo4T4dq9nCVBtdpzjRvZuPRNHLWfaC2+MFpDxGQdC8zJSUprRf+6XczM03Yj8/T+vFZek9mZfUiIKcXszJ64J/ag4CUPsxKHEBo6gMEi/gufJiQxCeIyxzFoiI/spbOoHxdBKu2L2Ln0RyOXqzgVM0Kapr3U992ghbLaezKT3pV+WGlpZ1scT2XmgpAtblFVi491IMqN9/eSc1N1VtUlY/K9lko/sZWt7XY5L6UyhvJVb2iAl+t9lNcaz/K5eZdnK5bRfXFcrYdzWb59vkUrwkhteoN5uVPwpTuS3jKaPwXPcPMRQ/xeeJAPorvg396f4Jz+rk5kJCcAQRlSXCnJ0FZPQjK7E6wdCJK7Yt/Yn8Ck4YQmPIIMfljyV77IRuPJnOuZQNmzmGjAYcS7nNcM29jx5lcMlbPIiLvJWLLXiWu8iWiy6cQWTqOiNIxmMpGYyq/tWguNETTwN8C1rP+7yJznndGF/oSWzaG6LKxRJVNIKrcV0VFo8qGqy17VKmvWiym8lG6D6t0NJGFPiwoeoXFm+I4eH4FV9uP00Y97TTRxjVaZSE69rLvYgHL9oaQvmIaYRmPqyR5/8R7CUgZREBaf/wz+hCQ0Z2ZGb9nZsbvCMi8i+DMHgRn9CY4va8evEgX32g/AiX6m9JP9fyUrX5Q0sMEJT5KROpTxGQOIyZ9GAn5L5G3+FMWrwtlzfbZbNyziJ2H0zl4poAjF8s4dXUpF+pXUdu8hfq2Q9S3Hqap4yit1hO0WU/SZjtNq+2Msvps2oXrtHehXLe4ztPhkMedptl6lIb2gzS2H1BpORfrNnPmyhpOnFvGoVPl7DySxsb9sazaFU7Fxs/IXv4miaXTmFfgR2TmcIKTnlQlip8tGsrMxHuZlTQIf+mcnzJYRbUDUocyK+0+AtLvJyDzfoIypAdAf4Kz7yY46x6CM2REST/CMoYQlv4QYcmPE5zwGBFpw0lf9jrL95o4XFtKnX0P7ZzDQoPqM9DKRWo69nDgbBHlX/izoHAyUcVjdCGs8MFULkI5isjS0bpglo0mqmIUpsqRRFb4GqJp4G8Pu3cn/n1U9vPOmKKxbtEcR1SZREXH64ujbCSmMlk4nVZGVPlIYspHEls2mthCX2JyJjC/8HVKvohl95llXO44TjO1tFGHmXqauEyd6ygXO75g28k0KrYFE18+jfDUZ/BfdJ+qbQ9KuZcgyflM60GgTMVMk4T5HoSKGGR0IyRDtpv3KMrWUzGjO4FSI53Wl4Ckvvgn9CEgvh+BCwcQLNHgRfcRtOA+TEmPEZn0BOGJTxKTMYrZWb4szJtAWtlLZC9+m+zKdylY8hElKz+nZOUsilcFULwmkNL1wSzeFMESN5dtvJGLN4RRvj6YsvUBFKz8hJzF75O79D3Syl4nPv8F5mdOYG66H1EJI9T7R6TcT8Cigcxa1B//pAEEJPVnVnwfZib0ZGZSL/xTexOQ0YfAjJ7673adcr03gRn9CMocSFDGvYRmDCE0YxAhclKRk0niQILihxKa+Jia65RZ9SmrdyVypGY1dfZjtHCJDq5hVVVBrbTTwFXrCXacLKd4XSQJxW8wN3cisbmjia4YQ+TiUURWjiSiYoRiZLkcC7poSpaFSR5TMdYQTQN/e5B+mjE5U1yxRWOZXTqGmK6iKQ5/WSDlYmWOIUqo/J2S0DyKmPJRxJaPxlQwishcH2ILJjGv9FXy18ew5cQSzrVXK/HsoA0zLVi4qraETRziUutGqi8Ws3ZPHBmVbzEny4/otOcIjX+YwAX3ErBoAEFJfQlN70NYZk9CM7sRnHkPIVndlWAGZNxDQKYuosFyX0YPQjJ7EZrVi7CsnoRJylNqDwKTuhGS1pugFMlR7E1A2kA+T+jLzIQBBCTfS2DivQQmDCEofgiBi4YSEH8//gn3MytRp1Q/CQMS7ifQzaB4nfJzQOIDzEoSf6E8Tk4AQ9XrzVo4UDEkSV5zgMoeCM3s626E0ZugzF4Eprtr+N0ngSDpiJ7VjcCsexSDsrsRmtuDwMx78M/4vc70u/FP6YF/cm9mxQ8kYNEjhKcMJy5rohLuTdVJnKhZzbX2atU/QCxKi/oLtNFEI/VaDScb97PuYBkFa2NYVDqDqOyJxOT5MbfEj+ji0URWjsa0eDSmqtFEVug0VYzW//6SlnZdNP2IqJjkJZpbDNE0cHtj9+Wqf7wummVjiC0bR3SpiKYkLssWXRaKrzuJWRfNrlSWR5meqhSrcjzHEZU7hbklb5K1JpSlO5M5cGkVNdYjaito5goWlc7SoAIfNi7Q0HGI05fWsbs6h6VfRJKz+EMW5U0jInkYIUkPEJjYVwmoCI9/Uh8CkvsSINaVlG1KNZISH7FExfoUIb37OkVQlehkdcM/qzuzsnoSkNWbgEwZDtaHgMy+BKp+oTqlq48Ep2a5KT8HuKl3/Omk3DYrq5MBMmxMsT9BEuCS50hqT0Zf/DN7Myu7N/7ZPZklM3bU5xAB7XmdUsLooXJNZMjv1wf/1G58nngns5LvUYG0kLSHmFcwloylb1O5OYadJ4s4V7+ZJtsxOriMQ/lQdV+rRMKbtQtcth1h74WVVO1IJGnpLGLyX8WUO4m4krHMKfMhVonhSP1vWqULplD/m9/MrxBNzRBNA7c19tes/KcbRXMs0aUTOkVTxPKWoikLyofIsrGKpvJxRJWLP9SX6OIxmArHEFngQ0yRH/PKp5K+4iPWV2dypnErl9uO0uqUYIz0cvSk2kgA5Rp211ka2g9z8vI6th7KYPHmYPJWvEFS6RTisscQtOhx/BdIUOhR/Bc9qCzFACnZFF9nWl+C0vqoihfZ5gZk9MY/o5cuWFm93OyjpileZ2Y//DM87Ksot32e1cmZWf3UbTr1x3geJ/d9ni2P68/MzAHMzBjArC709zBrIDOzhQOYma1nCQRkDCQ4bSAhkoKVMkhvepI0iODEwQQnykC7B4lIeZzYrGdIKp9E0boPWLbdxM4T+Zyt30Kz9aRKDZK0JJf6/iSVyYaDdtqp4ar1APvOl7HywDxyN3zG/MrpROT5YhL/delYJZSxlSOIqRhGdMVzRFeIaEqQR7bmo5SF6S2WX1M0/9H7ODNg4LaBWJrR2ZNdMQW+xEopZYkvUSV+mErHYRIxLJMUk84ggIeRZaOJKB9DRLkP4eU+6jKifDSRwtJRmEpGKsZKwnzRSCJzfYnNn0bGik/IWj2LFXsXcaRmFVfbD2PVarApq9PTg1NmrF/GyinaHdXUt+/iQv0Gqs9Wsnl/Gks3xlC4fCappW8yO2cSMVk+RKQ/S5B0lU+U7vIPMDPpPj6NH8Ks5PvxT32Qz5MH8nlKL0KyBxEsDZXFAkz3WJedlyKenQIp7MNMsUplbK1iX2WdCv2FWTpnyXRGz3PS+zIzrTczlXj3IyCjP7PSBzMz7X4+T7mfT5Lu59OE+1WuZED8g4QlPoop9Rni0oczL2sMWZVvUL7Gn7Xb57DvWD7Hzi+lpnEH7a7T2DSp26/DRbNKebLRonzHLVylyXmFGvNxDlxewtLdc8leM5MF5a8RnT+ZqPzxxJT4EVPmR1yFZEr4KN+lUE6AJnGzeP62ShB16n9Xofwsf/NOhpWPI6xsov53LxrFgpI3OXxhs2b00zRwW2P92fR/+ONF0714KkYTXtFlQUm0tUSEcxRR4ictHUOs+MsKJmDKH09Ezlhi8iYyt3g6GStmsXp/MvsvLOdc0w5qzeKLk9zLWmV5Qp0791LSd/RcTKvrAi3Wo9S27eFU7Xr2nqlg0+FMlu+aS/H6ENKXvUt8xcvMK55GbO5kItLHEpjwGLMWDWJW/CB9TLEk0ydJ7mg/gtwRef+UvviL7zO1LzOFKX2YmdKbmSn6dbk/QAbNpYhlO4BZqf2YmdpHZ0ofPk/ue52zkvoyS1nAA/GXLIHURwnPGEVs3njmFE0hvnw6WUvfoXhNMCu3zmXrgRQOni7g3NUV6iTRZj+KzXVBNXTWU5ikvZsEcRpxKsEUH3EdteZjnKjbwq7zVVTuiid5+efMLnmRiNzxhOeOx1QwieiiScQWTyRGdhDlfsRWjFXpZbqv2peIcl8i1d/ZzXJJWvchosIjmDeLpvy9Q8vHEXoL0azX6n/gfZwZMHDbQAJBXy2avjcJ5h8WzdFEloxWWzZVYVTiS4yUaZb4qdeOKR5PbPF4oor9CMkdTUi2D3HF00lc/B4F60NZsSOTvSfWcKZ2F/XmI3S4LrpzHiVJvF3lQ4poSJ26pM20c412lZhdQ5vrItdsh7jcvoPzzZs5eXUt+05Xsu1wJhv3z2PNzhgq1wdTsS6YsrWfkb3kRXKWTCej6gUSSiawsGAss3NGE5s9sgvl+s2MyxnDnHxfZuf6EF86hfQlr5C2+FUK171PyYaPKN/0Oav3RbJmXyybj6Ry8EIVp+vXcrpuDVfaNtPqqMbsuojdXekkuZz6iUJ+12aV8ym/q4ikhRpaHGdotB7nzLVdbD+8jBU70incEEJ81VtEF04monAckUW+RBb7YSqZSFTJJKLKJisftQhmtHK5jCO63FdRF0xdFG8QzTK3aN7Ary+aRms4A7c1bimapSKWUv3hdwvRdC+qss5F5BFM78cIddHUGV0qr+1LTNlYYuS+spGElz1HaMkwQotGElboQ3jeeCIyX2FO/oekLQ6meF0sy3clseVYKYcuredc4z5qWo/RYD1HG7UqhUa2qDYZKaysMWm6K2No9YodEdrOJHVJPm/G7qjDaqvFbL1AS0c1ze0HaGjdR13Lbupa9nChbivnajdz/pqHG7twg+I5uazbxKWG7Vxq2KnapzVbjtFiPUGr7TRt9rO0OyR5XLbTMuVRksjlUsRQLEfv5HmLqjGXZPN2Vw1NjvPUmI9won47h6+sY+vxIpbumE/h2jASyz8kJud1IrOnEVEwjvDi0YSXDSei4hkiK54lSsphy8UvrTO6bLwSTJVOVq7vHiJLxyh+mWh6s6uIykkytHI0oRW3Fs0WzZh7buA2RnV10f+JyprivFE0RShlcXWxNCWx/StEU3yZXyaaOt15nio5WvxoI4kof46wimcIrXiW8PIRhJf6EFE6nqiSF4gsmEqEbK2zJmLKnUxMwVTmlrxKfNV75K4Lo3L7AtYczGbnmSUcqdnI2XoR0xO0Oa5iU13im7HRqGZ4663nrCAhCoFcavI/pzsIJXXrnrpv/WepDfemfrsEW/Tacf02CWRJQEsorycZN+oN1HWnDC1DxkxINFuvRHK4q5OEFsclGlqOc6l2P2cv7uDImS9YeyCXxbsXUbQ5muRlHzK39CWipe67wIfI3NFE5o8hungsUaV+bp/ySMIrniOi8mlFPYjjS2SFiKSHIqS+RLqty/CyMYp/SDRvZWn+IdFsa2v7qfdxZsDAbQOV3H5L0dSFM7JcAgJS/TFK/9nj77q+kDyLSe7TeePC019Lv280ERUjMano7EgiKkcQWjFcMUwWvnodX2KqJhBTKc0hJJI/lqgSX1XGGVE4mpCckUQWjie6eDJRRVOIK53Ooqo3yFj5KUUbwqjcOptVexOUj3PPmWKO1y7jRM1yztZt5mrLYVVe2Wg5TZPlDE2Ws7TZpLJHrMFr7plGIrSN2JQFq9NOkxJffd6Rh+JblMfqVqQEsjocV2h3XKHVfpFm23mabOdosJzlcvNRTl3byvGaVRyvXcWeU8V8sT+N1bsSqNwYQ/7KENIqPiGh+B0WFs8guugFIvLHE5Y3VlVdmYr1wFpU6Qh3jqyeM6n7HX0Jr5RLCeCIWMp3Kz/7KOEUoTSJ/1JRktHHem27O/+Wnr9fV/4xotnR0fEL7+PMgIHbBrcWTRE7ET9ZYFJfLJUh4qv8sgWni6bn+o2iKc8R62aMEsWwilFEKNHUk6jFSg0rH0W4BI/c0XeJ5EZX6ilOEomPKJUyPndOqPv2qEo96htZOpKI4pFEFo0mqshHiUxo1khiCsazqHI6C8umMb90GomVb5C1aiYFG0Io3hhG8RfhlG6MZMXOeazbn8iO49nsO1PE3jMl7DlTzp5zVYp7z1ey73wlB89XcehiFdUXF3NYsZJDF8rYe7pQPW/z4QxW74ln9d54KjdHUaJeP4KSDeFkrZzFwrI3mFP0AnOLX1Bdg0x54zHl+RGZ74epwA9T4ThMRWOJLNa3ztcrsK5b5jqjq3Qx7OQ4IirGEVkubdrGqzSgrvcr61L9PFY9Vj3+pr/fjaJ4I2++/w+Jptls/rX3cWbAwG0D2Z7f7NP0iKZbEP9E0RSLSNKSwip81GILl0YPHroXogSWugqERxxv9Kfe4n7lFtBFxlMjH636gY4numS8W4xk8Jf4SyUgNYHoQj+i8scRmSst78Yxu2gKC0pfYEHJNOaXvMTc4pdVQ5LZJa8rl8C80teYU/QSsflTmV0wjbmKU5lbOJX5xdNZUDxNRcRjCyYSWzBevX50wViiCiQncgymIh9MYjEq+hIlLBlHTKkfsWUTiC2fSIz4H5UP2e1z7CJSXVOATLcQTUWPaJZLJVfXbbn7fo9gVoxTfwcPbyWKt6I6uXnxVqJ55OIWLBbLb72PMwMGbhvcOhAkW2qPT6uLaN4klp2ieeO23OMP1SnJ7+Hlvu6FOrpTMCu7iEFXa6rS5zplG6r7VG8UzOv3eydeK9H2JbLUl4hSt7BUitC4ywFVlYu7mkle83pFk3StH0NUsVh7foSXjCe8ZAIRJX46i8YSXjBGMaJgNJEFozEVjiaq2EdnidTty+t4igHcKT2V44iqEkGbQETZBNV/0lQ6iajySUR3ZelEFbDx+B+lWcYNYlnpowRTsXJsF/rdxOiKG9n1vsgqPyIqfTv5NUXTm18WPRfRbLG2/N77ODNg4LbBLZPbVfRcF87OhdLVv+XNb1k0u1AXQhG6LqLpdb88V69Q0V8zvEJnmFi1VcJRhC8eSfjiEYRXjVSMELpdBFJXrTr6qKa6Y5UYhJT5KYaW6gyT36FU6KsCVpElOvXfV97b/Xz1e/kohld1MqzCl5Ay/bWF4WorPR6Tsgwluj2B6HI9JehWoqko35f6zrpamrId99O7qFeOU5TX6crrj5EKnso/t2hupcVqvcP7ODNg4LZBdXXRP39XRPOPZVdhkdf0bB9lYYsrIKxKOMrN0er69c8gz+kiQuGyfS3XBTOkbDyhZVL10pUe4dR53WWh2qSJEHW+tv6+8n6jCK0cSYja0no+m/4ceU+TpAHdwC8RzevsKpriq+z0Vwq9X6/zMe5A0LcgmsJbVQS5RdOwNA3cvvjjRfPGRdY15eiGx3n5QW/0o92aXUXB+76vc7/35xV/argKRAm7ln3egup39lUiL9SDWF15i+d8BfXP6Xn/m+//urxRKG/FrsLpfd+N9H7tr6LnRNjVxyp/Y/l7h6uTiHcgaIvWbLH8zvs4M2DgtoE07LhJNKUi6AbR9BZM4Z9PNA3+ESxzW71fGqz74/jHiKbFYvmN93FmwMBtgy8VTVVGKQvHLYKyKG9YUF9TNL2ssz/F2jL4FZS/lRJO77/Tn8ZOl8uYzgwHNyO+RDTNZvN/eR9nBgzcNhDRjMqaonWKpiSTT+gimmPcFoz3Yvy6omnw+8yuonk97esPiGZHR8cvvY8zAwZuG+g+zec1GVtxo2iO9xJN722fIZp/C/yq7XlX0TQVj2FR6dtUnzcqggzc5hDRjMmZqkkT4q8WzS+rJBEaovldonfg59vhzdH8iAo/wt1NiCU/dVH52xw8u1FE8z+9jzMDBm4brD+7/h/i8p53xRWP8xJNCQbJIjRE8/vGmwXvT6eee9olVUtSqio7RVM6V8VXvMOBMxuM6LmB2xsy93x23jTnzZbmH/JpdqUhmt8legvet0Fv0QyXHNQuohld6kNC+TuyPafN1tbD+zgzYOC2QnzZ6/a4G3ya4w3R/B7TW/C+ip6Sz670fsytRFMvDJDy0EmqwECmWKYt/pBTNbtob2/v432MGTBwWyF7xQfm2Sp6Pko1C44SwbxBNP9QKoshmn95elfwdObSfnn10M30FsxvJJpSklk+UfUHiC32oXBdIOfr9kk/zZ7ex5gBA7cVlmyJuhqdO4a40pFEl4rwSemj3gNTX5DeC9azaD3sjKCrqOpNjzX47bOLaEq7PaH7tj8kmp7ZQEKPUMoIZuH1RiO3eJ4eDNIp84NMVXIi1QfpReT4sHz7IurazmstLUbDDgO3OXafKds5p2AKscWjVaef6xbmdSvGe8F63+9N78ca/HbpbfV3tTZFKL96i+5tWXqLphLOWzyvK1XdusxGrxxOVOkoYgumsefUclosDc5Go5+mgdsdF5v25GYtm4UpV8a8yrZcFqUhmt9ZevJmPVkNZX5uys9d+2dKPfrNguctmH+MaEZW+qrm0VGVvkQVTyBj+UyuWY7Qbm+wN1ks/+19jBkwcFuh1VE7d+2eQkKTX1CjX6UHo961yFsMv4qdPjWDf2beIJoewexk145HN4mdl2h6xDKmzJdY9+XXFU1pkRda4EdY9gtsPFKAg6tY7Nesra2td3sfYwYM3FYwu2zzzjWcJK0yjIjMiZik27c7sHPdX6Z8Zt5CaYjmX4eejktdfcqe7/9W23P3DHOVkC415B6OxiQ+bMmaKB5NXLFkT8jYZc98IHm87sPsnDPknote4UNU1QRC8yaRviqUK+ZqrNplGttOW1taWoZ4H2MGDNxW6LBbCxxY2HViOQuK3yaqcCzR5aOJUf0qpWu7UETTI5xdg0Bd6b24Df5x9HzXnuCOLox6kE1+lmwGObFJU2IZejeC8LIRKiCjj+YdS0TJWMKl27zMHZLRH8WTiSmcqjinZDpzS19kbtmLzCt9kfmlL7Kg9CXF+WUvMrtEBtZNJqZ0Eqai8WpMcITMMSqSSaF6w2QZzRFd/AILyz5m/4W1auZ8q+MCNfWHbU2tTT7ex5gBA7cVmjuuHXLRSot2lvX7c1iQP53Zhb7MrhhLlCzciuGEV47QxVMtXO9FbvDbo1h3Mo73Wf3SfaJSI5TLR6i/h/Q7jSqdiKnYTw2Vk0mdofljCMv1I7bkRWIKX2Ju2RskL/+YzLX+5G8KZcWOeDbsyOWLHbnsOFjGrsMV7DlaxcHTKzh4ZgX7z61k7/kV7Du/jK1HctlUncmG6lRW7J5H5bZY8teFkrrsUxaWv8ecojcx5bxETMZbbN5VhUOrV1M5G9pOc/HqEXtTS9ML3seYAQO3FU5fPmi2UouFGmrNh1m6OY65+S8QVSgWhXQkH0m4jNy9vhX3XugGvz3qohlZMUyJpGfAnd5ZaJTKboguHkdUwXgiciYRmfMC80rfIbHqM3LXRLNiTxY7Ty2j+soGzjbvptZcTaP9JB2uGhxak6KcIPU57G04acdJGzZasdKMhUasXFPHgoXLtHKWesdxrpqrOd+8h6NXNrH71Ao2V1ewef9i6ppPAx1otHHy7F5Onz9kae3oGOl9jBkwcNtg69at/9+mPUs0M1dx0qxmeF9u3UP5htnEFbxOZPFkQkpGEVI6Qm/S8KWi6U6A/8ok+L9dRkqnoFvQ+3G6aI4gsnwkUTKordSPyEJfwvPHEpk3jsgcP+YWvUza0g8p3hDFpsPlHL6ylfNNR6m3XKZD/Q0tig7MuDADDjScgAtvaG7KPUInLhw4sGNX/3dixYYZOx24sKrXc9CGRQTWJQLcgaZ14NI6OHHyABcvnWzq6Ojo732cGTBw22D7gWX/WbIiiZq2E9hpxUE7Npq43FpN0YY5hOVOJbRY5sp4BHP09ZERNzYU/vN0Dr9dKALZ2Zuyk96P0+m26Et9CSvyIzzfjznFL5O93J+qrXPUXPZLzTtptByjzVWLXVmMTiV+8n/5WaTPhR2X5sCl2dE0J5qmobk6BbIrRVI9dAB292Xn/frrqn+aHadmw6Vox+Wy4XRaMZtbsVjarRabI6YJ/s37WDNg4LaAiGZiXgB7T6yhQ7uGBIRsTgtWWrjYdpCirXGEF75ASKGMv5AqIR990mPFKMXOAJAenNBpWJvevFk09VntKootfSulfFG+X2GJH+FF4wkvnMzcqjco2hXBrrOl1DTuo8N+ERt1aLSi0Y5da8WudWDX7DhcLlzKbHSB5gSXowvluginCKp2E3VR9Iim5rZN5b5OC1QJsxJfJ5rTgeZydF5Xr61ht9uxO11Oh0urcbpcK+0W+8vA33sfdwYMfG+xtbrwhzFpL5O7PIQLrTuxI1suOzZnh9qC1VhOsnh3FrGFbxOeO4Go4nGYRCwXP0XE4qeJqJIUlxunIf6hPMGu9BaX2403C6Wn8/koospkCy4cTVzFBGLLJxORN5G5+W+RuzSCtbtzOXJpI9esp5S/Ubf/PPLlcFMsPycuzaVbkprWuedWAqrp7LId97Yyv4yex3aF5z282fU+r8drLpfrjNPpfKW9vf0/vI8/Awa+d5AmxHGZ07XZWdP54lAajdppLLTgEk+Wq5l2GmlzXmPHqSUsKHqH8IwJmErGElk5nIgqifKKMEoyvCep+saRsd4i6U1vkbndeF0wy0dhkuBOxXOYyp4jumw40aWjiJYKrKIJRBVMZm7pq6Qu/YyNB4q41HCIVvtl5SoR618XSJfXVtpjIWq4vASsU7VuvOotjF9Gz9O8RfNPgculWR0OV6LVar3HsD4NfG9RXV30f2ZnvahFZ0wivvRNDl5aRoeKnrZio50OrQGH+vkqJ658QcWGOcwveQNT0SQiyyYQUTaZCBl5INUoKulZGkYIbxbIW9FbZG4HynZbbbm7WpkVw4iqeILoiqeZUzWa2WVjiCseT3TudOIKZpC6xJ+1+zM437IDC1dw0IyDFuwqCCNBGd1r6c3rW+w/UjS7GqXevMXT/2Qoy9OpORwO5z6bzdbN+3g0YOB7gbisac55hVOIK5hEcuUHHKnZTDsNKjIqqSgOV7uKkEIrZsd59pxeTM7qUEz5LxGSN5WwosmES0K1SoIfRmSlRNq9q1JuTW/BuR3YVSyjSnVGlw0jpuwp4kqHs6hyEtE5fsTlvETWkkjW7y3kTP0u2rXL6jsWf6WeCmR1b7/ppJdoem+TlWjeSv3c8BbNvzQ8n9HlcuF0utrtdtdqi8XxsPcxacDAdxox2VOtc0smMbd8ApG50nzBxKm6/VhpVItXc1jB5gCHhAckun6V0w3bWLw7iQWLPyK84AXCpPKk/DlMFU9iqhyJ6aatuXefR/ecmVuIzvednr6iyn95XTRHElM6irjC8USmT2Z+7lss35bCmWt7aXNewa5cIpLSY1OXTmy697KrYN5moulyaSo+5XRoFrvdVdbRYR/gfWwaMPCdRFzO9NbYYr10MrZiIlHZ0ylYFcXJq5uwabU4ne3gdOJyOHE4zcr6lCToOud5DtRsoGp3IguXvEeElNypChVfomQwW7mfXqusyjFvFszbSTSv516qSPgYwkukeme0EkvxX84u9yM6fwqx2S+TtzyKPSdW02a/ioMOnJL7qNJ4HLhc7uCOl2B+2Za6U41udePN+Ao9/YvhBpGXQL+bdrur0Wy1v9/a2vpj72PUgIHvFKJzpzfFlY4junI0piof4oomMjtrKtlV/pyu2YhGIy61XbRgc3VgVdt2s7pso55a+wkO1a1lyf6FxC95l5jCaUQVPE900SSVnB1VLuWYt+qcc7P4/Cn0+BK9b/9L8HpKUakPEaWjiKkai6lEty5jSkZiyp1AQtnHrN2bxdX2IyonVqxJm6QKiWCqII8uJLoVeaOF+Qetw7+2En4DfJloqhxSp6Y5HM4TZrt9KPC/vY9VAwa+E4jOmdYcUzaOKEkfqvIhqsCH2CwRzpfIqvJn7+lKWpwnVcWQjRasWgtW2rFo7SoVRsru2jlPnfMgx+vWsHp/KhnL/Zmb/zqxedOJLnhe9VyMUm3LxndG28u/vZzOroEX7/v+EvT4L6NlXEiZ5LSOJbp0PNEFE4jKGU/mspkcvLCaNtd5LFo9VlcbNs1yPcSjJxJ1EU2vbfnfimh6hNPp0qw2p6vISFMy8J1EdO70luiycZjcohkh2+sCP+IKJxGbO4XkqrfZfDSTq5ZDqpuNpCC1u1qwujqwC7UWbDRgc9cstzrPcLpuGxv351O6NpaF+e8TkT2VkIJxhBZNIKJEIu9T1FCum7uQf3PemAt58/3fNsMqOinXrwtmqQ8xJb7EVUzEVDKByPwpzCt4g4pNcZxu2E4HDdhpx6p14NDEZ+kRTKna6ZI4rih5l525l18qmt77bW9+D+FldZ62WCxPeB+zBgz8VRGTM63ZI5qSrC5CFlniQ3SxPjBrdokv80tfpnh9HMevbqYDKd2z4HDZcbos2B1m5et0usw4lJBKqkwjdmqpbzvKgVMrWLJrPvFr3yOyfDphRc8TWvg8YcUT3bOI3Ftrd4XMN20zJ1tjqdP2BF287/9Kfm1Lt7MF3o2i6W6ooQTTh1g54ZSMJzBrHPPK3mLT4VzqbYfdDTFc2LSuqUOef3q5442i6eHfrmh6hNNucza3W2zTgf/jfewaMPBXQUzu9PobRVP6Mo5SLceiZEJl2XPElfgSm/sCyWUf8cX+PK60VqvuNlJ0p4TTbsHpcOJ0ihzY0STAoTXjUg0kGmlxneasZRM7L5WweN9cUld+wpyyV4gsGE94vp7gHV0yUfVwlM7xpkpfxVv5PSOvN+GVssOx+uTM0nFqiqaapCm9Jr0pj1Xs9H3qQi1R/663eR6ns6tohqu6+9GEVQhFPPUacan0iSn1Ja5kHLFFfkRmTSax8mP2nquiVTuNjXpsWLG65JvRhc8TCZdNudSJ39rK7LQ0v1QHvUXSm99DqAQAL9odLmuHxRFYC//sffwaMPAXR3TOtKvRpeOIrBztnmc9UjW8VQIkFmfZMGLLRTh9iJVte+7zFKydycHzlbRYLqh0GavWjsVpVbQpodQ74Eiww6E5cGjSHacBJ9cwa2e40LSFXaeKWLpzLunLZrKw+F3mFb7D7KI3iSp5XjXOjZDPJEGkirF6t3B3hFr8hXpPSQ/dglnip2gq9aKcEJSfUZ6r13zfyK7b+7E30COa4WJZlstcHLEwdcHsKpqmYl+i88YSkzWRohUmTl7YiN2dpG5Vrdes2DQHdk3DoQRTxFNUrasNeUtb0oBb/x0uTbPZXevb2tp+6n0MGzDwF0VMzvSaW4mmEhwV2BhGdMVzxJSNIbZ0HDFFfsQWTGB+yasUfzGfQxc30OA4Rwf1mGnCTKOqW7dKoEO2liqYIdtRCXt0qEoXTVW8iG/0PJcbDnDozBdsqV7Cip355KyKZW7Jh5jyXiY8fyIRhb5EFoswieXroxhTrG+H1Zz26/Xct2DFGDelie/wLhzhbuw7qktepbd/tLNzU3j5WMLK/Qgr89Mv5brHpykBrbxxmLImU7AqkIv1O3BRh12rU9tyvbWaVT95SFJ3l2qemwXTEM1bwfNNOTVNsztcJ1vN9ge9j2MDBv5i8IimSZU/3iiaESUiCsOIqnzOPYzLR9Eks66LfDHlv8z88g8p2jiHXWeW0Og4iYNGJY4iFFaxrpwut1i4W01Iio3L5q6g9jQhk7QbM2ZnC1dbzlN9aQcbj5RSsX0uOetmkrLsHeaXvURU7iRi8iYTm/88MfnjiSkUAR2j5toov6J7WJjyb4qvUQ0Sk88sAjrSzVFuukXV/TvpqVFdOY4IFeWXEtEJhFdMILx8ImHlkwirmERY2Xgiy8djKp2MKXc6FVvmcvLaJqxcUScFl9aGQ5047Njdgql3Iuose7x5P/093VP/meF9erE7XZc6rI7RRlqSgb8KPKIpItJVNCNL/dTEwfBKT2mk+BhHEy7jL6qeIqz8Kb3XZtEUoopeZF75O+Sui2D3ySXUt5/Erun5ndK41ikRY2VlWnQbSzn6JeVEfnDoVCLqWR4ObOILdZ7lqvkAZ+o3UX1xBbtOlrN6Vxol6+aSscSfhSUvMadwMjHFU4gqnkJ4/niCc8YSlD2WkNxxRJZMwVQqnISpdAKmMj896d5NEcYbeaNwmlQTEr0ZSUSFn2pQElbpR1jleCIrJxBVMZnIwhco3hzHlXYJ+DQqSod0p6tdJaw7XVoX6qLp8VUa+HrwFk231WmXZHjg77yPaQMG/qww3UI0VRPcMrdoVgwjwi2asn0Pq3yOsMVPElb1BOHSJk58hlKCWTqV8ILpzC94m+KVJrZXF3G+fjttrrNqvKum+kA2qiCRptnQVHNcG5rLqojLDup2Cy6XBadTUnP0ihmnSgaXLX2TKju8Zj7H5daDHKtdwY4zhaw7nM6SXYvI/8JE+soA0lcGkrxsFrFFbxFX/CaxxTOILnqZqMJpmApewFT4PKbCKUQWTsJUMAGTjPaQbkNFfkQVj8dUMl75VU0lfsq3GiG19TL6w03l2yz2JSx3Ivmbwrlo3qfGRqjQjmbB6WrD6ZTfw6lKBaW9pTpRdM1RNETza+NWoqlOrS7NabHZZgP/4H1cGzDwZ4Mpd9oVj2jKdlX39XVuz2VeTaelKRMQR6kpiCapIKoUv57MERqHqVLG/07BVDSFyLypRBVOJ2H5+1TsjWPP+RJq23ZjdZ1Bo9ZdZSQdlOr1wVyuZpWyJGKpuWy4nFacdhsOmxO7VaKnVuyuJuxakwo86V3mW5SI2mnA7LxGi7WGZstFrrYe5ErLHs437ODQ2VUcOreSA6cr2VadyaodC1i8IZbFG2Mp/yKa3BVB5KwKImtlIBkrZpGx0p+kxZ8SX/URiyo/YkH5eyyoeNfNd1hY9g6Lyt9iQeWbLCp9m/LV0Vyo24ZL6vSlk7n0+hWhlN/BJWWRHqtaF0wDfxy+TDR14XS5Oiy2CO/j2oCBPxtMudMvqejzl4imamtWKYETXxXF1ik/61RbWZlcqaLcetRZxsgKo8rGEZI/ktlF08hbFcKqPcnsP7eUmtb9tHFODe+yUoeVJtWKzuqyqi2t6gTuco9ScFhwONpwuBpwuBqVwDpcLYp2rR2nS2bUmHFpVt1KVVZpkzuCr4uzS3JLXedot5+k3X6cdvsJWm3HqDcf4ZrlMBfb9nG2YSdnm3ZzvG4bx69t5VjtVo7UbFJdnzw8ekXnkcubOVWzlVbLMTRqQGvRu5lLk3TVjEKEU6inDRmuyj8NknTV2Wn+ZuG0OZzm1o6OV4D/1/v4NmDgW4cpb9rFW4vmuBtEUw8E3YoScPEhutKHKLE+K0a5X2OkargbUfI0kYU+ROQ8T2T2dOLy3iJjeRiLdySz+WQFp1p3cdV2kkatRtWzq8R5tSWX2Tf1SvBc1LuFUCxSCbLIREWph9eHenlEU+iQSLWKVlvU9t6htWN3tmJ3NuPQWgCh3oJNn8goFKH1TGeUIWJC+QweSuchD2X+jnR8kqFlTfrraWY0yVFVlqa7g4+iWzQN/EnQRdPz72bRlLxXs9VW197e3sv7+DZg4FtHZO70S7I9ly5H0VLhotJwJH9R/Hdy/bmvFE19yz5GJcebqkYTVTmKKJXSM9zdrfxZIstGElnkh6lwEpH5LxCeO53QrOlE5L1E/LKPyNscxerDOey7vI7zrYdo1i5g5hJOFYm+pHyiYo1aZXuutvItOLU2t2C6RVNtiSUv1EO9GYbeQcgzCMyG5rTodFmuC61upXrT43e16/NwlPXbSX0vLqal+36nbMVvpEc0DR/mn4Y/JJr6Nl3TLDZ7UY2m/ZP3MW7AwLeKyNzpl79cNEd/DdH0JbJyLKYqX0U9L1JP6/FYnCKa8loqkFIygYhiSWCfosooA/OeIyR/LKbi55lX9QbJy2dRvGkOa/ZnUX15DecadnKp+TDN9hr3+AexCsVKFGtRZm7LqFoJGHlG10ojDIvKjxSLVbdaOwXSE3jyJs5b0aLTZQZXh5vtipq63x30VyvXPY+nC43Az7eDryOabuF0Waz2gsvwj97HuQED3xpM+dP1QJAa9jWayDIpo5SUI6nAkS37cD053Cv5+4ZWbNc7tXuXJXoe06WmXCWNS2Reur2P1inR6BJpFjKWiMLxRORPILp4KvMqXiNhybtkrwxh+fYMdhypoPrcas7WbeVq6wEaOk7S7rykJjRKxZEMhpNen3bJk6RdzehWgSMV0XZdT/u5XqaoLEgpY5S0J3eIWyzG65QuuXaQvFIlnm5qcim366J5Q6ceQyj/LBDh1P/dnNnalQ6Xy2a22v2NHE4DfzaY8l7UU47ckxGl7ly3CsXaFItxhG41dhXMW3QT+rZGWHh6U0aWjiGiZDQRRaMIyxlLZObzzCt8jUUlb5K6+ANyVwaQvyKS5duT+OJAPtuOlHPowhpON2zhYtseai2HaXGdwYKIqqQr6b5OGVCrD6qVTkNinep+S02sUbnNZcXuEJGVBHwPRBklJUro2ZorhVS8sVbaEM2/JuQ8ZrU729vM5vFGYMjAnwXfNdEUSrOMrjXgUaV+RBeNI7poPFH5fpjyxhGVO57ovMlE5T5PVM4LxOW/zLySGSyqeJvkJR+Stcqf8q0xrD2UxOZjBWw5XMrm6jKOXFrPydrNnKzdwrnmPZxv2cOF5n1cat7P5ZYD1JmP0mQ7SZPljEphajHXYLFLfqnVXb3U2VjDwHcPapuuaZhtjpOtrda7vY93Awb+ZHRuzz2iOcYtmiKUIppSeuhuTHEL0ZQabGlo8W2KpjeVcEqjZNWcw4+oUk+p5BhM4kooFovUR9WphxeMIbxwLJGFfpgKRGwnE1P0ArGF04ktfJGFZW8RX/4O8ZXvkbbiU1JXfELq8s9IW/45qcs/JX/dLIo3BFH2RRSLNy5i6cY0Llw7rCxUqRpXfjVDNL+z8NT222VyW4el0Eh8N/Ctw5SnR89vKZrlnlrtv7Roit+zK6XL+3gi1NhgofwsPtERRFQMJ1JVMY1S5Z9yGV42hnD5jOI3laoeqe4pmuDmeKLdFUCmYp3SWd7krgQylYwgNPcZYgonEpY6iYwls7jcUq1SjcSOUX41QzS/s+g6eM5stdtbWzt8vI95Awb+JETlT7/4ZaIZKdFv2ZpLiaVqEtzZos0jcCKYf27RDFedhaTL0Hg3J+jXK0cRVjHSTamL97RtG6M+U0S5tHeT4JQfkTJuQ1GsVenFKW6AMTqVD1VKJccSXjmcmCU+BOf4MLfkLfZerMTMVdWl6XpTN0M0v7PoFE1p7KHRYbatqa01+nAa+BZhynvxwpeJpmreocomxYL76o7q365o3shw6WXZpWO6zq633dhRvbOzuh7Zj5DP1YUilPK7iUCGV44kXN5DhLhsEhGqGcckgnNeoHJnCnXO01iRvFCb3mC5S7NgA989dE1BkqR3m8NpaTebJ3sf9wYM/NH4Pojmt0/5XcQiFUtVOrJLKpS4ACYQWjqOwHw/5ld+wNFrmzFTR4dDUpjEp2mI5ncd3rmbIpwWq72pra2tu/exb8DAH4XovBcvyeRECfpIYrtEzb+paEoupqcW/Xru5nedZdJYWOiruxfc2/Tw4gmE509l1cFU2lznsDgbsDna3ULZdTSFIZrfRXiLptDu1DSz1bZc07T/6338GzDwjRGd/9LV6BLpNSnVP3+8aF6vELrF/d85uoNLYeXjCSsfp3yhKugl5Z7548hY8SmXWrdi4wp2R6vKzbxxjo8hmt9VeAumhw6X5jBbbHOMAW0G/mTE5L9YL0PNdNH0lDve5qKpAk0SUJqkAkryu0WVjSCqeDgxuVPYXJ2NnYs4tEbVqk5PZjdE8/sAb7G8QTidmqOtwzLDew0YMPCNEJP3YnOMjGyQ8bmSwiNd21V6kZQ4jnRzlN6YuMvcb/EDeqp3uvJmgfruUQWWxMosm6wi81I2Gl06itCMUWRXhVLbfEKN4PCUW9649Ax8n2Gz2i91dHT8p/c6MGDgayM678XWP0Y05WdvwfzeiKaaLjmO0LKJaqsuAbCYkrFqTPG2Q6U4VQs5Ty25slEM0bxN4HS6tI4OSw7wv7zXggEDXwuzC19tj1Ydh0Q0h3uJpmzR3bydRFP9Hr6ElsukyZHEVPoQUzietCUfcalxp3umu8ww8oimZ36RUUv+vYcGVovd0tJi/b33WjBg4GthUdmbZhFNEROZ/yNzf6S7kRJNJZRdeTuJpiTDSyXRMGLKxxBTMIn1+5PUXHZdNLuOqTAszNsGumhq7e3mD7zXggEDXwsLi9+yRpc8r8QkrHIY4RUyD0jvg3l7i+YowiufwVTxNKbikSwqe4XjV1cA10C6HkmXIkM0bz+4RbOtrWOl0T7OwB+FhcXvdYTnT1Qd2MOqniW88jkiVef1rqLZ2Q/zdhBNoViZMoo4qmIYYdmjKVwbRLO9GmjTW8fdIJqeTsMGvs/w/E2dDg2Lxdba2tpqdEEy8M2RtTL8SnieWJq+btF81ks0uzQQvu1E82nVVT4673m2HsnFxRUVNVf+TJVWpF92+jQNfJ9x/UToBJvNoTW3taUa1qaBb4xlu1LXRhW8Qnipn16LLTN9Kp5zj6m4OTfzdhFN1Q2p4jnCC8eQWPkuF5q3otHQJdWoUzT168YY3u87uoqm3e6kpa3tXHNz8w+914QBA1+Jw1c3LphT+h7BMmaiUlJxhqngiKl0hLsd3Fg1y8cjNrePaErl0xjCcsdStD6cNu2UPvFSBrB1mST5VTTw/YMSTdmiOzXaOywtDUZNuoFvigbX2aD8L6K18MKpmCql/dowIsv+FkTTh+gyPyJyp7DlWD52atTQNofmkDFBap6Qt0gqMTWE83uNrqLZ1mGxtbS0DPNeEwYMfCVsNATuObtEm1M+g4jisUSWjiCy7LkvFU1P/0xPRZB3VZC3MH136asaD88peoNTdZuxUofdJXPPNewuGZkgwikD12SiZTtm2rG5zDhl2Jo+9cIQze8hPLOc5ATYbrG4Wlra3vJeEwYMfCVcWuucRtsxrXxbDNGFk4kqHoOpZDSmEk+n9htF81ZUXY6+Z6JpKh9LcLYP+V9EUm8/iU1rxqVZcGgurJKWIgO6ZFwvdey/tI6t59bSrNVilzG+Nv0BmtsaNfD9g/zVLHab1tLeXmAEgwx8I3RYri6xcplzzZtIX/I54Zky/mE8pmI/92CzWw9S68rvpWjKyaBgMmsOZdHONeyaGTQHDpdMStcHALfSyCnHdvxLXuP9nJc5ZN6BmQacMsbXIT08dL+nge8nHC4XHVZLTXNz8/94rwsDBr4UF64dOWWhFie1VJ9ZS3zpx4TmPE9Iji6c0rkookSqhHSx8R558b31aZaMZX7Vm+w5vwIrrWpkmv6fCzM2Wuhgv3U3n616hQdi7uSheb0I3/oxp1z79dnqmmzVHTcFjAx8fyCZt1a7zdnW0fGuUYtu4Gtj3/GNHXaacbracLla2Xy4kriS94gseBFT0URCC4cTVaE3GVZ+QC+B/H76NMcQVuhLwtKPOFm/Ewc2PUAgvkrxeeHiiPk4n6z6gJ6mX9En/T/onvQzHk7oycI94VxwHMWsteAQ0XS6lHC6nIZofp/gqfMSd0x7h2XLZfhH77VhwMBNgID/d8kX6c5m80UcdjMum4s251U2HS9hXvE7mHImEl3iq/prmtTwNGnWq0+p1JPf9TzO79/2fAyhhb5krAnmqvmUmjCpgjt2FzZ7M7Wu84SuCqS/qTu90v+Tuwr+ld/n/ICeCb/g8bn9yTgwnyau4sCuBFPlw9uNwND3CR7RFJqtttqWlpY7vdeHAQM3Yffu3X+fURzoulC3E01rx2GW8sFWOhyn2FadR3zJW5jyJxJVMk6N8Y2qGE5U5bNEVT1JVOXTREnzXnfz4e9XE2KxNMdSsWsBHVqtLpgS/dHEi3mC9KOzeXBhf7ol/oJ7cv+N3+f+E7/P/3fuyv0JvZJ+xRPx97L4fBEW2tEkP0lEUwLthmh+b9BVNDssdmtLi/VZ7/VhwMBN2L078e/npr3u2rg3kzbHeVyaDYezGSdX6XCdYNeJIhLL3yeu6AWiy8YSW+njFs5niKocpgvp90w0xRoOLx1NZPFE1h7NQ1wTuqUopZINHLCuZmLu03Sb/Svuyfo5d+b+M3fl/iu/z/sh/1Pw7/Qu/C/6Lvgdk7PGUN26D5uE0d2l6eIPVVargT8Aj2T99XCjpelwtrZaXvFeHwYM3IT169f/nSlpqjO17GMOXV6JjWs4aMOsNWCjFgvnOXZxHdkrAokumoKpaDyxlROIqZTGvbJN/y6LpncJqF5DL9M2pTw0umwqey6uQhN/pl1TEfF2LpKwL4iBcb+jR+J/cXfOT7kr9wfclfvv3JH3I35X8K90L/k5/TJ/x9A5PZi9LZyrXNK36ZpMRre5hdOoVP9yeL6dbyqanud9O9+ul2hqLW2WMO/1YcDATSii6H/H5bzgiMycSN6GAC7Zd2KmCQtWLForLtXxp40zjdup2DebORUzCM2dpAJEMWXjlUh6fJnfGdEsG6sPTvM0G1FD1LpcL9U/45zFL3O8YZdaPrLDbnY2sL9jAxNzH2dA0m/olfNr7sz9EXfm/YC7c3/EXXk/5rfFP+B3JT/g7vyf0jfpt/hkP8XG1lU0UYcVs3xrKgrvWYwGbgXPt/NNhK+rxP0xz78ZXV/RYnNqrR3WbO/1YcDALRGTO8U2u3QK0UUTKN8VzQXLCTqwYtfsWKwdksyGCwmO7GPnlVJyvgghtugVwvInEFnqFs0/OFhNj7zr4uXpmqTPHr/5sX8ibxLNG69HlY0jpHAE8Sve4ULbEVUB1OG0c5Ua0g/NY/Ds39I9+Wd0y/0Fdxb8hDvzf8jdeSKaP+G3xf/Cf5f9I78v/ne6Z/6CAQvvInpPEOeQ76wNKzYcONVr6vamgZshMiXfkP49daW3LHbK482iKY/+qud/5bfvqQpyP05Es63dusF7bRgwcEvE5E3umFM+EVORD5H5k9hwvIAWLmCnCYfDjGYVZ51EStpwUE+N9QjrjhQyr+wjTLJlL/Yjumwc0eW+RKvA0BhMEmVXkXaZhS4J8n6YyoVj3feNUpRofGSF79eiZ676H2Jk+Tgiy8e6X1si++OIqNCvy3vGVY4nosCPvDUhtHWcw+W0Y3baOMkp3lzxEt0X/JRumT/i7ryfckf+T7gz7yfcnfsTJZr/U/iv/L74X7mz6Id0y/0ZPRL+k4klI9jWsZ4OWjC7pKJIZFMWtJxs9H/6or+Zt/rn/ZhO/jng/R5fxa+LP/Q8kSoHLuxKNj3flbcA6tTvu5WcSvcph3az8HqG4XVlpzy6P4/7R8+nkz4D7RbbBWO8r4Gvhdj8qc0xReOIKfUlqmAC84vfYNvxApqdJ9BoRXPZ0RwOcNrknIyTFhqdF6iu3UjZjhjmlr1KZJ5UEY0jusxXjY6IrhCOVpdRygrVxVRRblOUFKabxfFWNFXc6Df9KkZWjCPSLZJKNCvGEVGpX4+qGKUCWqb8KVSsi8NhvozmtCl3xPqm9QwveJIeKT+le+6PlFDekS/C+VPuzv0Zd+e5rc6CHyt2EzFN/hkPJfcj91QyLdTjcFlVRZFT2Zu6zemxO70XvfBW/7wf07ng/xzwfp8v4zd5f+/nekNeS+V3daGnZ6n7OapAXFrySTZH16F2ndRb9knKgt7CTz1H3SdNAeRScsDkteW4FXre52Y9d2kSQbdZG8zmX3mvDwMGbkJc/osN0SKaJWOJKZ5EXMELzMl7lQ3VuTTYTyq/plPrQNPacNGCQ6phFK9R7zjEkWsrqNgex7yi14nNfwFTgR+mEukg5EO0BIoqRuiRdhVtH6mLaJkfUWXj3QJ3s0h685uLplyKaApFNOW6BK1GEVXsQ1TuJJZuWoDTKaMt5DdsI+1IEoMW3k2vtJ/SI+dH3JMrVubPuCPvZ+pSLE/xa3pE8+6Cn3JXxk/pv/D3BK7/mAvO0zix4pRSTDe/qWh+2eO+mWh9E3i/z5fxm7y/93N1KF1TeujAKSWrWCTPq/PSJWWsct0joCKWUquqi9/1efOqiYp+m8veAS73c5RAyvNkTr28plDE0vNeHvGUD+ElmnquptbS0jHce30YMHATdNEcq5LYo4snEFs2iZjCycwufIPKbYlcNR/FSTN2JKJer352IkGiVlA/19JiO86xC2tYsnEB88o+ICx/GiF5E1TXJBVhrxThfK6LaI5TwqlbhDeLpIfegvh1GFkhr+tLZOUoIitHd4pm5Shl/c6pmEBU7mTW7U1DExcEFuqoJXzbTLrN+yk9s35M96wfcneObMl10RRrU7bpskWXINDdBT/hrvwfclfOj+ix8Fe8XDyRU7bDKm/TLmlbShjEStIX+s1C8k35TUTrm8D7fb6M3+T9vZ7r2RFLOqvVzuWLZziwfxs7t6/j0L5NVO/byL6d69m9eZXivq3rOFm9m9qLJ7G21oNTRM+K5rRgt7bjclpxOTtobbrK8f072bd1PUf3bOHA9vUc2bOJI3s2snfzSnZvWkb17rUcP7iRS+f20tZ2EZzNuji7P5THNhVabHaaW9v9vdeHAQM3Ia5gemN0ka++PS+ZoNrBxZSPI6roBSJyZ1CyJZHTTbtp4yJOGpVYamIpuGyg2dA0mdzYgpNrtNpOc7xxN0sO5ZO4Mojo0lcJzdfFM6pMfJ6+7q35KEVThVQauX2R34pojiWyXCzYW4nmSKJley6J+jmT2XgoGwdNKup9gbN8vP5VusX/Kz2y/53uOT+mW46+LddF88fcka8HgzyieUfhv3FH/r/RM/E/8U17im2Na2lXJxf7n0E0PfSYSF6m0h+ERx66XnaVjC+j/rgvr6vv+lm6vn4Xup8momk1W7lw7hS7tq1jbkwAn3/4MgEfvUzAx69QlD6H1eWZFKbPI3F2KDEhn5CTPI+9W9fR2nhZF05lQTqx2VtoabjE+SN7Kc2IJ/TDGYR/8iahH71GcmwAa6tyKMmYR3zMZ8wJeY/YiPdIS4/k4MF1mNuvuq1T3dfs+aQimi1t7Yu814cBAzdBWZqFvsTI2N4S8TtK/uUoosvFTzmViJzppC8LZM/pJZgdF91bKrt4z/UdlJQRaiKgckBLb6AOWqnjYttBtp0op2hDDPGV7xErIpw/nsgiX6JLO6PtUWUiqGPdvk8vKnEdoV9639clYv8HRVNdH4mpciQRRb6E5U5i47FiVXNuxcFJxzFeXexHj6R/uy6a3XN+Srcc2Zb/nLvzf8zdKor+U+7J/xn35P+YOwt/wP8U/gvdMn7Oo/EDqThTQKsKljmVYKrQhlwqv5sLzSVbSI+/rYvAXL9+K+pb1etbUzdd4jd1ynZUHuMe4+AlbPKz9P50ubo8V/3B5DFyu5SAdgr7reh02nA4RKyktl6n/j5dAyydM5SUD1JeU7bQcumQ40QPU8vDHTYHTocVi7mB/PTZfPbKaPxn+BD8wRQObluMy3KVtrrzHNm9idR5kbw5bRyBH75GUeocas7sU6OVHY4OLC4rVoecuC0c2rKSgHeeJ/Ct8cx8bQzl6XE4Wq/Q0XSR0we3krsgnI9njOXDt3yIDH2VPTuX4LDVuyP4nd+0sjTbOlK814cBAzchrmBabVShWJcjMJU+q6wxqfSRSHhM2Vjiiscyp+AFEos/ZNX2dGqajuJwteBU2yTdEa86XSg/kwiq9KCUrbtufTZZT3Hsyhes2pdM9ppgFla8RUz+NCJzphCWPZ7wPD9MhXogKkb8oB6qgNJwoiueIVqE8ybB/PqiqV8fqRhWMpaAvPGsP1GulrpIzynHcaaXjKZX8k/pkftjeuQIJSD0c7rn/oLueT+hW/4P6Zb3M7rl/Qfd8n7MXYU/4HdF/8TdOT/mvvie5B3Lpg0bTk0aeEj3I7vbjtFUhN7lsOGSYJqIp5xo1KVOESU9kNHVepPn6t+riJC8psNhw263qks9QCJCJeImYiRCqDcP0YVNF04Rbf3ziICLT0/Ewo7DaVGieP0+t4B6BNlzn9xmt8v72nHY5T79MdcFV2YqyevZLe4sC8+vIdPLrLjsTr0RyvXZdGKFt1GWPQ/Ty8OIen0ksZ88T/XOpfpx49StyfqLJ1gQ9hmfvDKOz18dQ86CAOovHVPFCM12u9id6gXPH95B+EdTCXlnJCFvPMvyvHlga7oe9Dm1ex1h700m/D0/Pp3xLOlJs2isP/llopnmvT4MGLgJsQXTrkQVjSa2YrgSzRjZwpbrohlb5svskrHMK57C7LyXiEp7lcyqCLZVV3Gt7QR26tFoQZMabDr0aDtywDaqeTt2rRlNgiMSanFe4mrbEY5d2ci6/bkUrI4mueIz5ha+QWzeNGLyphBbOInYosnElkwmtnSiO41JPo8PMWWS2tRJEcg/XjQn8MWJ0uuiedpxnBeLx9Ir6Zf0yP0pPfJ+TM/cn9Ez5+f0zPkFPXJ/Qvc8Ec2f0y3vl3rkvPBf+J+if1J+zfsSepB/PJc2SaO5boEpcw+HXU4m7hOLLM6OdlxWObl4IiNua9Fhx9LWissuwubez7pF0+WyqZOUpoId4HBYaGlpoLW1+bo4aNJlyWMN6q+gYLWasVjkRKZ/LqutHbtDhEmCK/LaVi+rs9MalddvbW3BIRaj23r1QE/wEcF0B1dwYulooaO9BXNHK04RUfV7ufQYjfo15flW7K5WyrLmdIrmx1M45BZNzdEBTj1AtHvdYoLemkLwG2P5/JURVOUtxGZpwuJwYJMTDRpnD21TohmqRPMZlubMAWszmriPxJl09RTxIe8QOGMUIR/4EBX6MpcvHHT/DjeKZktre773+jBg4CbEFb54IapoFLEygVJEs1JPFYqp8CG2fCxzSv2YUzKBOSXPE1UwlYjM54nLf5XCteHsOFZKveUwkhouAirRdUmEF0o5pl06obtcSkgkBUe2h5pK8KmjwXyKU1e3sf1IGSt2JFK4JpzE8g+IzXuViOzphOdMIbJwEqbiCUQXjyemSGd0yQSiSyeq6PvNwvn1RXPDiWIVsbbj4ozjBG8tnU7P+P+me7aectQj5yf0yP4ZPbL/g+65P6Z73o/onitW5i/covkD7ij+Z+7J+TEPJvWh6FShck7IQmxva+Li+TNUlhaTuGg+7S3NXL18iaKCPD776APmxkSzb8cO3eIEzhw/TlpCAv6ffEL8vDkc2rsbzSGLXgRMLD6LslJFOPft3UleXibzF8whJjaKzKx0jh094lYyDZfDjtNh52rNFTZt3EByUgInjx/F6bCwccMqwkIDiI4KZ+WKJdjcgRWrRS7t2G0idBqnThyjtKSI4qIC0tNSyMpMZ9+e3eo1z505zbWrNcqylOdqmi7mB/bvIScrjUXzZjM7JpLkRQs4deTIjYazEl0rDmdX0RxF7EdTObRjmRJNp70dTUXFO6g7e5B5ge8Q+fZYTG+PJnbmy5w+sl29oF0Jucb5Q9uI/HAq4W+PJGTGMyzJnq1EUz6bfH+Nl48xb9brBMwYSeA7o4gJeYXL5/bfUjSb29qrvNeHAQM3Ia7gxXO6aMowNbdoVo4hutKH2IqxxJWPI65Uot1jiS6XXMyxRBaNIjxnNPOKX6dkQzQHzq+kyXYOC83Y3FUxDs8/CYo4ZTF7dqZinZiVVSqBJUldaref5WrzHo5dWc266mxyv4giacVM5lW9TUzpy5jyJ2HKGUdU7jii1HZ+AqaS8V1KOHWqgJIk0kv/z8pRmCol0DRODzZVjlAU0QxUolmIiw5ko3eZC3y2/gO6L/gd92SKL/Pf6Zb9Q7rn/ITu2bJFv5Vo/it3FP8L9+T8iCey7mXxlcV04KTd0sGGL9bwyUfvMbh/H8aNeI6dWzaTlpTIW2/MwGfkCAb26Y3PsGHs376D44cOEfDJJ7w8dSo+I0bQ447f8/pL0zh78uh10ZRlLYKWn5fF22++RnZ2GmvXryItLQVf3zGMGTOKrRu+cOumi6OHD5GwaAFPPPYIA/v3JT83i5KiXN5+6xXG+Y5iUP/ePPXEI6xYvlg9R7lZhMCOrVt4cdpU4qKjOLBvH1s2beTTjz9k5HPDePetN3lzxmuEBgdRc/miO/3HRkF+Jq+89ALZWal8sW41WWnJ+IwYxriRI9m4dr1yHejiqeRJNYUpz5xNlIjmayOJ/egFqncs10XT0a6nEjlacTRfInt+MGEzRjL73VGEvDGazStlOoUeTZfv5cKhbZiui+bTLM2OVc9VB5zTzK7VpQTNGE/Aq6Pxf2MkJRmRmFsv6/nHN4lmx2Lv9WHAwE34Q6IpjHFX8oj1ZlKBGfE1jia2bDLh2ZOIzZtB/tpYtp1cTk3HRVVOqLevsGCjHafsz1TqnfStFB+XRY+Eig9Uk62j1LiLdXoVC5eodx7jbPt2DtWtYPv5IlYeXET+ugBSlrzPorK3iCt8lejCaUQVTyCicCxhBT6EF/gSUTSO6NIJRIsVKoIqga1SP2LKhb7Keo4s9lNd6TeeyFOWsY0OGqjDtD2cXvN/z10Zklr0A+7J+QHdcn+ogkHd1fb8x52imS8BoX/nzsJ/466MHzK84CE2NK3DojnUdvjE8cMsmBtL73vu5LGhQ8hNTWX96tXKUjtz4gTvv/M23X//e16b+gJJ8+ezfuVKrl29yukTx3j5+cn8z3/9kszUJJyyVVXCCYsry3j04ftJTY5XPkZZ6jL4bfWqFQzq15dnH3+cvdt1K+zK5UtK7J564jG63X0XH77/Dvl5mRyu3ktNzQXiYiK5847fKqFrqK/V3Qdo1NZcwWf0KIY98zSXLpzTrVdg+9YtPHj/UPr36c2CeXNYtWIZjXW1SniWLi5l6JABZKYnq+29Em6Xky/WrGLogAE8+fCj7Nq20327WIdmt2jGYXrpWUyvjiTmw6kc3rlC94N7RNPeAq4WFucsIPS1Ycx5dzgBrzxLaUYsmrMZTaUiubhYvYPoj6YR8dZIQmc8zeL0cKztV2i4ep59W9eSFPExpnenkhz6DmuL59JyZT/YxQ2g7wq8tucF3uvDgIGb0FU0IyUQpIRRLDRPr8xxiiZVv91JGbZmkttL/QjLG0NYjg+zi6dStCGU7aeLOd+8g2btAg7l89STjTWXFU18fNKGzeYAWfzi+5JIqCwCl/hG25QV6qIRh0yIlFQm10VqzMc437qfI1e3sv3UKtYcLKBix1yy1gaRvOwTEpZ8wLyyN5lfNoO44leIyJlMSIYfUfnPE134PJF5ExXjSqYRkTuJTUcz1HuIpdlIE4VnMnkooTt3Zf2Y3xf+C3fn/xP3iHjm/ph78n6qgkAimnpg6Gfck/dD7pHczaSfMH2pL8cdB9QW1xMMqd63k/v69+WxIYM5sne3W3707fiKxVX07daNEU88wbF9+lZRN8UgNzWZu/77V4QGfY5Lhrjh4lrtJXxGj8Bn5DCuXjrvFiCP79NBWGAAv/jhD/n8vffpaBKfMpg72pjx2ivcdcdvSUtNxObeegv27NrGg/cP5pGH7uPc6ePX/aIrllXxu9/8irfeeFVt3XVnpIOGuqu89srL3Pn737FyuWyj9fetuXKeSRPG8tTjj1B/9ZL++m4LEIeFwM8/5Y7//g2fffgx5o4OHDZJYDfjdDVTIdvzF4cT9dpoIt6dQvV2sTSbcTo7dEF0SjCxlarcBYS+/hyz3xtB4GvDyVgQiLXj6vWo/eXqncR8KKI5isg3h5EQ9DLLiuLJTJ5NwEev8vlrPiyY+ToHVuajXTsE4nNXM570Ak2VU6BXBNHU2jrfe30YMHAT4gqmn7mVaKqywxtEUxpf3EwRz9iq8cRV+hGeP4LIvHHEFb5I6tLPWLUvgxO125T/0uy8hF2rx6m1qEXhtFtVRFmlpSjKaFxJV5FosUSHJYAkZZuylRfPoww861CjdDskI1KrpdZ2lMvmA5w37+Vk83b2X17FxqPFrNqfyeIdSZRunEfxhtlkLAshvvQzEso+J7F8JnML3mft3lwc4k7QLJgxs6djM5MKnqFH0n9wd96/c1fBP3FXwb+oZh3dVBTdHUl3i6ZE1Hvl/JLe8b8mct9MaiWPVSwpZU1pHN67k4cGDGDUk09y7eJ5dbvdJlY1bF63jv49evDy5Ml0NDSq2+wqcOKkKDODbr/5NTM/fg+LRQI9sHLlYnp2u4uP3nsbhzRRkeUuwSG3cK5buZx7fvNbnn3oYY7u10W4raWZd99+k+733MnyZVXqNpcKAGkcPXKQRx4cyqOPPMD5Myd0EUQjLTWBX/3yZ7z3zpvY5H1ENCW9x9LGJx99yK9/9UvSU1Pcj4f1a1fSu2c33n/nTTSnQ5Wkyi7C8x2sWraYfj178NDQ+ziwd587y0JOjE1UZc8h6qXRRL/uQ+R7Uziya7XacYhoutQJVHYfrVTlzCf0jeHEvj+SgBkjSFsYiNnsFk3NzuXDO5WlGf7GCMJnPENZ4iyO71vN/j3rWVaeTmLkewS+6kNG+HusLZjN+SMb0GxixepNVbqKZnNr62fe68OAgZsQW/jScVPRaGIqhhNR9seIplT9jFNUXY+KxxFVPImooqlE5b/IoooPKNkYx5bDBZyp20Kj5ZjyIkqwSHxTTpdZ5d6pBSepLO70HEl5cbqcinY1VtdFu9NGu8uGRZOtvz7+zEozVpWk3oiNBqzU08FVWh2XaLCcpbb9BBcbDnGmdh/n6g5w9MJ2Dp7exPnaaizOFjWS1047VzlP5MbPGTz7Tvpl/Yo7pWN7wQ+4R3yZOR7RFEvzP5Ro9sr9D3on/hePJw2k4nIeTVyjzd6kfh8RjOq9O7mvT29GPf4Y9Zcv6gEaZYXBri1bGNirNy9NnERbfYO6TaXs4KQsN5vuv/k1n7z3JlaLWFsu5syJ4te//DlBn3+Kyy4uDTtOuwx2k2AHnDxSzeND7+O+Pn3YsEK2uRI1t/LBu2/Rq/s9rFhapbbgnoj2mdMneOzh+3n0ofs4e+rYdRFcuayK//nNr5g2aTwtDXqJqXwmh83Ce2+/wT13/p6KshL9wZqTlMSF/Ncvf8aszz5Sv7MEqzSHNGXWo+3HDx/k0Qfvp0/37qxdtdJt6bbj0uqpyIrD9OIYol7zJfK95zmya43qnO9wmVXgS3fbtFCVO58QEc0PRvLpy8+QHh+EzS7fmQMcVq7I9vzDFwibMZzgV55kWY5JPU/lRbiaObJjCab3pxD82ihC3h7F3ODXuHhMWgLqhateovm69/owYOAmmApfOhxZLD7M4USUDrtJNKWDkZQ9fplo3kDpNCQNiqXZb5m0YfMhSiqN8icRl/8K8aXvU7Aqgs3V+Zy8uokW+3nM1GDVat2pShIcasPhbMfh7NCF02nH5rJh1YR2rC5JN7Fhd0nqihmHjOlwyeN1usSSkW2+1MvL9vaGOmcRHLOqaHK6OrCJxesyY3E20kE9m6+tYXzS09yb+Hvuyv6Z6tQufs0eyq/pEU5JO/opfXL/k95zfs07S17kjHZEiWazVo8dsQQ1Du/bxSODBuL75BPUXtC31B7/5M7NmxnYoycv+k2go6FBj3orq1GjPC+b7r/9NZ998DYuu3x2JxFhQfzmP3/BZ++9g62jTRdA6UClEqbg8vkzPPfoIwy45242rdRF024z8/5bM+hx9x3K4hO4bPpnO3vqOI89dD8P3TeYk0er3eKoce3KBV6eOpmBPbtTUSQBF307L+L33NOP88IkP67VuLfhmpO5MSb+6xc/5b23ZmAz6wKvrEzV3AXOnTnJqGHP0uvuu1m1TFKKZEstf6M6KrPjiH7Zh5jX/Yh6fxrH9qzXiyM0C06V72vGaamlMNlE8BvDiXl/BLNeH86K8mSV5K5ey2WjpnonsR/qlmbIa0+zJCdG/xu7E8qcHVdYlhlN0KvPEvrWMD5+5Wkqcubisosl63a1uzQZeUFza4chmgb+MKIKXzqoi+aIPyya3r0rb+IYIipHEl45jLDypwgrfwJTxVNElY1W1UBhmeOJyJpKTO6rJFd+RsmmeWw4nM+hKyu51LGDZqeeviRWqNS4iz9Upo/bacWm+lV2YNU6sGkdyiKRrZyio0O3vOwdep7fdYrvytqFnutiETmwu+yqY7vd0YxFE9m7zNwvghgUexfdc37N/xT+iG45umjeo3I0xbcpeZw/p2fKL3g0qT/5p9NopIYWGhStykKCI/t28ejAAYx94gmunXeLpjvPUizNQSKa4/3oaKhzWz36fWX52XRzi6a5Q7buTubPieb3//0rXpwykWuXpSpL92l6RLOu5hIjn3icIb16Ur1bD7rYrR18KJZmtztZs0IES/RMt4JFzJ545AEevn8Ip49LupLLLXQuTh05xOhnn2byOB9WLa5i4+qVhAV8zvvvvMbuHZv0pHDxTbtsJC6Yy3/94meMGTGMxqtS6ihi6m6yAZw/fRzfUSPp3e0eDuzbq04amrMJh/MKZZkmIqcPx/TKaCLfncyRXatAa9ZFU/1eHbTVniLR9Inanke98xyxn03h3JEtuNQJUa9CqzksgaAXCJ3xHEGvPklFZoxqLuPQpIu+nKSs7F2ZQ/gbzxL57nMEvzuahOgP6WgQ8fcWzfZPvNeHAQM3wVT4yr7IYmnpNhJTiR4V14eoyUgIqdKRUke92fDNIunN0YSUjyC0YgQRVZIXOYKI8uFEqumVkqjuR2zFRNWDM6JgEhF5LxFd+Abzqz4ga10g5Tvi2HKylENXvuBsyy4aXEdp1k7Qql3GrFLHzYri3VRt2BwuHA5N7QZ1A8el/HaaUwaeiWiau9CiR+2lLFAqWxwadqeG0+FQFqrV1YyFJvY0fsFLJePoseg/VQCoZ+5PVdrRnQU/1RsQl/8LfXJ+zr2zf4f/uvc4ou2ljiuYnW0q2GJV1hycqD6gRNPn0ceovySCom9pBXt3bGNA925MHzeO9rprSmh068pFeVEed/76Pwn87CPsFrGGnKxZuZRud/wPj90/hIN7RBR1S09VZbnsnDhWzUNDBzN1/DgloAJrRytvzXiFnvfcyYollfpzPGJ29jRPP/4wjz4wlPOnxacp3TT0rfv+XduJCQ+hJC+HtcsXs3Z5FV+sXkrdFRF+l35iUj5nO6tXLKZXtzsY2Lcn+91iLdasy+1qOFZ9gGeeeJwJY8fSWFen/KOaqxmXq47ydBOmac8Q88oIIt6awNE9K0Fros3RhlV9Fx2c2LeR2E9fJ/S14YTPGMay7Gic5qs41E5B3zlcObadqI8mEPzm4wS89hBL8uLc/lCXyleVwNy+lQVKNGM+8MH/zVGkz5tFe4N+8lHbc7dotrZ1RHuvDwMGboKp8JW9XyWaUhUkJY66aHbtun5rhleMJrxc5/Xu6dd/Hk1k2Sgi5VIi8KWTCC+ZRGjBREJy/QgvnEJs6WvMr3qXlJWfUrwpghX75rHjZCmnru3mSusRrplP0Oo4h1XNM5LtuXQVsunlglLhItF3rQWXqw3N2QbOdiWaLqcFl0MPPsm8chFbCeI7HE5VUmh3iSg308wVyi5n8VzGUPok/YoBOf9N94xfclfBz/l1+T9zT/kP6TX/50zLHsH2lvVc5ix1rhrsDitOi0uVGQqOH9jHYwMHMe7JJ2m87BZN9327tm9mYK8eTPUdQ4uy0KReXQ/SVJQV0f3O3xHw+Yc4VdAHGq7V8Mq05/ntr37B/BiTe5utb9EFVZWldL/nDrLSk68Ls83cxjszXqVfz24sX1yhbtPcvkYRyicefZD77x3AyWOH9c8mUfrLF3hpyiSiQoNxmNtwmluxtTbiMDej2Vr1k49sfOVnzUrtlXO89tLz/OY/f05UeIj+eSWQ5/a1rlxaxX2DBpKeLFtqzR3xl8/eTFVWDHGvjmDu275EvTeJk/vXKvdMu7hacGC11FOYOpePXhhD4KujyIx+l9oT25UgKreMBIu0di4f30LkxxMIefsp/F9/lMXZ0eCQ2nKLsqyd9fVUJkap7XnE274EvOnH+qpMNIdkddwomi3t7Qu814cBAzfBVPTa7sgiycWUhh1/SDQ7xe+P5yg35Wf33PQyHyJLZOjZWCKLxxIueZf5vpjy/IgrmsycgmksLHmbrBWfU74pglV7F7DjRB4nar/gWM0GzjfupMlxnDbtLBbtskpTksR5oZR5qp6girIgpamGiK0Vu9OpaNNs2OS61kGLq44aTpN1ciGPLexPv7n/Tf+M39Mj9zfcnfUf9Fr0K14oGs7qK0UyBER1NrJobbpo2nWfpZROfrFyOT3++zc80rcvR/fs0UsQJbDldLK0qlwlsY9++nHOHqtWGQPiw5UIemLCfH75Hz9m2vMTqFOCqmPD2tU89tB93D+wP5UlRZjbmrHbrBw6dJApk8fzxmsvU18nUWWpP3dy6eJZ/HxG8dtf/5Ls9FQ9t1Pex2Zl3+7tDB3UX23dN61frV5HEs93bdlIvx7deOyBobz/xmt8/sHbfPr+2wTP/BBT6ExS4mezbdNqrO31qsWauEK2bVrHU48+RN+e3agsLcLS0YrNaubc6RPMeOVF3n/7LWovX1EZEg6r+GObsVsuU5AaTuiMUYS/6cusN/zYs7EKzd6A2d5GY8s1li8p5qMZz/PJaxPIWxTMmQPrwNWKy9mOzSEuFTkZNnB872qC3ptA4IyRzHz5WQoWhWBvu4TT2UxT/UU2VJZgen86QW+OUTXoRamxNFw5jtMu/WHdgSCPaLZ1vOO9PgwYuAmmgtd3R0oTYsnNLJH2aX9m0awY1Um3eEZWyPZdp94yTroajVINPMQ9ECNNjQvGEJU/mrgiX+KKxhJXNIkFZTOYX/IGacs/pnxrOOVbTKzem87OE4upvrSWQxfWcvzKRi627OWa5QhXOw5TZzlKi+M0Ha7LtCtfpkUNXrBJnbhLU8Ehiyb25hlS9s9hWML99Jr7G/pn3MPARffwStl4Vl0qpoUr7qbDdj0opdwCDmxWEaU9BH/2GSMeeYwJTw9jQVQ0J48exWLpYOvWzQTOmsmzjz/GxNEjSY1fyOkTR2horGXd+tW89+6bPPrwfUydMpGcrEzqrtWqih2XzczG9auZOmkiTz72KIH+s1gwby4ffPgeQYH+XDh3VomrWHOXLpwhOXERo0eO4PFHH1EVPVs3b8Lc0a58i3NnxzLiuWcZOewpoiNCqd6zC81ipulqDe+/+TqD+/ZkSL+eDB3QhwG9utGvx53073UXfXvcwUNDB1BZmq9KHTW7RVEE/YVJkxj+9NOEBgeyaME8Zn3+GeGhIZw9c0pXfflu2ps4d3Ife7cvY47pfWa+O55Z707k83ensig2iI2rlqqgVVpyPBEhnxE/L5St68tpqj3p3nJLwMyumpa0tNZx9sQuitPjCHlvKqZ3JVdzGpHvz2BxcRYrlpeSmTYX08w3CX3/BVJiPmXjkhyaak4p941qWOJyqTJfq91Ba3uHtdli+a33+jBg4CZEFb626y8qmoo3+kIjZa5QmXA0JhkN7KberENnTNlIYspGEF36HDFlzxFdMpoomYopc4ryJ2LKG090/iRi8l9kbsFrzCt8nXkFM0gofZfsFTMpWh9C4bpgyjZGsGRbDKt3pXD4/B7axXpxp52oKj8VlJXtu4VazpNxcj7P5N5Pt9m/5eWqSexsk3lA11RPRxVFUAacbJWlXFS6AVmouXSJfdu2c+ZgNecOVHNwxw7OnTqJ2dzGqdMn2L9/L0cPHeTQrh0c2r2TazUXqauv4fDRgxw8sIdD+3dzSC4P7Ke+7ppuCbrrV2ovXmDlsqVkZaRRmJ/Ljp3baW3RE9o1p55WVF9Xw+FD+zm4fx9Hj1Sry9MnT9De2sKFc2fYs2unKrWUINCx6v1cvXgObBbqL19i0ZxYlpYVc3D3dnZuXs/6FUtYvbSMJWX55Gcm8cr0ybw4dQLN9TVquy9i7rJZuHzuHMsXV5GbnUlxUSHbt25WzUmuQ0Szo4lTx3ezd+dyNqwrYPOGQnZsKmff1pVsWrWYzStXsHXNWnZu2sipo/tpbjijmr+oMSuaLnAuTcNmt9BQf5mD+9azZVUxu1eVcWTdco6sWcnuZSv4YvlSVq2qZN3qYg5tX8rZfWtpu3oczd6ktzFUjftkxpBUVYmVadWa29q2eq8NAwZuCVPha9tFNEWYTKVi6d0omlJr3hkIutmH+c3pHTwS0dQrjGSb7qknFxH1zBXSuy65uy+p7u8jiZL7S/0UTdJYuFS6H40nqtgP+X3C8seoSiU1fqPQj4j8cUTkjSUiV2YhSSPiqRSvXUCzvVZf07qDyx1O1dBUxYj0qr/Eor0xjFrwNJUXimjgCu1aPVZViicdfCT45HTnYdr0bbpqAadX/7iLgPT6bndqz3W4yxdl26ynHLmvXy/wu/5A931db+sC9+tI+aIqGHAHfLzhlCYg3s2E3X05W5saiAjyZ250hBJCvf+TPF5vfIEE1nCwb/dWXn9lKmdPH1MBLBWsUjXo7s/m9qleh/v99M8mPuV2HCJeqn2gp4zWfVKw23FZ3ZVO6v3Fz6sn8TucLjfFBy3BO7HsZbvvDvTJZ5buUXbPdyTdpeS15XeRS71ptufz6H9mF3ang7YOs6uptf0l77VhwMAtYSp4basSTQnQlP3/7Z0JdFTndcdPmzZN0qRJ2qRL0pymiXOyNKlPmsRx0iY9aXNixzYYgdCOjW1w4i0lqbPYTlwvWmZGEpuJV+IAQrtG0gwGBNjGBoNNjImR2bFZZEBIQpp5y/e2mXn/nvu9Gc3oSWDMZiTfn85lxOwjvffX/b67eb00Rye300TJ0WJ3PiwrmlkjMfXf762MRglTdyP/9fK29mmyVv3JVXehV6NASPpElz0oSSxpwU4d2L0T+NVDL+OexXfitaFtiGMAijsES+6PekGohGzdlu0/OSyOGX3y6dQwmfZvw2qdK5q54plr/tv9T+6/zffYzN3prwQNzEu3fXvxhY34xle/glD5fWlvLPNesgLsWBqWL1uMxx9fCMOgyi4v9Sh73ww5rzv8VsZ6rycj576n+5C3CT0tiabl2NCEUOJCfM1/bjDMmISabtnojeHNQyCcHUMx3kXzVCa3A9oKML/1Fmw/uDbt8XiCMlI0PcHYd2wXQnXl2D3QDY0qkGSuqClFk+6XpOg9RY2Hx1ukhTNzwo+lF/K6dDf3zBAxrxX+GVjuk/tv81nmvcjO+9nuRs89vQ7f+sa/4T8u+yqq7v81nlkdwe4dtFXwEnZ2v4Jn1qzEgrkB1ITKceTNA15bOJkrmetBk53k9YanRZ4O6fuO9XPL5VS3nQZJ14VJoqmL12Ox2Ef85wbDjEmw+Zb1JJqhk4iml9x+4UTzQhh5oaG2QlTVzcDG15q8BiHUFzLleYvZiZJe9/UDffsxf1kNdh7ulgnTVGPudUL3Jk7SdVnB9AlGDhnZkFeP+M9IoaHXzB3oe04ZFjFPOKlxMaEpMaxob8XM0iJ8+7Kv4r+/ezmu/P53cfUV30N+3iTc+qObZGT/eK/XEi5hGXIrQHael+Mv3krh3g6nKZpnSUY0Vd2guso/858bDDMmweZb1w2LZnsmej3xRZM+V1V9KZqeDiLuHJLpSJTOIruk54zhpUFpWkLFtj0vozdGKUDkoVGXdG8mjyea2bk6pxLNjEYOX+3NpMhR0LFF8+3pRq4qjkHuzXJ2EZU+pl83aaP3yGF0rYxg6ZOP4bcLa/D4owsR6WjB7p3dsNPJ9tTbkyLYtI9LGQOU4pQZs3FuSL/BU3yMc0HW0zRa/ecFw5yUUMuPumipSsGVQIc3xCzTGk6Om5iIoikbFxci2FyGha0/xZuxbdLbpI7iUjTJk0qLJjVVln1BXSFTi6RXJQNF3viHk4vm6BN+tNeYI7DnTDRzn2sMhgXTmy+Uec8Jhz5bZn+VBJ/yTjP9PDPvIiHF0qFZRVRZJTsbnQ/RTHMBRNOwLVcT4qf+84JhTkqo5eauYBvtXU5GqD09mzy3jDLsdWufSKIprZ0S+mciUD8TW99og4sT6a5H1AiEGoJ488ulySU7pad4g8tS1ImetiOHRTMzzMx3ho8STb+QpcUtvZ+agb7Nlb5T64b/HqNFeKTlkr0+I6BePfvIoJTckpC13N6+beYx2SFuo6dhnhPOo2jS01JhgzANQ1XVL/nPC4Y5KaHm2Wu90b3XINB+DYKUaB7JydMM06TIiSealeECVHfORGV9Kdo2VkGkDsoUI0p2pwqhXNGUgikFMm30/fD/k0il9/RGicaYojmGnbVonpllvugzZL+8IJhnmWuoFV866CU/tfc4v2CO+vxny3kVzWEv8ykAf+o/LxjmpFS33LQuSIniHVefVDSrqbxxAopmsL0UVc1FeDQ6R3aap25KJJpWitrROXBcSoDOLMDlIny49C5rXsL1mKIxLkXTm/DkWeYa2tulS+/n4G0geO9qvIom5XvqppHUNK3Mf04wzCmpaZ61PtRGe5hXIdB5FUJyBpAnmlTCOC8tmn7RGf/mJdNTs5K5LTfg5QPt0HAcFn1RaV0qBZuqUNLC6Emn512RSHoC+haiNk5E862+cv9I5D7Deec8iSb9Dm0KABlGPB6Pf9Z/TjDMKalpnvV8dXiaFM3KyA8RiEwe9jRJNGkS5cQUzWkIduTJXp+BhgKs2LIQsRR1TyJP04WVgqxHp75JmSVp5gw+bVFj0Tw7zqNoWrYNVdNoeNOf+88JhjkltY23dFWHixHsvBpVkSsQiEyS88InavQ8mzQ/FUHKFqB+nw1T8WhkDg4MbZbTM003KUWTKvI8DzO30mcs4cmKyUQkV8QnApRhJQwrqfDSnDkTFoV/viTQVIZg5yRURX+AqsgkVEUmbp5mVjTJ06Qa9smobslDYGkJ1nf/HgIDsKjWh3ptStGknTwWzQnz+VzAthOurov9fX34oP98YJi35MlVFQ+U113nBqlxcPRKVEbfLaLpGSX1V7dORcWSfCzruhcn7H2yrpz2Mz1Pk0VzIokmpYsZwnI1TdznPxcY5rQIP//4baGGH7s0v7wyMhmV0cmoinqiSSMqLnTt+fm2rGAWItRWAspRrW7NQ21LEYJ1M/HygU6o7hEZEKIpPBRDpnLJU4kmpa8w4wPHSULXDMfk3pnMmbLh1ciVc5vmOIHWUlR25qEy6s33qYpMQ6CT2sIVI9ReNPFEk1rKtV6PYJjayuUh1JaPQH0J6tbehz5rJww5HpiSbUg0/dU+LJrjFdO0XaGaSwH8if9cYJjTYs/RrR97rP03Q6Hmm1DVUYQKGuW74pr0Ep2W5mVSOCeKaMo0IymcBQiFS6QnXRspRKB1KkKtxahpmoVtRyKwcDw9zI0ac+SKZiak61nmi7n4oQomQ5gxwzA+5T8PGOZt0fWHJUtqG29FoKUMwRVTfKI5A6H2kgkjmhmTnY5oTrs02tsk77MAVc0z0LChHP2JbhgyKEQjZb3Em4mxq/fuhGYzCSFcXTMe8R//DPO26T6+8TNPRO92gk3XI0jd1Wlfc1g0SyaUp5lr1KRYNiqmSzlyYzqCbTNQufwGbHq9BYZMdqdBbJ5s0hcz/pAepmFA07QeIcQn/cc/w7xtaH9n096mtQs6bkd5cz4CkWmoiniiIhsRn/bc8/FlGdHMGtWjl6C8rgS/X3MfjqrUP1OX4aBTRo9zV+zMRYfjONCFiCtCfNN/7DPMGTOY2HlVx9aaZGVzsSwx9ESTKoNoJg8NPCOhGXvGz3i10aI5HaHOQgRbS1HddAvWv9YCI9UrRz6waI5fHNuGruthbjTMnFOo08t+ZXNg8Zq7EwGa8CiDJCQiNE53iqygGWuS5Hg2v2B6okmNSopQVX8dHum8B3uOv4AENSiWzdLSTSmGGwenYdG8qDFNixpzlPiPeYY5a2iZvqt/S92ytVVuqPEWhFpv8CY8kqfZMSVnBO/E8Dj9ghnozEcgOtn7Q9FWjPJl16H5xVoct99AUnY7oij6GKMtMrXjLJoXFy5g2I6rCvMVRVH+xn+8M8w54SiOfmBn73PL69aG3MDyWahpmYmacClC1B4unO4M1E6iOf69zpOJZjAy2RuH0VSG2o5b8dLrq6S3mYBACqZs1OuJZlol2dO8KLGtBFRh9qmG8e/+45xhzimu2/P+XUefX1a3JuDObbwNoYabUNNyI+ZHbkJ1R2mOaI5vj3NM0Yxci2DkWlR35qO6oxgVLcWoW12OI/3dciSGCwMu1QpJ0UzDonnRQSlGumakVN24G8B7/Mc4w5xzgIPvOzC4ZVH7swvMefVzULH0ZoSaZyEYLkuLTt649zZHi+Y0BCJ5CEa8AXPVkTyEotNQU3cjomsfwUB8LyCj6SSaOWEhFs2LCtp3Nk3TFZqx5sQJ96/8xzbDnDfoL3R/bPucda80KvM6/8+9b9nNeLB5hhdd78xDRee0HJsqbTx5n2OKphTOKZ7HuWISQismo7axFAt/dweee2k57NRxOSc9szzP1Ah5/540vs5cQKSXqZtHhRCX+Y9phrkgHFOPfWnz4c37Fq+bj1DrHQi2Xy9zGklgKjqnoCIyCRXRK1ERvQJVndeOEqeL1UaLZq54TkUwmo/qyDTMoyT/uul4rOV27O1ZiySOw0nG0sGhTFf3zEAMdjffKZIuDUtLQRNmQlX1ewC8138sM8wFYwhDH94z2F2xtrvOXrz2blSHZyIYpv3NIgQ68hCQTYx/iCoZZR8tUBejjRbLXMtHMFKA6kiBzBxYuKIQNfXFWNpxF3r6N8HBcSRhwHFNJGRrD6pSp+EYnmyydF5YSDBNOwFh2paqieqhoaEP+49hhrngUHLwUPJQaffxNYeaNoTch9rnoLplFoIt16MmXCbTk6iW2y9OF6uNFsqRRqIZjExHzQoKCk1DbWsZ5tbNRvvTIfTGaVJCDDbistu7PdwTicZC8EL9QpJM0WTJBHmYlqqb81RV/Zj/2GWYd5S423PJcXP3ii37olrLs/PwaPtdWND0E9TUz5adg6o6RwvU6djplGr6mwj7zX9/v+Xe1y+SIwSzczqqOwvkEj20YjoCJKDhEtQ2X495y2cjumEu+vXtsNGLBBSYELDJ23S96ZSZaY3M+YV+yqaTgKobKV2YDfF4/KP+45VhLhoGRM833hzq3vLi7qfs8LpF7uNt9yDUMgOVbXkI0LC2ESI2tgc6SvTaC7J20vvTc1Np52jLJuCPHdkfWzTp+3QQKG1yRlIkX4pmIDodwadKUNlejEBLCWoaZ2B+/Ww8tfEhKZwOTsCEBot2N1MpuIkU3GQ66Z0G0shIO/ue5wvTdlxNWP2qYXzHf4wyzEUHTfMb0t+89PCJPfVb9z9ntW2qxSOrbsfc8E0INJUi2FaKqnApKlqKpFW2FUpBzIhfSFo+QmEySp4vQGVHASqHxZOuyyTVjy2YAbIOz0aKJkXyp8kORpnHU0u4YZNiOVIwSSzJqJwyFM2KZmBFIaoi3vsPtBUj0FyGmuYfI/ryw+iz98CBLhfoqUQScBI0WJvCuDRfwTOKtp/rueDvUjJ5CuTRJ1I0v9w0FWHez+lFzLiC9jv79L5LD8V3zuvuXTewfncDGp4NoLb5J3iw7npUNFyHYPN1csQEVRfVtOWjJpw3bKHwVIRyvNNK8gzbPe+UBC7rIY72Lkk0R4rlSMt9fK7X6RdMMimWaQtGyUg0pyEgL/NlelU5ZQ1EpuOBcCEC4VnoevVJnLD2w4KChGMAdsIbZSmHDJG3mfY46ZI5azKiaSdpH1NPxoX4nRDiE9Q/wX9cMsxFD9WvDxqDn+qzDv/qjRN/fGXznlV22wsPuY+tuhPzWmejunkGqpsLUdOSj5rWPNS0TkFt2xRPONu9xiBSBDvzho08SL9Q+s0vlLn5ouS9Uqd2stzlv5c2lVmijyWalHaUsTxpNEepPHoNHohcg4roFJk9EGy4EStfWoRj6jYkocF1UnBtSIMjO33IFbps9sGcNfRTTLouCWZC1dQuVVW/yFU/zISgx+15f9wcvKJX7F2z6/i6wfWvLUu1b67Bk6t+gUXtP8J82v9cOhXBhnzM76ToexGCtESXYkfC51UdeQ2CPfOW8aNtLE9yWBzbC72ZQLlGqVKdhWnLiqfs7JQ22tOkPE2qCsqIZyA6BZUrJuPB6DUoj06SQlvZWIB5DTOx+qV56Nf2ehVDlPiegDRamZPDyVmcZw/94XGSCeiGcFVNXR0zY//MgslMOOigHjKO/dOA03Nbj7Zjd3fP+tQLO5vQtfUhNDx9L55Y8XMsaL0docZZcuQG7RuWh6ejcnh5Tk2QPaN9T1rGSxveE6U9S88y+5ieaE5PGy2jfUbXRWifsgBVEa9/KBmNvvBsOkKRrMl9TbLIdFRG8lERnYryiFcVFaLhbA1FWNB0I1a9+BiOKNthYdDL3UwBCRcyg5NEM1NBxOJ5ZiQTFCnX3LgSf03TtC/zgDRmQkN7TpQSEjN7vzfk9Nzbb+965sDQi7FtB9emntnWiPCGR7C46zdYEL0dobabUdV0AyqaZiDQUopguBiBNhqGRp3kyevMQ2DY0nuXtMSWgZ9ssMfzOkl8KRqfaySUGSPBpG71ufubXnI7WSBaOGyVkUJUSJuO8ghVRNHy3xsHHGoowbyG2Wh9Loh9AxvS4zJ0mDLxnfq/Z+ejcyz99JFJCJTGlUrJOT9xRdkWj8cvoyCk/xhjmAkLeZ/Uhi5u9l2iuv2zlFRfw5vq/gM7+jZZfzjwlPvM9ia0rH8Yi6MBPNR2J2pbZyPQWCaXwoHW6TKlqbJ1KqraaCAaCWkBajqLUN1RiOoOuiySkyYp3zKz9M54kyMtVzxHWiBKgpk1uq4ySpaPyuhUVNKo4yhtIVB0n0S9BFUN0xFcXowlq+7G1oMRKDgEGwImUnLR7iW/Z73ObO06Mxa0d2naNu1fuqquxxRdb1IU49vchZ1510Ne6DH12McHzIHvnbCO/bpPvNl0JH7w+QODe3ZuO7Rh4JkdjYmu7Uvc1hdq8Ls19+CJNT/Hws5bEGq+HsGmGQg2laG6uQyh5jJUt5ShhkZWtJagmvYvO7wUJ3+k/K2MIucZG3FbJE829AjQnmZ0kmzSTMGmQFsh5naUoralDBVPFuGR8J14+Y0OxJ1eUEzIQoo6cY7yOlk0x4YE03JsWo4LRZUBn2upmTDvYTLMKaA9qwF34ENDdt+lffaxiqNi/879J16J7+h93tm8P5Jav6PeXf3KYrdtwzwsW/Mglq6+H09E7sGilp9hQdMdqKm/GTXNs1DbOhOBphJUNhahqrEYVc1FCLYUSwu1liDUVjTKqsPF0vzXh9oKEWzLl7PSgy1khQg2lyLUdB3mtdyIyiWlqK67EfPrb8Njrb9E16Y2HO7rg5VKSrF05B6nFxhi0RwDaryRSEKYlqsbZkzRtJ+yWDLMGULLMhLRmNn76X7j8Hf69UM3DZk9cweMAysPD3TvOtD/6ondPS9Z2/asT23ZudbduP0pPLOtAau3PoqOTfPR+GwV6tdVoG7dA1jadS+Wdv0aT668C09Ef4HHI/+Lh9vn4Lfhn0ij773//8/wdZ7dgd+234aHO26VlxTIWrL6Xvx+1X1YsuoB1D8dxPKuSrSvn4sVLyzCuk0d2LFvPxTThJ1yYZMopKPpLJo+6A+Kk6LWbq6qG3sUYU3qdd2/9B8HDMOcBeSNkpgCeB8JqqZpfxs3zUuE43xdsfQfxsy+mf3WwXuOqLvqD8W7dxyOd8cODr7q7Ovfktrbt9ml4Wm7j2/E7t7n8ceDq7H19afwyhsrse3AKmn0vd/+eGgldhztwmtHu7D7+Hrs638Ju49vcQ/Gu1OH1Z2pw/HXUj1D25N9+m5n0DimxIR4VTGsp0UisddKubadkpOGWDR9JBzqhWkkFUWsU4S4nH6n/t83wzAXENo7pRMxjvhHhRD/qFrqF4QT/5rqqN/VLeUqxRiaoViDP1PMwfsVcygQN4dq4+bQvLgRW5C2+XFzqEYxB8tVJ/ZLxT5xo2INXq0I5XLN1v4lbsYviZvxzyiW8rlBe/DLQ/bQpYqlfF5V1Y/HYrGP0GtqhlGsC3OjkySfytvX9AeHcm0iiepYn4mW4rqgpbiV0HTjDVXXH9I07Suu6/6F//fHMMy7lIGBgQ8JU9TYyYSVdD2v890kmpTsTzmsTtJ1hWknNGHuUnXrV5qm/Sv1wuToOMMwoyCPl7xOO+H05/bhlOXqE1Q0KSKekFU9KRiWA2E5BzVhzaHtFAAfoGAPJ6wzDHNSSCQ0zfy+YTrbLCeZdJIkKNS9J116KUequ7J8cLzWrsu3nTbTdqi7OjRhHdYN6y5Vtb7ouu77udkGwzCnjayUMs3PaEJUasI8ZFhOyk6kpHh6ounVXI9X0UwlUzLAQ6bqQlE1sSwuxNfJ02avkmGYM4b28eLx+GcVTdynGebLhmkNCtNxTMt2acLixSSaGRGXlnUkh03uWSaTsB2Zb5nShaHoQjwbU0VeX1/fB/2fnWEY5qygJWvMND+tqiJPVbVlhmH0WpaVTCQS7sXgddLrUy04Gc3oIa+YvGNp3n6lqwojGdfEibgqlqiq+p/Ud4CX4QzDnHdo35OGhQkh8oQQL9i2nUgkElKw3qkoUa5o2o6cAgndkGlDjm6YQ5ouNsU17XZVVb9AmQIslgzDXHBo/y8ej/+1ppn/JTQzaAhzq2GYMcOwEqZhu5bpwHFoGZ/uDJQzbSPXvIbIPhFMjzLyW+7jkgl32Oh1DGFB6Kar6QatvXcpuv5wXNNKFUV8UwjxyXSAh/csGYZ55yHvkzy4WMz8tKIY39J1Y4amiZDQjJWm4ey1zUTMNGzLNOyEadrJtKVM03Yty3EdmwIzKSmAdEn/H8vo/mlLGsJyDGGZhmHFTWH36Jq5WdeNhzXNKFAU5fPp/Mr3slfJMMy4gbw7Xdf/QQjxdUURkzRNKxVC3Kxpxs80zXxA141Fum626Lq5wTDMHULYB4SwenTdfFPXzcO6bryh68Y+IYwdum7+QdOMNZpmLqHHqqo+S1H0qxVFXK4o1ueoyikdAedGGgzDTCzS9flk76HyRGqCQYEZTdP+jko7DcP4FF2m7RO6rv897aOS95heZlNtPy+1GYZhGIZhGIZhGIZhGIZhGIZhGIZhGIZhGIZhGIZhGIZhGIZhGIZhGIZhGIZhGIZhGIZhGIZhGIZhGIZhGIZhGIZhGIZhGIZhGIZhGIZhGIZhGIZhGIZhGIZhGIZhGIZhGIZhGIZhGIZhGIZhGIZhGIZhGIZhGIZhGIZhGIZhGIZhGIZhGIZhGIZhGIZhGIZhGIZhGIZhGIZhGIZhGIZhGIZhmHeY/wefrp/7XGfXrwAAAABJRU5ErkJggg==;" vertex="1" parent="2MOlIIQ-UUBEkm-nTI54-17">
          <mxGeometry x="-11.879999999999995" y="20" width="161.88" height="140" as="geometry" />
        </mxCell>
        <mxCell id="2MOlIIQ-UUBEkm-nTI54-27" value="" style="image;aspect=fixed;html=1;points=[];align=center;fontSize=12;image=img/lib/azure2/integration/SQL_Data_Warehouses.svg;" vertex="1" parent="1">
          <mxGeometry x="501.80999999999995" y="210" width="77.78" height="79" as="geometry" />
        </mxCell>
        <mxCell id="2MOlIIQ-UUBEkm-nTI54-28" value="DW" style="text;html=1;align=center;verticalAlign=middle;whiteSpace=wrap;rounded=0;" vertex="1" parent="1">
          <mxGeometry x="510.70000000000005" y="289" width="60" height="30" as="geometry" />
        </mxCell>
        <mxCell id="2MOlIIQ-UUBEkm-nTI54-45" style="edgeStyle=orthogonalEdgeStyle;rounded=0;orthogonalLoop=1;jettySize=auto;html=1;exitX=0.5;exitY=0;exitDx=0;exitDy=0;entryX=0.5;entryY=1;entryDx=0;entryDy=0;" edge="1" parent="1" source="2MOlIIQ-UUBEkm-nTI54-30" target="2MOlIIQ-UUBEkm-nTI54-49">
          <mxGeometry relative="1" as="geometry">
            <mxPoint x="246" y="440" as="targetPoint" />
          </mxGeometry>
        </mxCell>
        <mxCell id="2MOlIIQ-UUBEkm-nTI54-30" value="Observatório SSP GO" style="swimlane;whiteSpace=wrap;html=1;" vertex="1" parent="1">
          <mxGeometry x="121" y="410" width="130" height="100" as="geometry" />
        </mxCell>
        <mxCell id="2MOlIIQ-UUBEkm-nTI54-54" value="" style="sketch=0;pointerEvents=1;shadow=0;dashed=0;html=1;strokeColor=none;fillColor=#505050;labelPosition=center;verticalLabelPosition=bottom;verticalAlign=top;outlineConnect=0;align=center;shape=mxgraph.office.users.call_center_agent;" vertex="1" parent="2MOlIIQ-UUBEkm-nTI54-30">
          <mxGeometry x="42" y="30" width="46" height="55" as="geometry" />
        </mxCell>
        <mxCell id="2MOlIIQ-UUBEkm-nTI54-33" style="edgeStyle=orthogonalEdgeStyle;rounded=0;orthogonalLoop=1;jettySize=auto;html=1;exitX=0.5;exitY=0;exitDx=0;exitDy=0;exitPerimeter=0;entryX=0.5;entryY=1;entryDx=0;entryDy=0;" edge="1" parent="1" source="2MOlIIQ-UUBEkm-nTI54-31" target="2MOlIIQ-UUBEkm-nTI54-30">
          <mxGeometry relative="1" as="geometry" />
        </mxCell>
        <mxCell id="2MOlIIQ-UUBEkm-nTI54-31" value="FAQ" style="html=1;whiteSpace=wrap;strokeColor=none;fillColor=#0079D6;labelPosition=center;verticalLabelPosition=middle;verticalAlign=top;align=center;fontSize=12;outlineConnect=0;spacingTop=-6;fontColor=#FFFFFF;sketch=0;shape=mxgraph.sitemap.faq;" vertex="1" parent="1">
          <mxGeometry x="126" y="630" width="120" height="70" as="geometry" />
        </mxCell>
        <mxCell id="2MOlIIQ-UUBEkm-nTI54-34" value="&lt;h1 style=&quot;margin-top: 0px;&quot;&gt;LAI&lt;/h1&gt;&lt;div&gt;Lei de Acesso a Informação&lt;/div&gt;" style="text;html=1;whiteSpace=wrap;overflow=hidden;rounded=0;" vertex="1" parent="1">
          <mxGeometry x="131" y="700" width="180" height="80" as="geometry" />
        </mxCell>
        <mxCell id="2MOlIIQ-UUBEkm-nTI54-50" value="" style="edgeStyle=orthogonalEdgeStyle;rounded=0;orthogonalLoop=1;jettySize=auto;html=1;" edge="1" parent="1" source="2MOlIIQ-UUBEkm-nTI54-27" target="2MOlIIQ-UUBEkm-nTI54-49">
          <mxGeometry relative="1" as="geometry">
            <mxPoint x="506" y="413" as="sourcePoint" />
            <mxPoint x="273.96000000000004" y="413.94117647058806" as="targetPoint" />
          </mxGeometry>
        </mxCell>
        <mxCell id="2MOlIIQ-UUBEkm-nTI54-49" value="" style="shape=image;verticalLabelPosition=bottom;labelBackgroundColor=default;verticalAlign=top;aspect=fixed;imageAspect=0;image=https://bmatix.be/wp-content/uploads/2023/10/qlicksense-power-bi-1680x1407.png;" vertex="1" parent="1">
          <mxGeometry x="221" y="215.25" width="174.92" height="146.5" as="geometry" />
        </mxCell>
        <mxCell id="2MOlIIQ-UUBEkm-nTI54-51" value="&lt;h1 style=&quot;margin-top: 0px;&quot;&gt;DashBoard&lt;/h1&gt;&lt;p&gt;Paineis Analiticos com as Bases Normalizadas.&lt;/p&gt;" style="text;html=1;whiteSpace=wrap;overflow=hidden;rounded=0;" vertex="1" parent="1">
          <mxGeometry x="80" y="199" width="180" height="120" as="geometry" />
        </mxCell>
        <mxCell id="2MOlIIQ-UUBEkm-nTI54-57" style="edgeStyle=orthogonalEdgeStyle;rounded=0;orthogonalLoop=1;jettySize=auto;html=1;entryX=0.142;entryY=0.048;entryDx=0;entryDy=0;entryPerimeter=0;" edge="1" parent="1" source="2MOlIIQ-UUBEkm-nTI54-16" target="2MOlIIQ-UUBEkm-nTI54-27">
          <mxGeometry relative="1" as="geometry" />
        </mxCell>
        <mxCell id="2MOlIIQ-UUBEkm-nTI54-37" value="" style="shape=image;html=1;verticalAlign=top;verticalLabelPosition=bottom;labelBackgroundColor=#ffffff;imageAspect=0;aspect=fixed;image=https://cdn2.iconfinder.com/data/icons/boxicons-logos/24/bxl-django-128.png" vertex="1" parent="1">
          <mxGeometry x="311" y="521" width="68" height="68" as="geometry" />
        </mxCell>
        <mxCell id="2MOlIIQ-UUBEkm-nTI54-29" value="" style="shape=image;html=1;verticalAlign=top;verticalLabelPosition=bottom;labelBackgroundColor=#ffffff;imageAspect=0;aspect=fixed;image=https://cdn4.iconfinder.com/data/icons/minicons-3/640/alert_box_with_text_white-128.png" vertex="1" parent="1">
          <mxGeometry x="331" y="536.75" width="127.5" height="127.5" as="geometry" />
        </mxCell>
        <mxCell id="2MOlIIQ-UUBEkm-nTI54-35" value="&lt;b&gt;Django Prompt&lt;/b&gt;" style="text;html=1;align=center;verticalAlign=middle;whiteSpace=wrap;rounded=0;" vertex="1" parent="1">
          <mxGeometry x="358.81" y="530" width="143" height="38" as="geometry" />
        </mxCell>
        <mxCell id="2MOlIIQ-UUBEkm-nTI54-65" value="LLM Framework" style="swimlane;whiteSpace=wrap;html=1;" vertex="1" parent="1">
          <mxGeometry x="666" y="390" width="410" height="265" as="geometry" />
        </mxCell>
        <mxCell id="2MOlIIQ-UUBEkm-nTI54-11" value="" style="sketch=0;points=[[0,0,0],[0.25,0,0],[0.5,0,0],[0.75,0,0],[1,0,0],[0,1,0],[0.25,1,0],[0.5,1,0],[0.75,1,0],[1,1,0],[0,0.25,0],[0,0.5,0],[0,0.75,0],[1,0.25,0],[1,0.5,0],[1,0.75,0]];outlineConnect=0;fontColor=#232F3E;fillColor=#01A88D;strokeColor=#ffffff;dashed=0;verticalLabelPosition=bottom;verticalAlign=top;align=center;html=1;fontSize=12;fontStyle=0;aspect=fixed;shape=mxgraph.aws4.resourceIcon;resIcon=mxgraph.aws4.augmented_ai;" vertex="1" parent="2MOlIIQ-UUBEkm-nTI54-65">
          <mxGeometry x="271" y="60" width="78" height="78" as="geometry" />
        </mxCell>
        <mxCell id="2MOlIIQ-UUBEkm-nTI54-38" value="Agente" style="text;html=1;align=center;verticalAlign=middle;whiteSpace=wrap;rounded=0;" vertex="1" parent="2MOlIIQ-UUBEkm-nTI54-65">
          <mxGeometry x="280" y="130" width="60" height="30" as="geometry" />
        </mxCell>
        <mxCell id="2MOlIIQ-UUBEkm-nTI54-22" value="" style="shape=image;verticalLabelPosition=bottom;labelBackgroundColor=default;verticalAlign=top;aspect=fixed;imageAspect=0;image=data:image/png,iVBORw0KGgoAAAANSUhEUgAAARAAAAE4CAYAAACT9axOAAAAAXNSR0IArs4c6QAAAARnQU1BAACxjwv8YQUAAAAJcEhZcwAADsMAAA7DAcdvqGQAAE6kSURBVHhe7Z0HlBzF0cexwWDjANhYBJFB5JzBZESWESAywiAwmCByDiKDSUZkk8xHjgYEFsKYIKIkMFmABCJnECJKIDAw3/v1Uau+mp606Xbn6v9evb3bnenp6an+T3d1VfVUkcFgMFSJqfQXBoPBkBdGIAaDoWoYgRgMhqphBGIwGKqGEYjBYKgaRiAthh9++CH6/vvv3acG3xvyIdR+hvrDCKSF8d133zmxzlA7rA0bAyOQFsOXX34ZjR49OvrnP/8ZXXDBBU4uvvjiaNiwYdG7774bffPNN/oUQwCTJk2Knn/+edeOf//73107/uMf/4j+/e9/R6+99lr07bff6lMMVcAIpAvhvxVfeOGF6LTTTotWXnnl6Ne//nU07bTTRj/96U8rMt1000WzzDJLtNlmm7mO8P7773cqqzvDb8fnnnsuOv7446PVV189mmGGGaLpp58++tnPfhZNPfXUTn7+859HM888c7T55ptHN9xwQ6d2pBwRQz4YgXQRfvi+Q0m//vrr6I477ohWW201p+hTTTVVpkAuO+64Y/TYY4/pYrstPv/88+j222+P/vCHP0TTTDNNrM1C8qtf/SraYYcdorFjx1bKMQIpBiOQZgK99HTziy++iM4444xo7rnnrij1T37yk8qoQys8vyHy/7LLLhvdeOON/hW6JT7++OPo2GOPjeadd97ENkNkFKKPgXSGDh1aIQ6zO+WHEUgz4REI9ow99tgj9rb0FT4kWvl/85vfROecc063VfgPPvgg2mmnnVJHb2ntJzLHHHNEl1xySfS///2v01Smu7ZrXhiBdAE+/fTTaL/99nN2Da3ImjC0+MfJ38zpr7jiCjcd6k748MMPo4EDB6YSg25T/Zvflj169IiuuuqqynK5EUg2jECaDJRz8ODBbv6tFVkre5ro8xZYYIHo2muvLb3Cy/2xWnXkkUc6g7NuCy267bT4U8aFFlooevjhh0vfjvWCEUiTccstt7jhslbyvMouos9DFltsseipp57SlywVpGMzbWOVRbdBSHTbJYkcv/baa0cvvfSSvrQhACOQJuKNN95wy4tawWtRdi1/+tOfnHG2jBDyYKm2V69elfbSbaBFt12acDyG1oMOOqjTVMYQhhFIEyCKiEMTS7BawatVdl/pRWb67UzR3XffXblu2dzfcQA7etDRsftOE91eaSLnMCXEoc+QDiOQJuHVV1+NFllkkYpCayUPKXvS91p0GRtuuKFb5QFlI5B77703mnPOOWP3nFd024WE47CJ7LXXXm5VxpAMI5AmAL+CM888s6KcoU6vFZy/WaWZccYZK74LWtH9Y0Xp+cSweNFFF5Vm6C338cknn0S77bZbavv57Sh/s8Qr9hLddknCsXPNNVf00EMPlaYdGwEjkCYgj+3DV275f7vttnNEEDpXK7xW/k033TR6++23dVXaDnReCBjcf//9nZzu0kTIFD8b7EL4eCy33HKx45LaUr4/7LDDLG4mBUYgTQCxK7/97W9jihsSUeA+ffpEL7/0sjv/kUceiVZYYYXgcSHhd/ENKcvbExLZfffdg56kScKxAwYMqEzn7rzzzqDxVbef3460+8hRI3V1DD/CCKTBwF+hX79+ThlD7ukhWWKJJaIRI0Z0Kod4md///vexY3UH8L/faqutookTJ3Yqp11BsOHss88eu/eQSDusscYasVEYkc147+rjtchvTH8INygLEdcbRiANBk5J+GdoJU8SSOb000+PeZXy/y677BJU8tB3yPzzz1+agLvzzz/fRdLq9kqSX/7yl8ER2FtvveWINan9Qu24zTbbuHgbQxxGIA0GIfq/+MUvKoqqFV0LnpDvvPOOLsbhvvvuc05oWsmTFJ/5P3N/3YnaDayE6E4fEsiXY5i6rLfees7VPQSc+fzldE0eui1p87IQcb1hBNJATJ482b29fEXVSi+KzycdftCgQbEOL/+TJOfwww/PZQeQaxGuPn78eHd+uy7p/ve//3XEqu8xSWabbbbouuuuq7Qbn4jcP6s5EEzoeWjyEGHqo5+LwQikoXj66aejpZdeOqaMWoQQevbs6aY8GtIBwD333JNrJUI6wcILLxw9/vjjlXLaEaxEabtFmvgrUNJ2PoEApolpwYz6+1133dURj6EzjEAaCObgSUFzIdlyyy0rGbJ8ZfcJhNEEo4qQkocEIyARprIU2i7wR115fT8QRnGMFsQBzCcQvx1Z2Vp88cVj52sCkb+xY2HINXSGEUiDgO/AAQcc0GlOnSQoKB2dvJ06lFwrPoCYSNWnlT9J/vKXv1SmMe0Cud+RI0dGq666aqyD6/aTzwUXXDB69tlnK2WEBLA6tv3221fOyyofAy4rYf5zMBiBNAxvvvlmZflWK6QWjiH2AiMp0AovIuRCsmCmJpookgRfhnaN67jssstcLti0dpTf+MTvQ6Yauv18AgG+gVtEly3lYqc66aSTSrMsXi8YgTQITzzxRLTiiivGOrNWTlFQ5u2vvPJK5Xyt9L7yk5mdeBdddpLgxk028nYEOT/EyCyrLFqkXflkudcniTQQdKjtSbpsKRfZeeedK8u57WqQrjeMQBqEW2+9Neh9mqScBx98cGXLBk0amkDAkUccmWs1BsEucN555+XuWK0Cphlbb711J5IIidwn9iaMzLqtkkA6xJVWWqlTW+my/fLJmI8fCchTfneAEUiDgD3DV74kBeU7iODCCy+sKKUmDS2AZMq/+93vYuWHhDc3buDtZkglqY+/iqXbTrcjZEDUM8jTwSFsltn956TL9X9jtFL2hE1FYQTSAOD/ccQRR3RSviQF5Tvm+P/61790ManApiHpAfLIWmutFX311Ve6mNwgngSDJhtcYcRlqnDWWWdFJ598srMNYE8gSxhxP4y+HnjgAbeBUy1gpYRo5FC76TZESK5cZOMtpiHHHHNMpQxdri6f50Q8TR5y6i4wAmkAPvroIxcBqjtxSEn5bskllyycQo99UEi9p8tPEkLTJ0yY4M7N6gAQIHulsPHSIYcc4paXWQmZb775XJBemks5Hp7YXPDeXH755Z1tZ88993QjsqefetrVOy8goqzO7f9+3LHHZd6bBjvXiVeqLtcvH4HMuI+i1ygzjEDqCFEs3rzrr79+rHOFlJTvevfuHYt9yQLLxCzPZmU4EyFHyIsvvujODXWAzz77zPk5kDUNt/FFF100aMPRwvTL72RJwmoHkbDcKzvHPfroo5lLy+eee26svUJC+dT1yiuvDN5bGkiPmJUrxL+HQw89NPrft5ZkSGAEUkeI8tJRl1lmmVgn0iLKyXKvb9/IC6YNebKSI4wamH5oYEjke8gI0iji8Yn4HSyv4MNCoN+2227rpjzObqFunakIuTh0Zw4JZeLqzqpK0TZktBiKcg5dA7JkJYYRmqEDRiANAC7saZnXtWDgLKr44KabbopmnXXWWHkhYSXm8ssvr1wHmwYeqqxyiJ1BxO80WZL3ODlWH0+9SJjEaOO5Z5+rEAl75zAN1B05JJRDGfjHCPK2JyOvkE9N6BoIexMbgUyBEUgdIUpLPEteF3Y8UNmWsZoRCNOAIvlBMXi+8fobzrax0UYbxWJBpKOIv4U+Xx8bEn1cSJKOw12cGBWmgBDcH//4x9ix+nryO8dmTYlCwLC87rrrZl5Hvl9zzTWde72hA0YgDcBdd90V83BMEobzvH2LkgcYN26c82DVZSYJe8CybJk0atGdKE10B9MdrVqhPTbZZJPohBNOCAYiJl2PqYUf/5IX2JIwEuu66+vI7xiGxRhtMAJpCG6++ebUlQpfsDlcffXVuohcIG8IpKDL1ILyM6oIOZ6FOkke0ecVPT9LGB0huszQ9fgk7kiIowiB4BtDsJ7OFqevI9ciWxw5bg0dMAJpAC699NLY9CBJGA0U9QERYABlTq7L1KI7t+4YrSS67lpCx7MSdeKJJxYiDh/kWNGbnIeuyd+sJD3zzDO6iG4LI5AGgHDyvARCDhDcr6sBcRk4T2V1PN3pWll03bWEjsfeVIurPtOlIgSCkdzQASOQBgACyeufgYMXxlBQtAPglLXvvvtmdjzd6aoRXWZe8QPgkoLhilwndDzObUwDi7afAI9ajNn6Wvqa/A2BmDv7FBiBNABk0MpLIBhBn3zySV1ELhBsluQy74vudHlFlyOCLQW3bupOUp6lllrKudUTK5KWp8QvU1+rWqEssrXjtVotgfC89IhRX0euBYFU+7zKCCOQBiDPHrgiOFQR+l8NWILEq1OUO0l0R8gSfS4rSpDEn//85+ivf/2re9vffvvtburFkjVbUBD7giMXQX5nn312tP/++ztXe0YHobbQ16xWKItRHCtf1RIIz0sIRJevr2UE0hlGIA1AEQLhLS5z6qIdAAKhQ+sVBC26I2jRxyN0KDxT8QYdOnSoc3MvsnzJ6IhlZnaTw7cDF/Ykr1ldnyLC+fPMM4/Ld1K0/QQYvbPiYeRaRiCdYQTSABQhEEYgZB0H33/3fSGHMjwi2XO3FgLR5xIwN3DgQDeaKEIYWYDsGGkdd/xxLuxeL3PreuUVqTPZ3PK2m4b/vHT5+lpGIJ1hBNIAFLGB8PZkA2eAI1QRAuF4okPTVhAQ3RF0p0DoGHvvvbebkui9YPGVyJuBS+qPcI4+79tvvnUjE0ZOJOiRuut65RWpu97Jrwh8I6ouP3QtI5ApMAJpAIou45JjAuQlDgEEQm6OtBUERHcE6QwIBlG8U//zn/8EI4KL1kkj6Xy+Z+p21FFHxbas1HVNE46vNWM6+Uw04evryLVI2mzLuFNgBNIAEKSWl0BwJMPwWA2Ywpx66qmxaYiWUEdA8GKlrkVydBRFEoH4YPpBhnQ/EljXOUk4llEcBJjnWhqcc9BBB8W8dPV15FrYhciVYuiAEUgDwJKib9XXHdoXVin+7//+r9PUhWF/ns5AEuY8SYWkc0hdsD/suOOOnVZ/ikydiiCpTP09G0ER7OePRnQHDgnHMQLDlb1INjIB0zM2jdLPSV9Hfic+h4z7hg4YgTQAvFHz7ofLcYMHD87VgfmdUQc2ClY5mLsnrWz4HQECkVEKm07T2XCDB3nJqhng3tjLVzKlh5IV6U4tv5PVjRUf2oatF4iYzZMDFtIhH0ve62AAJgWAoQNGIHWEGAzJHTrTTDPFOrNWUPmbWAzpxCg9Yemvv/6683hkaE5wHr4VZMMiPSDBX4wgWMHR5WrxlZ/pEi7fvq1DDLetBFaAdLZ0fT+6Y/PJ/je0De79e+yxh8t3ygrL0H8NdYZqNpxipEOuEQGE429clXQd+Z7Q/1pyy5YNRiB1hBAIRrasMHtfKTfffHOXQBhlZz6OUZOpCQSRlRbALydNevTo4bJ/6VWRVkXSjnT6/7z3TwZ7RinkQSFREZuYDxkyxE3jcETTx4cIhE8SMIWMzd0VRiANwMsvv5wZZu8rJyMD5tbaN6JegnGSgDG9PNvqwDlMEiZpotCduxqBOMhWHzJ4hwgEWwtL3ZJ3xGAE0hCQTatv374xpUxSUP2bPk5/V0SwfTCqkR3V2g3slyOGVb8t8rafPl5/nyQhAiHOp5a0AWWEEUgDwBybJMVpCquVM/S9/7v+Lo9wHtsqkHioXTFp4iRny8jjpxGSpOP189ASOp5pEHv1GoFMgRFIA4AhlCmDKF5IYbVyhr6vRSgLQ644qbUz2DOHXKT1bCf9PLSEjseOdO+99xqBeDACqSP8pVg2LErbV0UrZ+j7akTKwUWcmJY8S5ntgNtuu62yf0s92ylJQseyMsTqmGEKjEDqCD/2g2VDvBZFGdMUtN5C+cstt1ynbQ7aHfhrsHQdctvX919vkeuwj001md/LDCOQOkJGH2PGjIm2224757SVtEWCVtJ6CWWz9MsUqmhwXqsDn5jQfju6Deotch2uTRAgjmqGDhiB1AG+b8X777/vDJfi+SnelFoZtZJqkWP0+fp3LXzPLm2QWNnA2x8/DLnPNPHbIyS63bJEzsPzlyRO8syFoMtE1EVgBFIHiOIQEcoGR2lKmvZb6LiiwrlHH3102/l85AXJjdJsS2lSpP1DIufycsARTTxajUAMNYMIzR122KEy8tDKp5VQf69/F2E6wtCZnKMrrriic1BDMOhhY8EZivyk7O8622yzOS9WguzKCkYhLOuSRIj7xgmPlAi0D67sbHG52mqrRaussorzPCVSN7Tfr273PMKzledLexP8J7vUGYEYqgbRmezPokPCQ8qa9p0IHWL99dd3Xo/nnHOOi+7F1R0PV3w6EEhi1KhRbpn2mmuucTvTs/Lz4YcfujqVWZnptMOHD3e5Wd193/xPlwiJaRtTSIT2IdMbe+7gjEYcUZ8+fRzx6PbWRJFHOA+/EEYi1UQBlwVGIDUCJaWza6VMUlD/O/8YfDaI0yB/KCs49UwnaOgAEcxkEyMJU//+/d3Izs+lokkiTfzz8PR977339OW6BYxAagDRsuutt15FkfKOQHzlY1OkDTfcMLr++utjUw8dap9nVJHnmDJB7vf7H753Pi8ylZD8skmAoMkqj68MU6HQs0oT//kSwwSJdEfSNwIpAH+eSz4NhsRamUKSpHxs1MwUhRBzje5smKsFfrvlaT9ye+Ckxobevo+JPCf97PQzFMHJ7ZRTToldO+v67Q4jkAKQpbsvvvjCxbpoJUoSrXQY4A4++OBOIw5JXKyVr+wKWG/otktrvx++n/IbwYakU2AJXD+3kOjnyyfGWuxRsgKWdf0ywAikIMgFccYZZzgnMU0USeIr3LLLLhtdd911nRSLv/3htxZD46DbF5sWBnEJ3kvajlM/X/lu4YUX7hQvo8svG4xACoId2MRFPY/4ysU2kGTbCsWnaNIwAmkedDuTuWyH/jt0Ioo8BCLfs5z/0UcfVcouM4xACuCtt97qZDQtImussYZTTIcf4oqlScMIpHmQdvY9isd/ND7aa6+9Ovn1+GThP1tNIPjuHHvssS6UQBvCywYjkDz4scOzC5xWnjwC6cjuc4b2Aasq++yzj1sp08/UF00gCL48+KaUmTyAEUhO4KRUZOoiQlTso48+6soouzKVCfKsMHSTQzXtxeETiH/cLrvsUvoEzEYgOcDGS6yapClRSHBUGjZsmCtDD5ENrQ2f7CERfHX8aYz/nDWByO+kYtQG87LBCCQHcIf2nY3yCMojG0YZ2h9kb2c0WYRAEKavr776qiujjLpgBJIB4hwGDBiQmNcjSTDA4TptKA8uv/zyoD1Ekwci+kKIAttpQB6h1bd2hxFIBrBfzDvvvBVF0coTEt5UuLkbygWczXbeeeeYHmjy8AmE39lAHAIp43YQRiAJkOEm20BqhUkT3KEJ1irjcNXQMZXRxnRNHiLyO8GWRAiDsumFEUgKCI3P2iBKC9nDu2NQVXcBhnD2hvEJQhOHJhGmPTgQlo08gBFICsjDkbXHrS9sPHTVVVe5c1EWEUO5gEMgiYp45kmu7ppEjjvuuFJmiTMCSQDr90WXbsnn4Q9VjUDKBXmejEKOOOKISvoGTRhaOIZsabIaUyYYgSTgxRdfjDbYYIMYSSQJyXYvuugid65PHkYg5QHEIYZQkj4ROMezzxqFcAyRuuz1WzZ9MAJJAKkCyTGqiSJJyFH6+OOPu3PLpiSGOFii33777SsEoUlDEwiff/vb30qX/tAIxIN0fN40pBaUh59HDjzwQBfq75djKDdwFCQvah4CQbbccsvSRekagXgQV/NPJnwS7brLrp0UQxOGL+QGIZGMoXuBae4SSyyRSSCiP6RzIDE2MAIpIeShYuwqsnyLEqFMhu4FDO39+vWrEIQmDU0gTInLtpxrBOJBUtxhy5h55pljROGLKAXSb4t+pXRTNiRDSODcc8/NtRrD7xhSzz777FIFVRqBBHD77be7TNuaNEIEwudhhx1mKy7dFGSo8+NjNHH4BIKXMrayMvmDGIEEwEZEkhMzS9hmkWS8Rh7dC/K8yVInhtS05VzRF/b2nTx5si6ubWEEEgC7jU0zzTQxsggJWbyZ1zYCXUVKXXXdeqEZo0E/Q//SSy/tdEGTRohA2Hpz4sSJuri2hRGIAopHGjt/86c0wf9DLOv1BAraKnYVhtxvvPGG215zyJAhLknOZZddFl1wwQXR4MGDo7POOsvN7c877zwXSMgWm5AqEcnsnxOCdPJ6dvQ8ZdXrmlIGS/dbbLFF5p7IQiJEastSbhlgBKKAow9ZtTVRaBGF6d27d2WX9kYARWWY/Nhjj0XPPPOMCylvBrjO/fffH51x+hnRnnvuGf3xj390W1KwmTdDdhIH6534+B9DIcmUFlxwQbfJ9VZbbeVCAi6++GK3rWQzcqQwRWAljTy0zz//fOz51JNAIFdyv4jNTJOGJhBGK6GNxNoVRiAKKB8OP5owtIhC0LG+/qrDgaye4M2G6zNktuKKKzq3acLIWV7eeaed3d4jtVjzQ9nC6dyUywiMqGICxjRJVCsEGi6yyCIuXoho1hdeeCGWH0PXpyggiksuuSTadNNNHdnRZvheMG1gc22uKW1W67UElMP96ERDmjxEX6gTpFYWGIEoQCC8NXUHSBLcmes91Rjz4hi38x072OnriZBi8eijj06cIuQFHYC3NdOPtdZaKzH6WHcG3THSjtNlYV9iJLPjjjtGN998s0ubUCsYbfDc0ozfEBibguEoCOpFIqeddlpuAunVq1epkk0ZgSgUJRAydteTQJgf45wU6ggoISMCUUbe6ocffnjFqp/WIUK/YbshTd/aa6/tytLX0v8nSZHj/OP5G8LaZpttXN7Zzz79TFcxl83ipZdeciNBbYfw6yXCqhkdPqvMIihCIEztnn76aV1E28IIRKEogbAs5xNIHoWPwTuczbaLTBuwR/AWB/7euj743p/u8De5Tsg0rokjJLoj1Ev8a8w666wuXaDfuaTeck/+fcnf/L7vvvtWCFdfQ18HmXvuuStbbdQDjGryEgirdtiCgL6ndoQRiEJRAuHNN2nSJHduUgfOghzP9gGs6uhraNFKyV6uuFWHOpoG0xWS2yRNVUKS1BHziO5EWvRq1zLLLBNdeeWV0WefdYxG9J7BGmPHjo169OiRei2/LvI3dh6266gV1ImpJEblrPvm+8UWW6xiA0m6p3aCEYgCqzDbbrttrCNoEYVYZ511KnN4X9nzgmPlTcubLM+IQNeBuf1zzz3XqUypiz+6YSWH6VHWxuC64/lCh2eEhFfldNNNVxFWIfjEvqFJIats/qdMGXlBCCTsEfuOtJEG35MBTnx2dIcNXUtkgQUWiO67775CzyoEDMF77LFHbMqp6yD1WGqppdyLAhTVlVaEEYgCisqyXJLiaWFdn+VVQCxNtUrxzjvvRH369ImVn0cI0rrrrrs6lQeB+J0OI6Psa5Il+t4hixlnnNGtBmHzwe6CDwgRyEyFmELh+4F/CDkvcNfGNwKDIUP7NELxr8lxcizXZAXKX7bWIzzukT1opb66w2rR1zzllFNqditn5McoVE879bXl+oywmrUU3wwYgQTAshwKrBUuJPPPP7+LnQGi3NUQCE5avJ10+XkkRCBSB96QV19ztXvj6vPSBH8OlH3vvfeObrzxxmjcuHFuyP/N5G8y74+OzkiOZVVWHCAblsZpKz3UFwl1NoTOWUnUpAi6VgLp379/zatYLH1LZrI894PBukzbXRqBBMDKBMNxrRQh4Q1L8iFR6moJhOE0UxFdfh7Bsi+GOY2rr746mm/++WLnJAlRyExzcPwa9/K4mt/QAELBr4U0gCeccEK0xhprZE47dKcbPXp0R2HMyn6Mmqad2bTJj4aVc3RZukwEUnv33Xc7V7YgsCkxOsu6vnzPqKoebdoqMAIJ4J577qlY1fMMv3ffffdOo49qCGT48OHOwKbLThJ/OZcOFjIIsjs8b319bpLgpIYBMzTErva+NBgRkTsFQ64eFelO53e8zTffPJjNi6lZ6FnpcnR5CCto1Y5ApA5Dhw4NRm6Hrsvo68gjjwzac9oVRiABYNNg/i6KoJVDC29UWTWotqPxhpUkRnmuKccwUuKtrq/J6kTepEgsaxLLQryLRq3EKIid/0PHJk377bdfp+mi7ng+KbBcK+0sYAUMQ7ZuM12O35FFWIkhGK4acC9MoUjloMsNXZ/vWHIv237JRiABvPnmm4UysuNViQ1DUI2CYDOgM0mnCSllSIitYJ8SIEP7Tz75JBo4cGDm6IlpBIbRO+64o+LLoglDSy0Inc/ICUesOeaYI1Y/EbkPpleMkHQ5BPbp1SvdgXW74uWL0VeXVQRsIEYsVOhZha7JPZI/pJ5t2tUwAvEgD5Nwa+nMWjFCwnSCN7icX1Qp5HimHDga6fKThE6AC7rMqaWca6+9tuIGn3YPDOFHjBgRq0uaNALYR+jMxK3oOorIfay66qqx9JFMuZhG+veqyUM6s/xOCAJBirWAl4bsm6zFv658t/zyy0evv/66O7fRbdosGIF48B8mQVl6bT9NmKP7ylEE4geC0JGIc9Hla+FtTCIjnZzm/ffezzV1wZjH0rHAX+FIk0YCI6vedzYkBx5wYGV7BKkTxlCihvPkcaF9mD755xcFzwoHsiQd0QTCJ+4BEhmsl6TbFUYgCRg5cmQhoyYd+qabbnLn1mokoxyWL9msSl8HRaReDOVl5OG70uOHkdaJOJ/Nnpmm+dBEEZKiqOa8YcOGOZuMrrcv/I5TnAZTt4MOOigxny3n0YkrU76CdQNyDo57jIb8EYYvmkAgGl4OPnFU0z6tBiOQBGCd32677WKKkSYMo0OrIdWAJVQMbtgyIBNWWhjlYMVnxUbAyEEIhFUKImp1vXzBZkLIvjv3R+XVCh2SalHNueeff77zQ9F19zvk8ccfH9ykCSMrHZVo5o033tjZKPAsPuaYY9yKCSRTC+R+mLIm+bT4dZX6Ql4ShatJpJ1hBJIAHiyBbVmGSF9wwSaqtKMAXWJ1YIrCVIPpEaSWpnC4dc8wwwwxBZZ74De235QRUlpZIbz22mvO7+Lkk0+Obrjhhso+wIDVDJa/8YnBLoNfSsgwmwapF8P83XbbLfHtjqy88soV3xAp1y8fZ6333nvPrSyNHz++8n0tkPJJCMToQ9fJF00gpC6Q6YvfHllt0uowAkkBQU9FjJoIo4VmZN3SoAP7nc5XYPmOEYy/3FwEL455MVpllVUqPg/E09CJSWHIykLfvn1dgJ7EyeDchjG32s6Cf0eSgRJh1QVX+iJl1gukcEwjN7/95W8c+nRbFG2TVoQRSAJ4sDg9FYnMRRh6iy2kmSAMXqYvElPiKzFzcOJVqlFYbC1MAUKdBoMvDmEhuwu2lqL+MXIMKzNMQ0LXlHs84IADap6SFAVZzfLGFIng6l6JlzIC6R6Q4TdvDjFm+p0yJKIwhOT70bHNAPXs2bNnTHlFWN3QuUHzYuKkic6WoMvUojs7835Z7agG2Cy0f4d/LXKujhkzxh3bjI6IjWnXXXeN3WeacCxEF7LXlAFGIBmg05F4R5TBJwtNIL5icc6oUaN0cQ0DIwQdESrC9yhxtatD2GF22mmnxI4Tun+EN7WErlcDbD+QhL6eXJMYlAcffNAd22gCgQAw3EqMlL7XJMG3hTqWYbQRghFIDmA49AOm0ghEfmO0go2AILlGA2IgajZJqVktuP7662tSYAykkrhHi753BDsIfhLVkhZgCqkdxHxh2oQxt5b7ygPqgUGdrGn+Pev6aKF+ELe4yze6nl0BI5AcwGOR/BZaQXxl0h1IhCzk4nPRKAXCXoCVP3R9hDyg1abwo86QAFM6wvLTXM5FmHYQt1KPZMmkVgjtPcv/dFBWlRrVrgJynmRlPdPCsSyZYwwuM4xAcoK5fJKDk1Yc+Y5PlB8lxxDZKEXH9R7XbP/6vpAmQJynagUdgqRCsp2jFgILb7vttoqHLG/vWu4bb1s9+pP7hEDwGK6l/CRImbjJY0iXa2qiCAnHYbQmJUIj6tZKMALJCd7ADMnzKJLuVKwmTPh4gi6ybpj4ZTqBkBjo+dH124uEERUjK30dwupJbCSdRkYvtYBAOT9/q9/GjRyBSJn4s7B8re9VP3P97NlXpx4jsFaHEUge/KifZOVaZ+11UhUo1InZtgCnpkaBkHYC4/R1RZh21LIaooFxE89YaQe5DqtVxLOAavLDhkCkrr9E7LcxdiZsE7VeIwQhPrx2Q0F++pn77UB0NlnqGlGvVoMRSAbcW/S7Kbu4kXtDr3aEFMlXKLYraOR+qCh7mucmzl9MK2pVaDkfx7FQvhQ6NN6wQhy1EgjnYkvxCcNvY1ZE5Hr1hpRJTNQKK6wQa1P9zBHx+J1vvvmCsTplhBFIDogy4cq9bu91Ezuqr1ii7HwS4KajZuuNo446KrVexNDUq6PhcyIu81og2Hql7MNVHme0JAKhDqwO1eu+QoD4iYlKa1ufRKSepIPQW3eWEUYgBYDbdlauVK1M2B/EC7GR8I2NISGEndWaeoDVmKQORYYu2SenVjAdYgWJcuXt7l8XD89Gr3JATkQ+hyKjRfznLZ9455ZpD9wkGIHkBAFZGMa0EmvxlQmlI0FzI9+QgocefCjVxRpfEDbrrgewCzDP19cQo2athlPAKIbtI3TH9D9Zuq41KXIeQIhMQ5MCK/1nLsI0d9CgQU159l0JI5AcQJmHDBmSywvRV3CWO5sVq+EH02mFlr/Zwa4exlwMpJdeeqmzDcw+++wuHoagw/33378u5QNGH6FgOrkXCJE6+LlQGgmM0Enbbvht7rc9hE7sTJlhBJID7ObOMqlWnJCI8swzzzwulqOZwO8gFDsidWI5lE5Xj7cib2W8bMlZgtx5552V8P5ayycAL8koLN81Y/riQ/ag8ffg9eukhe+ZUvqpLssII5AcGH7/8FwemCIM5dmdrdGGU4EoKB6zJEnW9fGFMHuyfjUStXQY7DQYhIUIQx2Vvw855JC62VrygrgeprGa2DR5+L8TEyWjslrapVVhBJIAGRrzibJmGU99YYmzq5bx2F83a1c93t71IJF6dwgIge0m9U73Wog6bmagooD7vfDCC2OpCzR5+ATCroHs7Me59bANtRqMQBIgDxtvQoLitBKnCXk3id6sdwfLA3ZKY+VH1wnxFZtjmGLVsuTK/dXrHol6xmlMVl3ShM2suyo8nvQBZFfX7arF//3ggw+uWzu1GoxAEiAPnDe1H4WZJSQU6srwba7Jyo9OLBxSbFZSWOmAdHQZjaq7y/7+4/41AnK8kiWeLGd+XUN1hsxJntRVwKnwpBNPCtYtqZ2Z9oQ27SoDjEAyQJbvpOW7kOD41CzbRxKYCkAMoQ6p64uQ35M8pqwYNGuYTRvh5cn00A/M0+Th15lgRjbBahS55QXTJ9l3R0uo7jpGqEwwAkkBw+RNNtkkpiRaRFH4xOu0FRSFNx4pCPy6aQLxv8NnhTflSSed5N7wjfKihNzwHmUPF6ZRmpz9zuf/hg3q1FNPbbrh1Ic8VzLvswG537ah+vvtSx7VVtCLesMIJAW8kZdccslYZ9Mi3+MT0RXGPR++khLCT3pFXc80YdSCvwM715OBi6Aw2oGwdlIbskrC6IGs53Rm5KtJX7n/EX5H+Jvk0tiQ8KHA/Z2VKaJ4iRXR19VCXf2YI/axrdeWGfUA2efFWK0JQwvHYLch7ULZYASSAqzn4sKcRiAidDp/q4OugLZfPP74424UpVcO8go2HVY9cM3G/sBG1mSeJ0cq6QbXWnOtaJONN3HRufzPbwijGUYYrEjhaJYUO5Ml+K5AHs1yyMsL7Day8ZgmDC0cg+FV25rKACOQFLCkmEUavrBfir8XSquAvWTJSSIkwtRATx1E8hBls4QRHeH6XU3KITCy6tOnT6ytNHnI7ziVkRWulfSiHjACSQDekOTj1EqdJKx6EDIP9CigFcAbnIjcIg5xXSlMvdgeo1lG3aLg+ZLvNCu1gxAI0x2CMZvlet8sGIEkgLc2KypasZNk9dVXb0rUbTUQMuPz/vvvd0FoWdGl+rtmCSstuIyPHTtW30bLAUJIWi7XBMInkcqy6VirvWCqhRFIAh5++OFgJqokYduDCRMal7awVvgKy2iE+JV1113X2Rj0dEb/32jh7YxPyoABA1zEcFc5iRUFy9CEBvj3osnDJ2My07E9KdC+MO0KI5AE4KWp3y5pwtul1d8qempFgiS2h2SkJT4jzRSG//hTEDhHYN74j6bsYdvqbQkgA+2lrMnDJxD8bSRDf1lgBJIAksjkfRNzHEl2Wl3pqV8oSzqpAFitwZWcFRRGXnjfpu0+X43gUIUNhqVxplHsVYO/Si3u9F0JlrPJReuThCYPn0RYyWqHqVkRGIEkYPDgwZUHr5VBKwZLnewd0g7QoxAfGCwhExzJrrvuOrcKhf8CQ29WHJjyFJENNtgg2nTTTV1eFDx6CW1nZMfIBz+RdgfEx33l1ROmaeInJM8h6Vm0C4xAAqAjsaFRXsWYc845K9nIWx3VKC0OUCyl0vGLCOkFWO7kTZ10zWrq0ypgRQXP47x6QmQuNh6533a+d4ERSAC8hXFeyqsYDMnLMDQtg0I3E7TVtddem8sjld+J+cEjt0xtbAQSAKsUGPay5rWiGCTxYa8UQ/fDsDuHVWxFWje0npCqgH2WjUBKDnJTFCEQMp43ct8XQ+tBlmFJ3SAJkLRuaD0xAukmYHmOvUCEQHwJKQYGw66MEjV0HcjLihE9pBtaT3DeIwjPCKSkkAeLwZCVB00eISXhOyJMW9Xl2tBYjB49uhIoqHVD6wkEQkoCI5CSg+lI//79Y+QRUhK+IxK1lULNDc0Dy7I6Yjsk/M5IhZy1RiAlB0ZUoleTSEMrBjaQ7rATuyGOBx94MJj5TQu/E5HLDoK2jFtSyMMkEhcHKnnwWhm0YrDB0ttvv62LM3QD3HbrbW7z8jx6wjIuAXhGICWFPEwcpwjVzksgJJbpDvugGjoDfYEQ8vqBEFt18003tz1p+DACCQAPQ3aZz0sgxHcQJm/oXsBwjlHU3/g7Sfid+CLfE7UMMALxgELIwyVLeV4CwQ/ghhtu0MUZSg5eNEWmusTCNHM7zmbACCQBuCjLbnS8YbRC+IqBnHnmmaV6sxiyQUAgS/haJ0KCjiyyyCJue8wywQgkAWwWTZBc1ptFlIOd6csQYWrID1IRyF7EWie0fiDkXXn33Xd1MW0NI5AEjBo5KlpxhWzlEAVhE+WXXnrJnVsG67ohHTxfUhMwLcnSESEQXAM+/eTTyvllgBFIAni79NuyX+Xhi2jlEAVhrxMxpBqBdA+QLyVvIB3Z1zC4TvyyY2+YsuiHEUgCyMvJpsj+GyRJUfiepbyLL75YF2MoKUiOzH6+WhdCgn5ANG5bTvYGLtELxggkBRCCrPFnEQhCAJ5F5ZYbEvPEHi/s4Cc6kaUfjFDZKVDKKAuJGIGkgMzsYkjNUhCELQlGjByhizGUBH6nZ9Vt+umn76QbafrRt2/fysulTIGXRiApIC8IcS5pCuL/xmhl8NmDS/FmMcQhz5XpC9uY6ucf0g85hn2GW3HXwlphBJIAech77bVXRQm0YoRIhDT/xNIYyot7773XJQfS5BHSEb7Dn4gVm7JMW3wYgWSADbZFWbRyaOEY9p/lHEM5Qb7cPffcM/biCBGIfIevSNkcyARGIBnA8Yd9WrVyJAnHsbdKK24IbagdLNX37NkzRhxpBDJw4EC3BUTZRh/ACCQHjjjiiIpbuyYMXySoivBu9pURY5kMXcuoQN0JH3/8cWXpVhNHEoHMPvvs0S233FLa528EkgMjRoyI5p133piChEQUaemll3ZLfcAIpP3By+Ccc86pbHeaRCJaF/r161fqZFNGIDkwfvz4aPfdd68oCXYOTRxaoTiGtxVvLVCmpbvuiMceeyxacqklY4ShxdcFUhiee+65ldWXMsIIJCcYTcjbJyk6N6RMgwYNir7++mtXho1A2gc+4bPDHoFwoWesxdcFtvZ87733OpVbNhiBZEA6Pa7te++9d0U5NHkkKRe7z5MrpMxvoTJCNvzGF2jfffdNfL5a5DiczG666abSvzSMQHJAlOD+4fc7b9OQ0qSRCG8i3mJSVtmVqgyQZ3TXXXdV7F9FZJNNNumYvpb8URuBFMDkrydHhx56aGW1RSSLQEimiyIa2guMGo855pjY884SUhfedtttHSRkBGLwMW7cuGizzTbrRBZZBMJwlhSJNvJoL7C9R/8d+yc+15Cw3O/bvcoOI5AqcNlll1X2Q0V8AtHC7+wbgl+IEUh7gSnI1ltvXYhAlllmmeipp57SRZUWRiAFwbD2r3/9a2UzoTwEAtn4+4EY2gOMIsgiVoRAFlpoIRcr012etRFIDvhLeqTlX3DBBTspjSYNTSC9evWKHn/88U5lGlobsmp24YUXVsL29bPVIvqw8cYbV4zmZYcRSAb8VROW9NgzV7+RtCL5v/M3mc0sQre9IATy4osvRmuttVbs+YZEnjl75YrNq+yrbkYgBfDQQw+5FRWfPLIIhNGHuLQb2hO4sOcdhcizX3311aMJEybookoHI5CcwJHM33A7i0AQ3NlPPPHEilOSob0gIwdiWfDl0c83SdAJAirZW6jMow9gBJITY8eOjaU3TCIQ+X7NNdesbPVgaC/oqcf1118fzTLLLMHnrUWeP1nLePGUGUYgOcAI4qqrrqrswq4lpEAce/rpp5f+DVRWaPsFAZVbbLFF5fnqZ66FY0i6/PTTT+uiSwUjkBz44IMP3NtEE0eIQOQ7lO3tt9/WRRnaGNjA5p9//tTn7+sBxlSW/PVopkwwAskBlmBJy68VJ6RA/M9Q9+abb3bnWhh/+0M6/+TJk3PvFSTH8CL5eHxHSocykogRSA7geRpafdEKJP/37t3bDXmBReG2P/yOP3z48GiGGWZIJQ5fF1ZYYYXoiSeeiJVTFhiBZAAC+POf/xxNO+20MeIIEQiBVyeddJIRR0nBdHajjTaKEYYW0Q0Scl999dWlJA9gBJKBSZMmuTV9TRpJBEIWqu4UC9Ht8EMUnXXWWZVnnpRcyieRI4880giku2L06NHRYostFiONJAJZdNFFXRSnobxgj9ukEWmIQP70pz9FX331lS6mFDACycDtt98e9ejRo6IcWmH873kbsT+uOY6VG+xxu/DCC8f0IIlAcIV/8803dTGlgBFIBnBj9rd00ArjC56np512WmmHq4YOMMLcfPPNg/oQIhBW8MSQWjYYgWTggP0PqChDSGF8wXmMTFSG8uOAA6boRRKByO/oxd13313KF4sRSAaIvs1DHshss80WjRo1ShdhKCFOP+30oE6ECATBL8gIpBuiT58+uQmEPVDHjBmjizCUENdcc43LuK91QESTyCWXXGIE0t3AEu4666wTU44kIRN3WY1lhs4gSbZOLOWLJpBTTz3VCKS7gY21V1tttZhyJAnTHRyNDOXHI4884rYv1TogogmE/ZXL6FxoBJKC1157LVp22WVjypEk+++/f/T555/rYgwlBP5BvFySpraaQNCNMi7vG4GkAHvG4osvHlOOkKAoeBwScGUoP8jzwvQ2L4HssccebkpcNhiBpIBcDkkOQ1pQlOOOO66UbxlDHCRNlpgYrQshAtlpp51K6aFsBJICwvhJ06+VI0nI/WDh+90DJNj2Ewxp0QSy7bbbViK0ywQjkBQYgRiSgLGcJf4iBPLRRx/pYtoeRiApeO6556IlllgiphxJ4k9hyrhkZ5iCV199NVp//fVjBOITh08gAwYMKOXWHkYgKXjllVei5ZdfPkYUSYLbu6zCGIGUGy+88IJLmp2XQPbZZ59SRuQagaQAQ9lKK64UI4okGbDzgFIOUw1xjBw5svJyScsJIgRy6KGHltLAbgSSAoachGJrokgS5sTdZUvD7o6hQ4dWEixrwtDCMWSpK+Oo1AgkBTzwvn37xogiSRZZZBGXK8JQfhDbQtb1LAIR3bBYmG6KnXfeOUYUScL2h8OGDdNFGEoGiADXdCEITRohArnllluMQLojBg0aFE099dSpiuKTyOGHH15KRTFMwfvvv5/ohRrSDRIrP/DAA6XUCyOQDLC/6UwzzeQUIclY5ivQyiuvXEqXZcMUQAYkz9bkoQlEvmNrh7JucWoEkgEyrEvYtq8UmkTktxlnnDF6+eWXdTGGEkBGENgz9ItD64X/3dZbbx1NnDhRF1cKGIFkAJdldmbXipIkZOu2rGTlxsknnxwjiTTBwdCRT/lmMEYgeUAymJ49e7qpjAjzWi18P++88zovRUP5ICOQK664ovK8tfi6gJAOguRDZbR/ACOQHMABiJHIhAkTMoXjyqoshg6gD/q5J8kXX3xRykRCAiMQg8FQNYxADAZD1TACMRgMVcMIxGAwVA0jEIPBUDWMQAwGQ9UwAjEYDFXDCMRgMFQNIxCDwVA1jEAMBkPVMAIxGAxVwwjEYDBUDSMQg8FQNYxADAZD1TACMRgMVcMIxGAwVA0jEIPBUDWMQAwGQ9UwAjEYDFXDCMRgMFQNIxCDwVA1jEAMBkPVMAIxGAxVwwjEYDBUDSMQg8FQNYxADAZD1TACMRgMVcMIxGAwVA0jEIPBUDWMQAwGQ9UwAjEYDFXDCMRgMFQNIxCDwVA12oZAfvjhBycGg6F10DYEAoxADIbWQlsRiMFgaC10GYGEpiRffPFFNHr06Oi6666Ljj322GiXXXaJttlmm2jjjTd2stlmm0VbbbVVtPfee0fnnHNOdOedd0bjxo2LJk+e3Kmc6If6j1Yo76uvvoo++eSTXDJp0qTUOhQt7+uvv9ZFGAxdji4jEMGHH34Y3XjjjdHuu+8eLbbYYtEvf/nL6Cc/+Uk01VRTZco000wT/frXv47WWWed6NRTT40effRRXXxdcfTRR0e/+93vMuW3v/1tdOSRR6YSCBg0aFDl+Cz529/+llmewdBsdBmBvPXWW9Hxxx8fLbXUUjFiEPnpT3/qyESLPk5k+umnj3r37h1df/318VFJlfBHSvvuu2/q9X0ZOHBg5dykjl+kPEZkSeUYDF2FphCIr/gMxy+44IJo7rnnjnUSXzRpaPLQ3+vfVl999ehf//pXrB5pHToI79ADDjggd4ffb7/9KtdJuu6BBx4Yu4eQUN4JJ5wQO99g6Go0hUAEjzzySLTqKqvGOltIdCfyO1Pa7/4xv/jFL6I99tgj+uCDD9z1kzpyKqokEEYX9SSQE088MXa+wdDVaBiBfP/9950UnlEHc3nd0ZJEdyJNDvp7LX5Za665ZjRq1KhKXQp1RCMQgyERDSOQ7777rvL3cccdF+tgWaI7UVHR5c0yyyzRPffc4+oT6syJMAIxGBLRMAIRoPi6c+UR3YmSJOlYXR4y++yzdyKRXKiSQOptAzECMbQi6kogWsFZWmUlRXeuLKHTpJ039dRTJ3Zk3fl0R4REnnziyU51TurgHQdM+bNaAkmCEIg+NyQnnXRSZnkGQ7NRVwJx+FHH77333ujnP/+5U/68naQeoklDEwiy8sorRx999JGr5//+97+KvSbYQY1ADIZE1JVARMFZ9cApDMUXXw7dIdJkhhlmiNZff303bMcrFY/Tu+66yy3L/v3vf3cdeZlllommnXba2LmaNLTIcazOSH0bMQLZf//9w+V5MAIxtDvqSiCCfffbN9YB8gjTi8MOOyx67rnnom+++UYX2wm4ig8fPty5uv/sZz9z52uyCIlcC/L597//XSnPCMRgKI66E8iIR0dE0003XawDZMmmm24avfDCC7q4XMDzdL755quUpUkjRCDIGmusEX3++eeuDCMQg6E46kogLN1uu+22TuGzOob/+z777BNNnDhRF1cIY8eOjVZZZZVK2Umi63HJJZe488tMIJyHnSeEd999N3r++eejJ554wsUSPfTQQ9GDDz4Y/fe//41ef/11F+AYgrRXYrsloMixIYTOf+edd6Knn37aOSo+8MAD7j5ee+01fVjwXB+hNnr//fejZ599Nnr44Ycr8swzz1RePI1C2jOjr7zxxhuuXtwrdeK5jRw50j1L4suSUM0zS0NdCERudMSIEZVguDxCx9hhhx2cIRPUelNjxoyJ5p13Xleu3zH1dRFZ5Vl11VUrka7BB1YCAvGB8fjmm2929dtggw2ixRdf3E0dcfLj2WH4ZgQ544wzRr169XIG5y233NLZoyAWn1BoL98AnVU/OQblJ3iSyOok2Xrrrd3nTTfdFCx3woQJzjmRCO1FF100+v3vf+88j5ma/upXv4oWWGCBaL311nM+SOhFEYwfP96V3bdvX9c++BDRLiI9evSIVlpppWj77bePbrjhBhdVXW/49/zVpK/ctP7MM890bYLOLrjggtGss8zq4r/kmRFYOttss0VLLrmke7Z77bWXG50Td+ZDO3nWgroQiOCQQw5xyq47a0g4DkPoe+++584Ndt4CkPP/+c9/uihdv/Ppa/udFvuJbwuJoSQE8uwzz7ro34UWWsgtg+vy8wiKusQSSzgyefXVVytl5yUQAaMFOrsuPyTYxPxyec6XXXZZxUifR4h4JpIaYkjDp59+Gp188snRPPPMEysjSXgRMfIlojzv/efFxx9/HP3jH/+I1l13XUcO+tp5BP2addZZo7/85S9upFLvOtZOID/WhyA5P0BOd1jdcWn4q6++uqOIOt/UnnvuGWvEkMjvNK7UIdYR2pxAGGrTCXmL6jLTrp3UViLzzz+/eyN+++237jo/fJ885NZgChCqT0h8B7rPPvvMPVu/PvK3v9qXVGcCLF9++WVXVoX0vu8om8612mqrdTpelxcq0xdeoBj3q4XffrwIl1122dg10iSrfpD2Tjvt5KY+9ULtBPIjhg4d2sn5SyugfgAbbrhh3ULuNTDG+gqq66DrwzCVuS4oE4E89dRTLleKlFFk5KHbSbeZyEYbbeRsEEXACCQvgch9oytMa/T1i8qKK67oplA+7r///mjOOeesHKOvof/X4v++3XbbZa4gpoEp4sEHH9zpWSW1fbXCvV5zzTWF9SmEuhEIsR9+JbXSIT7BcAONRL9+/VLr4j8Qpjz4mYCyEAidAtuGnF+EPBDdTlr8YxnCv/LKK5VrZ9WzCIEwpaC8Y485tnLdanyLEDkHu8nkrzteXq++9mplyuLnnwmdlySc50+bmSpmtUEIjLBYhJDr8Sle16F61SLU+bzzzquqnj7qQiAMvTBY+RXUCocIgWAA0oadegMHtFCn0XWSh0LGryDakECYIkinyFu+Ft1GWvTxa621lrMhgKypTJEpDKkrn3zySedcqH8rKlJv9HDYsGGuPXfcccfK9/oeQ6LLlPN8UsOgeffdd8dfRgmQ45hKF6lLmug6hoQpzZAhQ3LXM4S6EAgGNSz2ulFDwm/Mw6qtcF6wPInxSDearo/UqX///mHFbzMCwRbFXJ9ziihTSHQ76TbTwv3kqWMeApFrEE/FakLadfMKnVxeKkyHHnzgwYpxUt9fkugyQ+fyXZ8+fSr2oTwYPHhwpW66vCTR9fDro79LkkUWWcT1FZDn2WnUhUBYg9ZWdX2zvjB0ajRoDJzTdIPpusj3f/jDH8KJi9uMQMhcJmXqe0wTlkFZ2WBlDKViSVd+0+XpMmVkyWoH05Ms5CEQkeWXXz74IqhWpK6/+c1v3HInf3M/dF5/iu1L0n2HfpdjGIXkaQvw0ksvVWwwuiwt/nVZrmZVbemll3b3whKurluS+OXlidtKQl0I5NZbb3WV8eeQIZGGxZ+gGTj00ENjdQgJ9UJJWTaLodUJxMtAj/PUXHPNFTs3SZi3YyvC14JOzZto/EfjnVEUByVy1kIscqw+PyR62TWEIgQSEvQMPxU6zEwzzRSMiapWeB6QC+0488wzu07q/6aPl++1PiFpaSj977GZ6DJCIuVCGmeccYZ7Rjj74dtD/Bk7GlxxxRXOJiXHp/VJKQ+fmbfffrtT/fKiLgTCPJWKaIOPFo5hyBjyEmwE8BfQddAibx0UJehw1OoE4uGss87q1NZpgjMUDmV+4qcQMMYKKeUplzdhlpdmLQTCqg/2LToO0zU6Dn48u+22W6dRUzWC89W1114bvfnmm86gSfl4dpLQOs03ROuUtBPTGHGSjOHHR0nnlzAMXYYuD2GrE1kxTMJnn35Wsafk6ZMIupClXyHUhUB4U1EJfwioKyqV5UHwYJoBonj9RkqrF05STMViaBMCYelQbB9ZAonffvvtughXvlzDvxadKm89eXs/8+wzXqlxVEMg6BYrMml2BXwnZMRUVBgFpC2/Ms3AoSvUDlqf5Bj8OCRtRBIuvfTSYJl+2fI3o8VvJk+pozyvkF7Qx8TZTtdNC8f425CEyktCXQiEqQKVyEMgbOOQ9YaqF+67777YSoyuk9SLYTCEE0MbEAjf48CEIRhbDr4OuHezjAtZ6DbAVyGprBDee+89ZxfRdQoJU50ht3VY9pNQDYEkZXjTHejiiy9OtGUkSZZRX4zr+BfNMccc7hz/uWl9kt9wthPHNQ0pE09TUlcQMkCHZ7TH9AwXdb+OEPPrr73uzkm6dw1IgbqkTWOkroQrVBNSUhcCwUpOJZKcX/yKoty1eOsVAd6Felir6yT1ou7YAmJoAwL5/rspq0e0LW8flskZfhNgRRrHW265Jbryyiud9+iLL77Y6fwscF12BtR1CgkEkuWkVJRAmBbJqFV3Ht2RMISLcTSPMHXFdgCCq3ASO/Kjx+oRRxzRSW8QrU/yG/fIEnQe4ECGDYpp9GOPPeZ0l/w36OS5557rYm7kHkP3HQLu9VnkIXXl+YpjZ1qZGnUhEBhcGjKrUWHaRgQfhcDDY2XAVxhdJ6kXnxigYmgDAmkU/OvlJRAUFqJKq2tRAiEgLq08jWOOOSazXWWUsvnmm1fIIQ/o2Hp0oPVJrs10iijnekKTh24X/7vbbrstNhrT9ZS6YltKm8IloS4EQnYv/YB0JaWiWIibNQIhOpihX5568XnVVVfpItqOQEJKVSsg4p49e8bqFBLup54EwtQSQy5IK9MHI6CsdpXfsd/lLRewWpH3pQSB5BmBaELQknVcCIwmBgwYEGsHXU8hmC4lEHFj9yurKyq/NXMKw3Jx1hRGhnhE5YYMi6UgEP7NPrUTPv/scxdLwwqb2D/y1JVj6kkg2HAk0VRamT4Y7uepK3L++efnLhew1M/yrl+G1im5dr0JJAsQACEFjDxYAQq1ga5nSxDI4YcfnllRuRnc2JOS1NQb//nPf3KlO+R33nQcH0ObEUgesJLBM8BOAknccccdbsmbyNddd93VKR9ErztKHuF+6kkgjCD9CNo8wG6Qt13JsZu3XBAikCThOJnCFCUDDeww2HdYXsaGhas8uT4geF7gTMXYQE3y4SSJ1n1ppy4lEPwP8laU4R9W/WYAfwFdh5BQL0YqQc/BkhAIb3HW+lmuRNnI64ETFved10ksj3A/9SYQllBBWpk+ihDIhRdemLtc0EwCIX8JBnD6F4m3SDeA8xxtgue3tm/4kvSb1n1ppy4lEOacuqKhSvM3BiiszM3A6aefHlMk3XjyO50p6KDTZgTirySwcnH55Ze76NO8NgwR6hWy4OvjtHCMEUiH5CUQ/RvpJEnzSViBXoLPkqznpJ+nHNulBAJLpr3F/IrSIEFjZZ3BAyHSMqkuugGZ5wfzsrYRgfi/4/yFz40uJ6/oNvLbKk04xgikQ/ISiOCF519whk+9yhOSpGcS+i70uz6/SwmEdfS0gCd9U/iNZDVmrcBQG3J+0o0n9WKZMujl2EYEAvB8xN3ZL5e/ZTShy00S3T7ynT5OC8cYgXRIEQLBnqGTGun29yXp99B3od/1+V1KIAyVMbrpyoYqzf8cK4bUtEatBaNGjYpFCOu6+HXCQShYlzYiEDx8dV4WRN9v3muK8EbEOzLPeRxjBNIhaQTi/82IvGgof577Y9rKzMA/Vpchv3UpgQBxJguJX1nehMSd4GYOijy8IiA/ZaiRQ42H8AYIoo0I5LBDDwuWp+85dIwvPB+UnyRBGF2JEcKOknWeXMsIpEPyEAi/y+hdP6Mk0ddBWEWUFAU777yzW8rF/iWrkCK6LCmvywhEGiLNeSdUYZaeGgXC0f2NprLqQnxDUsxCuxAII66kubN/v9o6z7CZ5T+UjmA13oZ4W7JS5uesJX4mT105xgikQ9IIBHz55ZcuZ43UVeumFikXUlhuueVcUqSBAwe6eyAimcRevh0PBzz9vHWZUm6XEYgAn4KkSMhQhVnOLRqTkRennHJKrNHT6oLfQ2JYe5sQCIF0SWXp+0XY1wQfiDFjx+RSHLYQTSpfX8sIpEOyCIQN6PUqi9ZP/z5wqtt7770dMeSJaCc4VBNI6Dr836UEQsPQAdn0RldUV9ZvEPwRqql0GsjlkJaZKVQPQqoT0QYE8uYbb7qkMPocEX2/1O3TTzryl+aFn+w3TTjGCKRD0giEv3HA1PXUfUV+Jw0Gjo5F6tpWBAKYd2lG1ZX1K80nvhpSRpHGCYGVF+bqUrauh18XaVg897I2HBIU6fDNJJBhdw6LzXV98ducpDlJ5aQh75YKHGME0iFpBPL1V1+7vZl1v9BCOewaKEmai4CdBtqCQARk5WZullZZXXGybeMhWSu4+VBMjhb/2kiRYKoiHb6ZBOJ73OrzEPkNksFYnFROEmjbtddeO1ZuSLiOEUiHpBEILul58qDyOy4GSakG0sDGbW1FIICQeF1p3ShSaTkOEiFPRTWNBDCask+pXC/N58G/Pg+Q1Hh5UaTDN5NA2CA8rRz5jTl0NV7A+Pnk7TRcywikQ9IIhL19GVlwnO4bvo4i1fpN4f6e1A76Oi1DIFSCXeeSKqvFJ5stttginFYwATwEWJa4jjzXksaSz8S9YBJQpMM3k0DIwqXvUwtlsNTH7vV54F/roIMOcmXoF0NIOM4IpEOyCCRUjn5mCPle9flZ4Lo6Ej3tOi1BIHKDLAP6GwFpZdbi3xjOXxAQthHKIWkuTmcseeEoRdYmjEOkUdTTJV1uSORYli6DnqcpKNLhW5FAkLPPPjuxnBDYgCktTEEL1zIC6ZA0AmEVJWTsDz039Fw27coDRuTrrL1Oahvoa7QEgQCZhqDwocqGRI7RbzjIhOzhrDCQBoDNu/GI9NP4SxkYb7MyUEv5LDeT6g8UUZ4iHb6ZBEIyYb8dk4Tf2RJg7Nixuogg6IgShJe3nhxnBNIhaQTCy9AfOYvoZyb34W8yngYSHpFjlfOkP+hr6Ovwf8sQiNwkRMIcTFc2S/SN5hFdRpLI8RdddJGudi4U6fDNJBDSEEiWLH3PWjhm4YUXdsF2jOp0mTgiYSdh3s0ePrpMXS8tHGME0iFpBILbg2QMyxLKYhTIIgFuCnrkTDJkYqBIjkQybY7XZaQJx7cUgUhDER7fu3fvSoPqiodEP4Q8ossIiRxHvsxqjbVFOnwzCQSPUVkl0fetRUZh/L344os7/w7qSl3YS4QIXj+GSMdSZAnHGoF0SBqBADKy+7oZEl0m7UZnxwOVTPUIjpB+uga9y54uUwvHtAyBCKSxsGH4JBISfUP1FrkO5KEfYhEU6fDNJBDA3qpSFp+yEqVFl5smUg5/M+2TEUmacI4RSIdkEQgrgJJBLOmZSVl6ep8k/gokdkhdV12+HNtyBOKDuApx8AqJvqF6iZSPNRqjrDxA/SDzokiHbzaBoNh++oKQMua9FuIfT2cndZ5WxpBwjhFIh2QRCAjtZVz0eSWdw0KDH2sTOlZ+a2kCAcy3aSx/dSbtpopIqLNI2WzWw/4agqQHmQdFOnyzCITvZEpGYieMzhyv20O3S5b4x15wwQXO8OrvE5sknGcE0iF5CIR+waqj1Lea5xU6B49jVnpwjfDL0cfKby1PIAKWZqlsViPkFchD5nzSGAgpCunEGJ3qhSIdvlkEAnzlZEXG33Ygb/kIbajnzkcffbQr+/HHH0+M9vWFc4xAOiQPgQBcE2TlhPN8O1We+9DHsaWm7D+9ySabxPqMFs5pGwIBxKywCsAeMTqGQ99cHvHPZ5mX3CQofL1RpMN3FYEARiK1pDNEaEeimmV0w07w5AnRx4WkUQSSF+1GIIBVFFJw+vUO6XeWQBivvTpl83rc4HV/0cJ5bUUgAtLUE2FILgqmGnkNRVpw0SY8/bDDDoueffZZfZm6gQ208j7Q3XffPVVhQJHyjjrqqMTyRDn933Emwmjcq1evWFlpAnFs2ndTN1L0wf9560p0c6iu8h17peQxyIrk9VsRpOWm0YLxOVTXJHz4wYe5Hes4jjwtQD+fEFjaJRSEIDvf1ymPkEjovPPOc33KB0mh8rQFGd/9/C950aUE4gNDK29O3MsZQXBDc805l5uKQBAIbyPeXKx1k7qPzNW8QXAKa+ReM/Lw2UOFTYvyCMdmKQ3HsH9plvBGZVuGtLKSgKWfDrXPwH2iNVZfI5pl1lmcHQqiwKbBdAeSwchNPBIZwUMgYpm66PvUwhTqjTfe0Kc7SP3xqmQTL32fIbn11ludnaAI2ISautBuaUL5bMRUBHRQos4pX9dVy5AhQ9yIJUTwaaAjDx8+3I0AGVHgSMlzkmfGJ/2AETzLuVyL1U6Bfy1GjrpeWrgXrpeYEycFLUMgPhg2s38uiobi0gl40HjZ8R0KpZ1pGgkeRjW+I2kKk/ZbPeA2hFbXoE0/nvCxa89x48a5Nzu+OnhFprVn3e6drwJf1xOyw3wjELynnChCID6YVhC5CxHx3Hhm2PUwkOo9puWZi75Wc72iaEkCaUVUqwBJqGdZ9USRjaaLwt1z44p3kHaV55Uk1cDvmFnSXdByBNJdH0R3QDOfp9ajeulUPcooE4xADE1DM5+n1qN66VQ9yigTWo5ADAZD+8AIxGAwVA0jEIPBUDWMQAwGQ9UwAjEYDFXDCMRgMFQNIxCDwVA1/h+UtYKMXDKV2wAAAABJRU5ErkJggg==;" vertex="1" parent="2MOlIIQ-UUBEkm-nTI54-65">
          <mxGeometry x="322.82" y="165" width="87.18" height="100" as="geometry" />
        </mxCell>
        <mxCell id="2MOlIIQ-UUBEkm-nTI54-72" value="" style="sketch=0;points=[[0,0,0],[0.25,0,0],[0.5,0,0],[0.75,0,0],[1,0,0],[0,1,0],[0.25,1,0],[0.5,1,0],[0.75,1,0],[1,1,0],[0,0.25,0],[0,0.5,0],[0,0.75,0],[1,0.25,0],[1,0.5,0],[1,0.75,0]];outlineConnect=0;fontColor=#232F3E;fillColor=#01A88D;strokeColor=#ffffff;dashed=0;verticalLabelPosition=bottom;verticalAlign=top;align=center;html=1;fontSize=12;fontStyle=0;aspect=fixed;shape=mxgraph.aws4.resourceIcon;resIcon=mxgraph.aws4.augmented_ai;" vertex="1" parent="2MOlIIQ-UUBEkm-nTI54-65">
          <mxGeometry x="85" y="60" width="78" height="78" as="geometry" />
        </mxCell>
        <mxCell id="2MOlIIQ-UUBEkm-nTI54-61" value="" style="shape=image;verticalLabelPosition=bottom;labelBackgroundColor=default;verticalAlign=top;aspect=fixed;imageAspect=0;image=data:image/png,iVBORw0KGgoAAAANSUhEUgAAAMgAAABCCAYAAAASc5kgAAAAAXNSR0IArs4c6QAAAARnQU1BAACxjwv8YQUAAAAJcEhZcwAADsMAAA7DAcdvqGQAABSUSURBVHhe7ZwJWFTV+8fPMMMybAPMDDAswzayDG5puYCJoojbv1Vtce1npvZv0bTUMKnM3RRRURQXKrMsK1xKf2q4RVGalSCzMuyKLAICIsPc9/e8d2ZwZoDfv9Ln+Sudz/PMg3POe8+9597zved933NGQigUCoVCoVAoFAqFQqFQKBQKhUKhUCgUCoVCoVAoFAqFQqFQKBQKhUKhUCgUCoVCoVAoFAqFQqFQKBQKpdsQX3LYf2DxFxkJRd/8MbX8+LqMqgI3WxsK5Z+HatNRcmUNkPw1QAo+BJK/FsjllWCn3AKBqj1tW+vy59geQqF0bxSpIUSZaiCKFJCp9sLLFdmwteZ3yLiRDyl1l2H+1XMgVmcA1hPlFiCKVP0LZSeu2TZDoXQ/UBwFG8FFsRnmXzsLVa1NwDDMlwBgZ2mmaW2Y835lLuOo3g5EmQI81Vb4uDbvV0sbCqV7oUnp6abZCaurL8L3DcUoDMay+gDkOWRX5rlalh25qVv9ytUzYHclFdxUaZB0PSfHsv7vMn16stPs2a8oZ89evPzFF1/uO3vOnIM//fRrH1u7+50lS5a/tWjxBxnfncgeaVt3L0hKWh62YPF7A48f/8HbXLZ4cfLow8dODrC2vLcsWbJiRFLS8sk5OTl82zozCxcmz1i6dPV7a9ZtW9XQ0CC2rX/wKFgPo0qyUBitlsXRuswornJLG1Gkgr1yC4g0u2BTzW8HLG2WX/3xa6LYAD7aPVBnaM2yrPurODn5BhEiZghxB0I8gBA3IEQALq5yWLN2U7at/f3KkCGjexPCZ69/wcJ38b4+b2tz9zgDIRyYP3+ZxcvMHmbNWQYA4Glpee+QiAiRAJ5n7svzsF/+thZG7IAQIYi9e4JGW2iwrX2wKNic/3zpt6C7XY831rm9PH/jflKwCUJUeyBW+xmIMPZQpQJHuRVGlGYxeVDZPqMMLvoyy06RClNLv8M2eO1t/BXs/P5FOMFAiB84OIWBm6A38F3CgBB/ICQACPGBxNGT2mwPux9JSHhqKCFi9tqXvrMWB9IyW5u7hc+XAJ/vCe8mf4D3XBAUFOdBiCe8On8lnk9ua39vkLTynCOBw5OB2Dsafsy98KmthRF8wQVBSNgjoCsqBtvaB4ffl9e7a3ZCZWuT9cAu2MB4qNJhedUFuK5vhgZ9S7lWf/OHbVW/GzxUO4DkrYSHNZ9Bya06mfkQB9VWhig3QlZjcUt7O38atwjCDWeFkDj6OTh3LhcqKq5X//57XtWLs94AZzcZEK4McNAdPZpdZ3v0/UZCwpM9CfFm+2MSyAJbm7ul8lolVF67Bo1NN1sBgBMcNTiIEC947Y2V+Cyt4sZ7g6eU5yQHwgkBO6dIwP5NnTq3i8EvAEKCIVQ24MEWyI4bV+Drmzp8gOfbCxUplb6aXfD5DSWWdxjsxxvLpu+oL4BdNxRQdKuhyVw+ouyrcHS1Xij/Nz4gkfVR/xdBwOWGwLz574Je34bntYo5Jj3z8mlCXAHfkHHDxmF9uzDvRyZMmMA3uooB8M6yddDW1pZka3OvCQ2PXWwWCMMw7XHJvUPSyHUMh6CgWOC7yIEQX4iJGYvn6sSt7iYCYRimjGEYhfm7oyYtHlO48ytOY8dvW1vfAQCcGIbZyTDMcKsK5WaQqDKgqKU+zar8v+K2nZBA6PvQKBQWYm9rgUx/YR68+NKb8Pr8pdBw82a9uVwk6tXqKxl4Q1dcPs/6CEKEwqjzQmFgc2ZmZr65LC4ujif0Dr3pJux/g+cU/quji7zFy3tgkdgn6s0RI8dUqQuLXjXbisXSiSJRUOunn37ymrnM0TH0+sRJc5mCAuOCqVAU8ZWbsE+Vm7Bvm7sgzDB9+ssjjJYSPbpYH6xIhby8PAd0IkWiYP2MF2bhG58rFstd3d0iqsKjRrTV1Nx4C48IDQ0VCEV9m10Ffa7ZO/a45urR55aX9yMXReKw3KSlH/xsvgZEJIooE4lCyleuXLcHv4dEDJloMYNI79gFVbt79Wty4Eded3AObxJ49a0Sih7SvPLKO1cYhuky0Lakd+8EF5wxwqNHgkKhbouPn7wSv0f1GgWV16sP2dp3G4HY4qBNe9pRmQbH63V/q1N26m0L3dTpcLap/A/buq7xY12R2CEjUJQnbWvNMAwTxTDMFhQuAMwwlorWsfGJnQw0hSVWmTdTPWCwvH17hkV/fOIx0PQUyiB+xDMwOGYsODkHAbHrwQbVY8Y+aWHr3IqDXCrtwxDiJiR2IcB3joJRiZOhV5+BGYSIEwlPBi7ufcBNEAIuLlIQifuDQNRLz3UKZ7BvK1ZuNrXnKcDAdVj8UzBp0tzhhHgn8Bx7QER0PPz8869XjTbCE3b2gRASNhjGjZ8BgdKHgWsfCoRIgRAX2L37EyVaDRiQMMrYNwEsWrSCjUFksiFyixkkCO34wgg/vH4Pz3AYNuxZiBv2FLi4h7BxHiFcmPdG0p+K6YLCYgajeztg8FPYdi1byAlmePbekLZ1RydtdAOBTIQDXKL4EIhqs/Gj3nKbo04DP9UuKGpp6DDY5HkHHEjBesZk2+Kk2sb++6WyE3jT3kcbriptvECzA47Va/9k5qK/PeHiwAyA1157G9s5YWuxdu3ad1avX51g/o7+9p1aSRkhoeDIl0NhUVkHd9A4EASwf/8Bi4fkCzx7CajVCjzfFoYxbL148eJ7Hl5BVTiTCTwi4YpCaXIbPFfYs+6EAHr2ioeP9x2EkrJrhr17D8wm9mGnCCcAYuOegaKiUqa2tqa+trYG0rftrsMMHJcfxQ7EdoF4ego4DhHgwI9g+7t6zRbIy1dCUUm5ZuLEiVxCPN9HMU+ePBtaWlpacZC3tjbHJC1dVks46F4GQMyjT6AYOHFxj400Ji/EkJS0Gstcg+RxviiQeW8avxuvX2DAgZqbexH7+jLDME/X1NR+MWbchBZpUASMHvMklu+/c2+6QvQ2nn/M2Kl3BEK8krHtQGlfKCu7Ot7avhsIZGbJMa9HtfshXvcFjNR9CUN1B8BJsx081TvhTFNFh07NL8mWDdHuhxFoW/g5eCp3AlFugrev/4g37Xu0QYG4q9Ph+wZdB4F1Tkg4h2cUyKJFq7CdHpa1YrkcHzQY04aY1sSBQmBb+sem65P0NwtEW1R2y/JYI0aB7NljtM/KOh6f8+MlOHP2F7jZ1HTY0lIgCOuPb2pPz97wx+WCc8ZSj7kcrgz69hsJJaUleH1Pm+05dsGFOCPMmDEHyxstmiJhYTGPE05gR4E4ojj8IXH0ZDymPX5Djh0/DafPXIC8PDUKxDqo52DKOxgGxT6Bx+0zFmLf2gViL5MNcDcLhGEYL6ONFzszvvp6coNVe4SQa5U1TVevVgLDGD6xresAJwQcnQIgK+sIK1AscheGP4KzJ8aFW9N22IyXbiAQBBgAYBjQt+lvaW7X9OSrtp/HTNTCqh86dAozIy1tegNjYPQf3fzN21mx5ZZ9wWbIthSTavN4b1UG6Frqrlsd3AUy2WgxBugokHHjn8UH+7Fl/bhx0wb0CB8MkfJ4cHbrC1wnfCt7w+7MryyuzyQQXanVIDViFEh6+q4O/cHHLhL1G+/kFJxHuGGJXMeIS4QbCl5evSEvX2Hyqz3nYBv7Pj2E1xZufTi6OIHwwYoPsW6hZc2UKQtYn91WIJiJs3cIhlPZOTjQuJbHWBIZGf8K3y2qgucQfInLDUkwzmJSiHmUdXFMAb+VQHhyeZyrhYs1FC18fKMMxpSrFFzce+oFwj7DBV6Bh2NjE3Ozs7OtFn67JuA3fEYxQx6H3J/vpHUnTJjVC1PvhCOFkNB+oNMVs16EkW4iEFtEih2TUCAJpVlQq2+xmTZtuLKGGVecBS0G/Z0boNxwbmDRAdAzhkwr2y7o3/8le/NAGzgoHh+sVQxSVlb2UFFxGai1xRXSoIfqjWISw+7MgzYC6Qm64rIOb0mzQDIy9lo+JC4hDtU4mHg8CXiJw2H02Gng4RUFuA6DArmcp/zWaIoC8YX9+w938pCF7CBISd3dSR3ia+ggEBIEAYEDQKPtKsbjDSbEmcGBh2/s6F7DYdDgx8GOZ4xDTAKZkpycbGcjEG5k5CNCC4FEYGtHjhzxfO75F8HDC2dpXODDgYv3G//tAS/MXNSeoOkMuXyQDM/LdYoAD2F/kEgG1gmFD0f4+w8YLhD168d1imS4fEz5CmHXrr0WbnU3EYhcvbd0vO4buNraNBC/76rLHxmk3QO4J+uJsqPMga7ecgUplUNKD0JOYzk+jGnmYkdFKuyuvYxlm60P6BoeD90HfAvFwBWFhnXVOsPDI6CXnb1xLcRKIHZh4MAPAa2uqMrqABZcYPSAjz/+1OIh+YEsMh7Wrt8KP+TkQnlFOZRVlKWIxKHrUagmgZiEigLxgX37vunkIeMM4QsLFyZ1Uod4WwfprECkEBo6BLTaos4C21V2DpEwetwLsGfvZ3Dx4iV0tRrT0tK8CeFX44AzCWQ2zn62M4hMFhPGCmQB66pOtWw5L7/g4O69+2HWS6/D5CnzQSB6iL324LCh0NjU9JmlrSVSWbwcExPsTMG6uLg7wPwX3V0fcGBnNw9Yt35Lu/vVbQTiotzO4DaTqRUn2juHfyM1mUAK1gAG8R6aDEOwLnOng2bbWJK/9g/c+s5Xboc/blVbd7zgw9sjC7+G260WM8qf4LEnpmw0DuRgCA4dAmfO/BRia2NEBDw2wLURCDccOFwRfHfsRMfzcnEl3hN27txtion8vsRM1fsfsKvPVltmXFz8e+MbXijsA3lXVGeMpV0LhOeEC5tCmDBhJg7ItZZ1Pj69XdBd60wgISGxKJBOEgoScHMPhYICRSfxm+AW3p/YoU/juUYZy6wFIpH0d0aBvPn2h+3XGhs7vCF+xP/o6+rq2K0naMcwTMaLs95chcf2kI+Ea5WVnaRpTdgJpxCHcPjf15bAlwe/hn2ffmH6HICvvjkESUtXMxy2n1J4csJc9jqMB3YTgexqUIm9NDtw2zq8XZ3b/mCO1ZV4zb56Ah4v/xb4ym2A6xve6gwYVZoFs8pPwqF6LT4oUyBLCFFvThSo0iG3sQLL//IinlAcbUo9SsHVPQySk5Nx3cACn+18VzngB4WybYfljODDuiAxsU9Cenq6xQKlzxIuu+LrCZmZ+0wBvGcWhxcAiWMmw+nTPz51xxbfyYHZGJC7ufeES7/lm7NYs7sSiL1T2DS83oDgobBq1RabNSNhPK+TLBa7/SIkFjSawmZre2LHulV8GSxLXt9hdjG7WANj2CyWafOjVRYLZ3o7FMgbi9ZaXCvGH26wePHbnbhS3hAuHwKtbYYuU+uE4wcc+xD443JnojUjnojJB55DGOT+kmeKIT1au4VAkPSaghgUAKZs363+2ZSPZ982rnqGgV+arsH5pgrIa66CRgOucUEdwzDJ7Q0oU2fg4uLMsn+jOGray/8CFy5csA8J68kOZsLBwcDuvSojxO87FIS7R29I37nPEBX16ELM36/faBF0c8RA7MPZLRCEeBgI4e52EfQyTJg0B9gsDnGEzExjFsvXr8dG45pCGLi6yRk/v0f6EuIdSjihzQ7OOKCxzgOOHDlx1Ni43WwcZB99ZBnzGFmwYIncuJkShS1hCHFGUTW7ukVDbOzTpj54wnvvbzQdiwLxBonkEVCpNJ2kwT2B8HCGDAWRuO/lgIBBfELcZR5e0S1cR6NrGRoWg/d4ers9cYFFby3HZ+IUFBTnhO7P3Ffex+/sjCENGWTa+OkJTi4Rl1x9+4oJEa0nxNuALtKiRWxqvQsXy34TDnKOnRBUKnNWryPSkH7j0V3D+/bYE8+ahOQ4HAUfENgbCnVFHe7dA0dE0UcxpCCF3Yz4WOkhvW19l1zZ0EwUm2BMURbGMXd1IzBLNirxcYbngAJB/xaDYDeQ+PWALw+yWaRotBOJ/ZidGZ+3nys5ed1Q85sSp3a+SwB8c+gYYJZG4t9jlq8kFD7Zt6/d3hODcbZ9RyCEB9G9EuD02VyYMu21m4HSfuArCYOjR79jfwQmkchm+vlHQlbWt532bWNq+uUe4b1Nwa8A7B18IDV1B6SkpEv9Anr+yz8gGlI2GVOgoaH9BQGBfWBQzFgo1HV8q76x8N0k43XhxwGwT/PeWAEnT/1ws3efkRf8/KNhyKOJeB/YFXX/gJ7svVm3fhMKwjkm5jE3X0kPSFq2AW2eRJv09HT7UaPGMcZ4CeMG7LMAAqXRkLZtG5vE7GzfFiZPcH1D4i+HZ5+bBY3NzVar+JYsWLDAG88bFNwPhg5LhHGPTfg8MCj6ckBgXxg0OAEwyWJ7zAPHBQD7zdW/MTzFViBX1oFUmwkjyw6NGFdy2H92xUl5si7bY0JJDj++5KsBo4q/7t+//JAzUW4qdFFsgyWVOVDT2ow/ITHl3u+O3J8vNmVnn4Ts7LOAf5UqDT5wrbk+P19pqKuvt7rp58+fv2E85iT8eolNErBvRaWysI9CqYEbdfXtLkJeXt4As2129imovI5rAUwi1qnVmiY8X0NDI7tgeUWj6alUaZibjY03LE5nRUlJyRfm9n658Cvo9QZWXDqdzkml1kJ1dS177pKSEr5GUwhFxSUYfF+wbQc5fSbb1PeTkJOTg9dViOXGtjRQVFyKZWwKV6XW6pUqLdTU1BrM8aNSqYHrVdVoY/X/Bpw/d7b1Tp9P4hZ0tOlyK5FWq5WiDd6L6ppatH3P1saSAoWmXluoA7VGp1co1RUabVGrWq1ldLoSuH27VW1r/8Cyp+7Ks4OLD7ALgESx0fhR4s9rUwBnivaygvWQWPoNnGooZl9Btu38f/DXN0jarsrfHaYA+E/tbfpvmF0oXPz72z8d6ARz6hev8V5c5z+W2tbmuHO3KuDUrauwoeYSzCw9DtNKvoW5FadgRfUFONZYCmebyuCWQY9vlvZNfBTKPw4M1BmG+YVhmDbc+o77cBiGmWlrR6FQKBQKhUKhUCgUCoVCoVAoFAqFQqFQKBQKhUKhUCgUCoVCoVAoFAqFQqFQKBQKhUKhUCgUCoVyP/IfKRrUT6JW+bcAAAAASUVORK5CYII=;" vertex="1" parent="2MOlIIQ-UUBEkm-nTI54-65">
          <mxGeometry y="114" width="245.45" height="81" as="geometry" />
        </mxCell>
        <mxCell id="2MOlIIQ-UUBEkm-nTI54-102" value="" style="endArrow=classic;startArrow=classic;html=1;rounded=0;exitX=1;exitY=0.5;exitDx=0;exitDy=0;exitPerimeter=0;entryX=0;entryY=0.5;entryDx=0;entryDy=0;entryPerimeter=0;" edge="1" parent="2MOlIIQ-UUBEkm-nTI54-65" source="2MOlIIQ-UUBEkm-nTI54-72" target="2MOlIIQ-UUBEkm-nTI54-11">
          <mxGeometry width="50" height="50" relative="1" as="geometry">
            <mxPoint x="205" y="130" as="sourcePoint" />
            <mxPoint x="255" y="80" as="targetPoint" />
          </mxGeometry>
        </mxCell>
        <mxCell id="2MOlIIQ-UUBEkm-nTI54-39" value="" style="aspect=fixed;sketch=0;html=1;dashed=0;whitespace=wrap;verticalLabelPosition=bottom;verticalAlign=top;fillColor=#2875E2;strokeColor=#ffffff;points=[[0.005,0.63,0],[0.1,0.2,0],[0.9,0.2,0],[0.5,0,0],[0.995,0.63,0],[0.72,0.99,0],[0.5,1,0],[0.28,0.99,0]];shape=mxgraph.kubernetes.icon2;kubernetesLabel=1;prIcon=api" vertex="1" parent="1">
          <mxGeometry x="811" y="249" width="72.92" height="70" as="geometry" />
        </mxCell>
        <mxCell id="2MOlIIQ-UUBEkm-nTI54-66" value="&lt;h1 style=&quot;margin-top: 0px;&quot;&gt;TextToSQL&lt;/h1&gt;&lt;p&gt;API Pyton convertendo o Prompt ja tratado consulando as tabelas especificas o DW para responder a infromação.&lt;/p&gt;" style="text;html=1;whiteSpace=wrap;overflow=hidden;rounded=0;" vertex="1" parent="1">
          <mxGeometry x="883.92" y="189.5" width="264" height="120" as="geometry" />
        </mxCell>
        <mxCell id="2MOlIIQ-UUBEkm-nTI54-67" style="edgeStyle=orthogonalEdgeStyle;rounded=0;orthogonalLoop=1;jettySize=auto;html=1;entryX=0.989;entryY=0.391;entryDx=0;entryDy=0;entryPerimeter=0;" edge="1" parent="1" source="2MOlIIQ-UUBEkm-nTI54-39" target="2MOlIIQ-UUBEkm-nTI54-27">
          <mxGeometry relative="1" as="geometry" />
        </mxCell>
        <mxCell id="2MOlIIQ-UUBEkm-nTI54-71" value="&lt;h1 style=&quot;margin-top: 0px;&quot;&gt;Framework Django&lt;/h1&gt;&lt;p&gt;&lt;br&gt;&lt;/p&gt;" style="text;html=1;whiteSpace=wrap;overflow=hidden;rounded=0;" vertex="1" parent="1">
          <mxGeometry x="330.7" y="640" width="229.3" height="120" as="geometry" />
        </mxCell>
        <mxCell id="2MOlIIQ-UUBEkm-nTI54-74" style="edgeStyle=orthogonalEdgeStyle;rounded=0;orthogonalLoop=1;jettySize=auto;html=1;entryX=0.995;entryY=0.63;entryDx=0;entryDy=0;entryPerimeter=0;" edge="1" parent="1" source="2MOlIIQ-UUBEkm-nTI54-11" target="2MOlIIQ-UUBEkm-nTI54-39">
          <mxGeometry relative="1" as="geometry">
            <Array as="points">
              <mxPoint x="971" y="293" />
            </Array>
          </mxGeometry>
        </mxCell>
        <mxCell id="2MOlIIQ-UUBEkm-nTI54-89" value="&lt;h1 style=&quot;margin-top: 0px;&quot;&gt;Ollama&lt;/h1&gt;&lt;p&gt;Por segurança optou-se por um modelo local&lt;/p&gt;" style="text;html=1;whiteSpace=wrap;overflow=hidden;rounded=0;" vertex="1" parent="1">
          <mxGeometry x="671" y="655" width="180" height="120" as="geometry" />
        </mxCell>
        <mxCell id="2MOlIIQ-UUBEkm-nTI54-91" value="" style="dashed=0;outlineConnect=0;html=1;align=center;labelPosition=center;verticalLabelPosition=bottom;verticalAlign=top;shape=mxgraph.weblogos.whatsapp;fillColor=#00E676;strokeColor=#dddddd" vertex="1" parent="1">
          <mxGeometry x="358" y="390" width="74.4" height="74.8" as="geometry" />
        </mxCell>
        <mxCell id="2MOlIIQ-UUBEkm-nTI54-97" value="" style="endArrow=classic;startArrow=classic;html=1;rounded=0;" edge="1" parent="1" target="2MOlIIQ-UUBEkm-nTI54-91">
          <mxGeometry width="50" height="50" relative="1" as="geometry">
            <mxPoint x="251" y="450" as="sourcePoint" />
            <mxPoint x="331" y="430" as="targetPoint" />
          </mxGeometry>
        </mxCell>
        <mxCell id="2MOlIIQ-UUBEkm-nTI54-98" value="" style="endArrow=classic;startArrow=classic;html=1;rounded=0;entryX=0;entryY=0.25;entryDx=0;entryDy=0;" edge="1" parent="1" source="2MOlIIQ-UUBEkm-nTI54-91" target="2MOlIIQ-UUBEkm-nTI54-65">
          <mxGeometry width="50" height="50" relative="1" as="geometry">
            <mxPoint x="501" y="450" as="sourcePoint" />
            <mxPoint x="551" y="400" as="targetPoint" />
          </mxGeometry>
        </mxCell>
        <mxCell id="2MOlIIQ-UUBEkm-nTI54-99" value="" style="endArrow=classic;startArrow=classic;html=1;rounded=0;entryX=0;entryY=0.75;entryDx=0;entryDy=0;exitX=1;exitY=0.5;exitDx=0;exitDy=0;" edge="1" parent="1" source="2MOlIIQ-UUBEkm-nTI54-29" target="2MOlIIQ-UUBEkm-nTI54-65">
          <mxGeometry width="50" height="50" relative="1" as="geometry">
            <mxPoint x="501" y="620" as="sourcePoint" />
            <mxPoint x="551" y="570" as="targetPoint" />
          </mxGeometry>
        </mxCell>
        <mxCell id="2MOlIIQ-UUBEkm-nTI54-100" value="" style="endArrow=classic;startArrow=classic;html=1;rounded=0;entryX=0;entryY=0.5;entryDx=0;entryDy=0;exitX=1;exitY=0.75;exitDx=0;exitDy=0;" edge="1" parent="1" source="2MOlIIQ-UUBEkm-nTI54-30" target="2MOlIIQ-UUBEkm-nTI54-29">
          <mxGeometry width="50" height="50" relative="1" as="geometry">
            <mxPoint x="251" y="600" as="sourcePoint" />
            <mxPoint x="301" y="550" as="targetPoint" />
          </mxGeometry>
        </mxCell>
        <mxCell id="2MOlIIQ-UUBEkm-nTI54-103" style="edgeStyle=orthogonalEdgeStyle;rounded=0;orthogonalLoop=1;jettySize=auto;html=1;entryX=0.749;entryY=-0.053;entryDx=0;entryDy=0;entryPerimeter=0;" edge="1" parent="1" source="2MOlIIQ-UUBEkm-nTI54-17" target="2MOlIIQ-UUBEkm-nTI54-27">
          <mxGeometry relative="1" as="geometry">
            <Array as="points">
              <mxPoint x="715" y="190" />
              <mxPoint x="560" y="190" />
            </Array>
          </mxGeometry>
        </mxCell>
        <mxCell id="2MOlIIQ-UUBEkm-nTI54-104" value="&lt;h1 style=&quot;margin-top: 0px;&quot;&gt;DB NoSQL&lt;/h1&gt;&lt;p&gt;Bases Não Estruturadas e Desnormalizadas dos Sistemas de Segurança Publica&lt;/p&gt;" style="text;html=1;whiteSpace=wrap;overflow=hidden;rounded=0;" vertex="1" parent="1">
          <mxGeometry x="860" y="30" width="180" height="120" as="geometry" />
        </mxCell>
      </root>
    </mxGraphModel>
  </diagram>
</mxfile>
